<mxfile host="Electron" agent="Mozilla/5.0 (Windows NT 10.0; Win64; x64) AppleWebKit/537.36 (KHTML, like Gecko) draw.io/24.7.17 Chrome/128.0.6613.36 Electron/32.0.1 Safari/537.36" version="24.7.17" pages="2">
  <diagram name="Page-1" id="Cx1wXlQNHhGc5YUW4zX0">
    <mxGraphModel dx="575" dy="335" grid="1" gridSize="10" guides="1" tooltips="1" connect="1" arrows="1" fold="1" page="1" pageScale="1" pageWidth="850" pageHeight="1100" math="0" shadow="0">
      <root>
        <mxCell id="0" />
        <mxCell id="1" parent="0" />
        <mxCell id="nm9v9BbhIRKBIwmMx2jB-7" value="" style="shape=table;startSize=0;container=1;collapsible=0;childLayout=tableLayout;" parent="1" vertex="1">
          <mxGeometry x="370" y="240" width="140" height="20" as="geometry" />
        </mxCell>
        <mxCell id="nm9v9BbhIRKBIwmMx2jB-8" value="" style="shape=tableRow;horizontal=0;startSize=0;swimlaneHead=0;swimlaneBody=0;strokeColor=inherit;top=0;left=0;bottom=0;right=0;collapsible=0;dropTarget=0;fillColor=none;points=[[0,0.5],[1,0.5]];portConstraint=eastwest;" parent="nm9v9BbhIRKBIwmMx2jB-7" vertex="1">
          <mxGeometry width="140" height="20" as="geometry" />
        </mxCell>
        <mxCell id="nm9v9BbhIRKBIwmMx2jB-9" value="1" style="shape=partialRectangle;html=1;whiteSpace=wrap;connectable=0;strokeColor=inherit;overflow=hidden;fillColor=none;top=0;left=0;bottom=0;right=0;pointerEvents=1;" parent="nm9v9BbhIRKBIwmMx2jB-8" vertex="1">
          <mxGeometry width="35" height="20" as="geometry">
            <mxRectangle width="35" height="20" as="alternateBounds" />
          </mxGeometry>
        </mxCell>
        <mxCell id="nm9v9BbhIRKBIwmMx2jB-10" value="2" style="shape=partialRectangle;html=1;whiteSpace=wrap;connectable=0;strokeColor=inherit;overflow=hidden;fillColor=none;top=0;left=0;bottom=0;right=0;pointerEvents=1;" parent="nm9v9BbhIRKBIwmMx2jB-8" vertex="1">
          <mxGeometry x="35" width="35" height="20" as="geometry">
            <mxRectangle width="35" height="20" as="alternateBounds" />
          </mxGeometry>
        </mxCell>
        <mxCell id="nm9v9BbhIRKBIwmMx2jB-11" value="3" style="shape=partialRectangle;html=1;whiteSpace=wrap;connectable=0;strokeColor=inherit;overflow=hidden;fillColor=none;top=0;left=0;bottom=0;right=0;pointerEvents=1;" parent="nm9v9BbhIRKBIwmMx2jB-8" vertex="1">
          <mxGeometry x="70" width="35" height="20" as="geometry">
            <mxRectangle width="35" height="20" as="alternateBounds" />
          </mxGeometry>
        </mxCell>
        <mxCell id="nm9v9BbhIRKBIwmMx2jB-12" value="4" style="shape=partialRectangle;html=1;whiteSpace=wrap;connectable=0;strokeColor=inherit;overflow=hidden;fillColor=none;top=0;left=0;bottom=0;right=0;pointerEvents=1;" parent="nm9v9BbhIRKBIwmMx2jB-8" vertex="1">
          <mxGeometry x="105" width="35" height="20" as="geometry">
            <mxRectangle width="35" height="20" as="alternateBounds" />
          </mxGeometry>
        </mxCell>
        <mxCell id="nm9v9BbhIRKBIwmMx2jB-18" value="" style="shape=stencil(lVfbchoxDP2afdXIlq/PafofmQkpTClkCOnl7yt344C1cChvy64O1uXoSJ7k4W399LqaPL8dD/vvq1+b5+N6ki+T95vdenXYHPVpksdJHl72h9W3w/599zz/fn1qlu3px/5n+4ffMy45CqWhPP+Z3ziq7t+Lr7P9drM7t8/986e9I6nXATkQhxFQyYfrgOKJeQAIY0Ah9gMgOIp8HVCFfBwAUYgFAGIPsQNSoIxOSN3jDsipp+EaIKYBUCLlAgFpBLSogEuO2ea1ai1B5WqhMJZa3ySUJqGcR4CWGpCpaNTFAj7CukymfAFQgUtK1zxy4ywPFxGxWL7qEQX4FCpFsYAIfApCzlkAop9UCmILERCgUDFpypBNrWHEAlwEgExsTlBCglLHQDVbgPegcoFkAWBwggqNX7iEAEUoLQDIpeoW7MNBtySme9LaqOYt4KOnrgH8qEyNGiiG2Fv4P8lXPlv4nN7ghMK25W40UHaLCXGjR3VoubtkIHpyC2VCQhOWdMVSFpjE20IkoPjao9nkFcvxBUCBWdKmLoYbeEQowHCjDSHgkgKMkrUxB9KqSlbHwrVBChpCMoWxg3RUO5RW1wfz2TKA6uC10uMJum4gcXXRxqALTQAxaEOOHunGFEFWF3NayQv6jXs3nhY4NKR9r+jJ3AGBUYEbzRnWS0MzyeG+RFy2L1blGbrjIwVrzyA54u0kxMoS2AqF2qMOSHYdVh1A24W3TcyUkH0mL8YeiURiq9YOkvnu9f+mvT6c7hovm+12vqqcf7d3E30132vk8S8=);lineShape=1;strokeColor=default;" parent="1" vertex="1">
          <mxGeometry x="334.82522880686975" y="241.08501036604667" width="1.5324625483523657" height="23.370938176258733" as="geometry" />
        </mxCell>
        <mxCell id="nm9v9BbhIRKBIwmMx2jB-19" value="" style="shape=stencil(fZbdcgIhDIWfZm8zQAg/17Z9j85U606tdqz9e/tmZ0c0uJ47xP0I5JwEBl59bp8/1kNwn6fj4W39M76ctgM/DCGM++36OJ50NPDjwKvN4bh+PR6+9i/z74/n6ctp9H74nlb4nbmSKZeJCu5vngmZ6jzzNAO7cX8FVKEsBuBKrgKg9oAE8gkCbLeUhEoEQKSUDZDLeWYRKIl8MEDRmHwfyBrBG6Amyu4+kDxxMoB3jhwgYu7TVAsVkFcWCs4CTBEoF4RctKeOxHIf8IXYpikHikAIf+MNUW94AGSSaoAoFIE3AlOyeWU+p2E5S9yfQZcQILVuQOwZdJNoS9Ls3wA5u2XZTIHECqeJ9kDpSaauRiNVcAY1QhdBzeLBli5WazpkSsBLV25uRaqWRyFawTQzRRIQYirJzq5atkBqLfouwqUxLBepthWb10vrWZY6UOAeyKCCtDV625mm9gmUC4Wc3VLJMMIE1BsA2FW9JraVlQB7n3c9oMKhCLEvIM1zBPZ25/umNQ1tVEC2G+fFCC8g398O2hNQuQlVu752DBfA+q0ptnqO5JFmeuIuo9DY7KjY71UxdJV4EntifPWorW++R/dC4t7V3DlIB5cHx2bc7eb3yvX//QNFp+bHDT/+Aw==);lineShape=1;strokeColor=default;" parent="1" vertex="1">
          <mxGeometry x="335.77081645595547" y="225.43992857504026" width="1.5575132573717383" height="1.5550787387858993" as="geometry" />
        </mxCell>
        <mxCell id="nm9v9BbhIRKBIwmMx2jB-20" value="" style="shape=stencil(lVnZchs3EPwavqJwA/Ps2P/hKssWK4rkkmUn+fs0wmBN9HKb8ZvEnV5grp5jT+ndt8ePXx9O0X97e335/eHP86e3x1P67RTj+fnx4fX8hr9O6f0pvfv88vrw5fXl+/Ony/9fPw7J8dcfLz/GG/664EJ1uQ1U9H//90t0Lfz7y4cL4On8fA3A47gC8IpyDDDX8iIfgwvigOZ8WuXxSzyWz67ZIp+yq+1YPrlUF/mcXK9KPoZFviRXu7pPWfWtkBf6VmfrfVp0Sdw/eJdXAzVzVSgQcCO/AHqZr7gN6FPBDWDO7BgAG4VVB4OVxQmxu7wayYor4gT4tK1hatV1EXUZRiwMMHGlElyOfCUV19W7QidEV4UOtU8jbmbt85K3M6G6spq1R1dE6OFxWs2KV3gFgE1Ws1ZzXgSfIfhWHWqcdrsNSPMCW/rUmSC3AdnZ6gd4RuU/3GTrCRmO8wJQZz5ujNEnRx0B+npCCjJaASjEYdBKnbBF/0aq5qLyQ+IrBSgtPG2BYwlEbio0+kyXDeBnsBzFUlxpxmas3JbfysAWrDKSRjZQrOrs8ZxuxTWhcC0cFpAXYVQDJ1uVqVMK03CbleuQkBLZM6i605hTh8OEAqh7gQDRdRGlCTFJUVqkyqnM922A5oqohQkMSgCb5fE2wHM1j9EFERVwKtUF1KIozDr6C8+ArgC71ITjojArAN4zQFZPqBgZENQJYWelLnuY6LmpAsALxwGQ6YTmgmoZPJfbkc4i/QGodEKZreuR0mHli+FKFRph57jsoroSWmGi+SRpHo9r3AHUlTJ35+NKKjTK5IhrpZWVymyWr8xaBGvgsa00eYeHAeiUcU2bFRcgKyH4lFm34noFUNQNAIeGadZIzHz3UzQHBkjHBVf3NCOYD/lgeyJTOngeTEbB1SSQ6UpVTjJx1xGPEqoc57n9HK5U0frLALRuqx8w3KjZB26i1g3jrRcAlKxOjVWSfU+qTAKo06oxyd719Up9hu9t+cLloUruzsZUrFkM8y9P9DK0S3OJ2gbZNWBepvz3s0AezVWpkbzilxa42fa68dxtGOAQId89t9pRVmdM4ySfZe+PzpwaySKZwnbU0vQwktn+wcsFgzWe8UKes8BtQJ+D8lVWqiplxn3hKGsiZ4L33FRhZlN7LRxBxRztrpw7jbXORU5UMFOngSRoQNmNwk0Pqmkm4tXuSYaqcehhamoKkLldaF1uGPCYGkO8QinddustxK9Xe5jAPZIVWaaG1emELjvJsUuiIuI1JaXMoxWipas61bhvszt1KrCroXVXe9vKLGlRdlVhZ6beZN1pTKsgQjm7cXS3JEeGwGWkZpmgOwYYi1uhsHdh1RcDclIcw/qmJDkp7RrnImm1zmnlf+6EwNI8z+vpYjym3b+XLSRoPfGKR+2FIU88b5KOQuGVkEm+gzy1tCbLCOSpZ7ZJyYc5w4kvv12EW72d2kUCwBsSELBa5u8+FyBPwx2AMUAtkQeAlI6S7ABouz2STJxf/uZ0H4A/fn7i+nx+erp8Ibt+zp/E8NPlc1p6/w8=);lineShape=1;strokeColor=default;" parent="1" vertex="1">
          <mxGeometry x="323.05296817415734" y="295.99464145674517" width="26.99460464499437" height="27.48007498663219" as="geometry" />
        </mxCell>
        <mxCell id="nm9v9BbhIRKBIwmMx2jB-22" value="" style="shape=table;startSize=0;container=1;collapsible=0;childLayout=tableLayout;" parent="1" vertex="1">
          <mxGeometry x="370" y="299.73" width="140" height="20" as="geometry" />
        </mxCell>
        <mxCell id="nm9v9BbhIRKBIwmMx2jB-23" value="" style="shape=tableRow;horizontal=0;startSize=0;swimlaneHead=0;swimlaneBody=0;strokeColor=inherit;top=0;left=0;bottom=0;right=0;collapsible=0;dropTarget=0;fillColor=none;points=[[0,0.5],[1,0.5]];portConstraint=eastwest;" parent="nm9v9BbhIRKBIwmMx2jB-22" vertex="1">
          <mxGeometry width="140" height="20" as="geometry" />
        </mxCell>
        <mxCell id="nm9v9BbhIRKBIwmMx2jB-24" value="1" style="shape=partialRectangle;html=1;whiteSpace=wrap;connectable=0;strokeColor=inherit;overflow=hidden;fillColor=none;top=0;left=0;bottom=0;right=0;pointerEvents=1;" parent="nm9v9BbhIRKBIwmMx2jB-23" vertex="1">
          <mxGeometry width="35" height="20" as="geometry">
            <mxRectangle width="35" height="20" as="alternateBounds" />
          </mxGeometry>
        </mxCell>
        <mxCell id="nm9v9BbhIRKBIwmMx2jB-25" value="1" style="shape=partialRectangle;html=1;whiteSpace=wrap;connectable=0;strokeColor=inherit;overflow=hidden;fillColor=none;top=0;left=0;bottom=0;right=0;pointerEvents=1;" parent="nm9v9BbhIRKBIwmMx2jB-23" vertex="1">
          <mxGeometry x="35" width="35" height="20" as="geometry">
            <mxRectangle width="35" height="20" as="alternateBounds" />
          </mxGeometry>
        </mxCell>
        <mxCell id="nm9v9BbhIRKBIwmMx2jB-26" value="1" style="shape=partialRectangle;html=1;whiteSpace=wrap;connectable=0;strokeColor=inherit;overflow=hidden;fillColor=none;top=0;left=0;bottom=0;right=0;pointerEvents=1;" parent="nm9v9BbhIRKBIwmMx2jB-23" vertex="1">
          <mxGeometry x="70" width="35" height="20" as="geometry">
            <mxRectangle width="35" height="20" as="alternateBounds" />
          </mxGeometry>
        </mxCell>
        <mxCell id="nm9v9BbhIRKBIwmMx2jB-27" value="1" style="shape=partialRectangle;html=1;whiteSpace=wrap;connectable=0;strokeColor=inherit;overflow=hidden;fillColor=none;top=0;left=0;bottom=0;right=0;pointerEvents=1;" parent="nm9v9BbhIRKBIwmMx2jB-23" vertex="1">
          <mxGeometry x="105" width="35" height="20" as="geometry">
            <mxRectangle width="35" height="20" as="alternateBounds" />
          </mxGeometry>
        </mxCell>
        <mxCell id="nm9v9BbhIRKBIwmMx2jB-28" value="" style="shape=stencil(rVjLbhsxDPwaXwmRep/T9D8CxGmMunbgJH38fbl1tV5R3nED9LZec1YUOaSG2vi71+eHl+1G3Ovb6fh1+2P3+Pa88Z82IrvD8/a0e9Onjb/f+Lun42n75XR8Pzyef788TJbT07fj9+kLP884X4jrhBL36/yGyec/Lz6f7fe7w9I+U5HOPpJ3wD6RpP77TCIAEMiVHqBLVgBwFHuAJIphHaB/M3cAdbKCPWhIJHSAkCmBIHGk2gc1VpICAEzOdYDsyIM9qMP9nnOlAhYILebNvmQK0J57f6pQTuv2mTj39pECyDJ7EgNIVCLIgW85nQG6AxAhzWmqFpD8OiDOEV8CAC2SUOXBJRDUrDH0AwC4pEmVAYCqrXgK2QIYhLUkCibRHhJPeZN75pVKGblUW6nMgNhawlVAZZvpwsTApTrkIWfYw3SLpQ9r9lTRCqF9b1GeCfQkBSS2AGEAiMS9S0kLGoRVAX/LZQEIyKVEWSzAA/JdyuVfAYWi+5BLA70VkDEgxyGsIErs3JXGmkCN6hLVLKHsw4AkFpBAySnAGfZJe7MWV3P8KEBQmJT+0QICIlNqrXQB8GgPceC34BoNrcAWUYKpDhTZAqBLWqO90NBMF9RngqXrdOaitqF7GOhaUeIixWoBEXEptUNzWXLIpdwqcglAfaZYITDVKDioJ7ayBdwooLH1OVwPtuJU0SHtcKWoVT/9V8TUmgybAgUcWKOA9BCC5EjDQcq3Oj4PBymSTOMxVx1u4NL0zgyYxfjaUe0NIMOwqhiwOlH5BdrAJGiqBaCjOg+JU0ABiZtE2eBSBlGaZN/gEkrcJCwHl9AeVLqaiWZB4DV17MLgE1iC2R4RNxLhB2ok2L+HglNyoQHFEfd9SYUm6hrSZsLFAIQ6ZbIa8YbU0ACVnhaxQFrolGrmVh0SGRBPp0qzBc072oLuwcxM+gZVm1Sr4NTJgIb7WblciAez5sXOoRHKAK/lbG4DoCxW+9jbu5bHNfvijH0CEfKhTUcXe4/2G2wZuHZ9ct0+WlprXQBNovapWPsbtyvWf8QIPxftwn8Uz9yuLS72gm+Hkv0+mgDUvtrvo2uG6bbKEBTH86O3Wzft9eFylfa02+/PN3HL/+3Vm746X9v5+98=);lineShape=1;strokeColor=default;" parent="1" vertex="1">
          <mxGeometry x="330.7530058851903" y="362.8574793709239" width="20.125499124377104" height="36.866920535083864" as="geometry" />
        </mxCell>
        <mxCell id="nm9v9BbhIRKBIwmMx2jB-39" value="" style="shape=stencil(lVjLbuMwDPwaXwlR1PPc7f5HgaabYLNJkab7+PulYdixqGSM3lJ3KFOcITXyIE8f+5f33eDdx/Vy/rn7c3i97gf5Nnh/OO13l8NVfw3yPMjT2/my+3E5f55ep7/fX0bk+OvX+fe4wt8pzpGLY5B3/6YHtVKcnnyf8MfDaYX3lFOLTxT8Y3yiaPAe4lnI5SagRIogwDMJNwE5URYQUKm0KaVMoT4OkDwnMAfEQhXUKATyoQ1gmFJ0FNo9BN10BgGJvAlw8zvv06AJuCZAIoUCApTWlgdh8ulxQHYU25R8nrm/HyBU2zf4AJlWXosJYKpgD1ml3PLA+gQwXTxxyzRnYvCGEijXNiDAspZsq8TKDIOAStU0EHlQJG0vbvG6AyC9KrOUF62SANaqykZaXVAB+et4SC3eU3QAX6i0FDhi0GuKN/Vx8wC5j6/EweJRPStJh0f5L+NzhUf1qfNkWOFR/XV6FVsf0PiKN12mgwLogd2yv1uAIAF1AtVhhhMqFh/x+pkNPm0QYAWUcD7SrY8EpwLq8Ch/FaglGI32sQFs/dHppPhOQLKBt/XxYGKN+E5wGF9tfRjz5axAHdaD7/B4/WDz32jI1K2/oWc7IBivX+2A8CD/+w2JN1zthsMG3q4PJ/RX8ZlS2/DqIVFB1Xm0BQp4IgY7gCJuSOlPSFgfZydoxUd8sQNIj/gKOl4Nbm8iUIWK2BGkNiWAEpVlxK6MUAEp5Uyl5UBJ8yhASWi7QFlDviDzLJqVXSzIwWYrCzWk6KaSvG1ktbwZmeo8N+LKVCNDqq4+tEyrbUd70H+b2RWxg5Vir0+xwmkhzjan1i2j+5wnaVNSm41SUm0aAzXqF7nw+Thd3QATum5RabthtJCANp798OoGi5THNv+Ke4Hn42iFr2C+dAzcLNgDvL1RKx7UZ7E/Sy87fAI62zibLzCG6GbxHuC5dnhAgGbb4QuQqLtDABJcd16OeFgf1+03gbb/6ieTbbz+uH2feTscj9PnnfX/7fccfTR9C5Ln/w==);lineShape=1;strokeColor=default;" parent="1" vertex="1">
          <mxGeometry x="349.9229195131511" y="324.6770517116405" width="29.58401124896424" height="58.10400179411484" as="geometry" />
        </mxCell>
        <mxCell id="nm9v9BbhIRKBIwmMx2jB-40" value="" style="shape=stencil(lVbLbttADPwaXQnucl88p+l/BIhTC3XtwHHb5O9LVZCdpaxBe5PlGS2XnCE5yMPb/ul1N0R+u5xP33e/x+fLfpAvQ4zjcb87jxd7GuRxkIeX03n37Xz6eXyef78+Tcjp6cfp1/SF95kXmIl5okX+mF8JSfj74utMOIzHTwRtlKTDK1XexjclbR0+NOK8Tah2QO4IsVIFERWh0hNEKbVtQrLvpY6QE+W4TZBCob9DZYq6TQhKrfRJqjBLlhN1WW2UBRAqsTtBKYI7hEQpeUJFJwSS7AkK0tooxBW+bOMzcfP4UrfxkfIqnpC28UyNfUoTyNDKCFazDIpsEnDxFJxQyqHHZ1IQv8m6eLwADRVKtccnaqBelu3k8chnIVJbERq6cKaa/Q0idgEnT2goJKXMvgYZaMgI6kKqUBRG8C5oFIGqzZjVlUGJ0R2sqisfZFA3q0MKnqCgDmYT7TvwrelvKIlXTmsAbxNj5XwByg4Um88pcj5TWBWtQbyPv8IS3MUjUdg86GVXdLnS/dZV/dDMAodgilT7FInpCoSUy9IbrlPTugvoXmU10+xWaKbV5Am6uPU+/mqsa0SwvdjcZ49HIq2W8r5ZXAfW/fEUFg0seIaibrLM0xtegOiadbvi8AF9v/l+jU2pwdvY8CAeFd+IGC92K9czrJd5RIPLfwT5n/YTcXg4nnSZjjc9wLb4v5vsPxDs4bY4v4yHw7x3f/7fL9r2al7S5fEP);lineShape=1;strokeColor=default;" parent="1" vertex="1">
          <mxGeometry x="378.7606887984367" y="324.61369061905964" width="1.77282990180917" height="6.6909615667886255" as="geometry" />
        </mxCell>
        <mxCell id="nm9v9BbhIRKBIwmMx2jB-41" value="" style="shape=stencil(lZbZbhsxDEW/Zl4JStT6nKb/ESBOPahrB47T5e8rdSpXojC3yNssh5JIXlJc5OHt+PR6WCy/3a6Xr4cf6/PtuMinxdr1fDxc11t5WuRxkYeXy/Xw5Xp5Pz9v769PlaxP3y7f6wo/N7ucKHG1svxr++IphT8fPm/8aT33PJMfeWOgQcyUZTCwhkLeNwiewriDBGKwg8tU//UuCIW4byCW8mgQmaLZNzCRTBoMUiDjwA5k48DnTC7t87adt+MT5NmMSWAmZuABSZg2AA6UeKTJARAhJhmTXHQVQQq4ZfTOR8ogx3fvOp6BiJiMWj+Qhf76MaDZN53vxJOVv44yWL9I3ms+CEqw2IkH57Eteh2PqlJ0FRd/BfIp63gyyK9r2en4DPRTeKW32BS4dx4Vz0QBrC/knNazwHimSf9Iz7apq+Mz0KchPxX83560o0+d30wexIfJTTzqD6VepvrF9TLXo8DzzHrwuJ+o+HuKoF64dbOON9Dfj/HGURwdToYiKhjWFRwCObCDKwEZj1TuNfH7BsE2hd3vyaIqYBBLikbRmQCbbioaGFUUYNMqOXXjBgxdrj2cFW+AKArvg+KRqIuGjdM8KOLaQ5LiBRRlqSmjz4NEWmt27FqGLCiaekeL4tElU3vIeP4yV4D8dkPDXULksMOqLboWgT0+iOITDpASnIdTx4eH1//y5eHfpPyynk7boN3/15N1+bRN5fL4Gw==);lineShape=1;strokeColor=default;" parent="1" vertex="1">
          <mxGeometry x="370.7889127678203" y="324.91495167921187" width="8.258373617967512" height="6.26650105710299" as="geometry" />
        </mxCell>
        <mxCell id="nm9v9BbhIRKBIwmMx2jB-42" value="" style="shape=stencil(lVhbctswDDyNfzEkAT7wnbb3yEycxtM0zjjp6/aF6lIRIWkz+bMlLPEGljrwzcvD7fPxkMLL6+X87fjrdPf6cOBPh5ROTw/Hy+nVfh3484Fv7s+X49fL+cfT3fX/8+0kOf36fv45nfD7istU8gRK4c/1QaAa/z34chV/PD0txKNQioN87Q825VMkHc+PTI0BQInDADCLVPcBnKmNFqVGXPcBEr0GFirAJMnd4hmgpMBpsddpANgRkvYBmamOGnKkDHzIFvU2ApSi7ANKoFIGQKkUMwAIxTommimDKE3n6QhopAigPqwtQQ3V8jCGtZmGsg9okWTUoEwMnG5CefShKazWVkjHPDTu1bUNUKouSkIMytssjqPTJXYj9wB5LG/LfQVOq7X0ChBAWDX3UlsUH6pWLZTYA1AetPbXCwBqIG09iAtARSapN8mcZuS0ndd8HiIojRgsii6uiQIYG6aiZQ9oKNXaTZ4BTAUBWs/TDLDqA05YItaAigCFpHhAQ6nOPtUGgD5In+4LQEIaLCbJR+mdDnKjz/LwP/l7gOAAESfOhoR4QED1zaQOECih+ha/FaeGQMVnw7V4ABxMq9E3AZBJrU+VBaDgptbqnUZLzvqhrJq64ab2GiKOkq7ykKiAef9xQF0RrAzZyTSN3c4SSJjUtuyoYaoutEZXiZvGLVpyyQMWw3B7tZdezQsVFdhUEyVnU4Y9WgoVt6lbZ2nbAPaTrGXMmOYWngGhk99tErdaWpZqQaxP+lSZi6nBLWcsMq3GhoIoSfVRMmqKOkhs9jqqW6HTEnyPSoLkgQvl0QeufXdvA6LnMxx6m29fOcTzysSQuUbbimOU7AniAvN14a0fSEE7RL9PpN/SNsWDj5Bxd5AzG6Kj9dzd2RF3NCbBBAffBQnOiuB5WOwVuCPudrmRMHRd9Zvc8GCBRE/AQr9mbReONwbzZva3ETwTxfeuiYOxPg/9N3HE7D54739X3H68fWK4Pz0+Xr9QLN/7TxL26Po5gz//BQ==);lineShape=1;strokeColor=default;" parent="1" vertex="1">
          <mxGeometry x="393.74902740789105" y="322.82206680872116" width="6.366079784292045" height="8.020295759240677" as="geometry" />
        </mxCell>
        <mxCell id="nm9v9BbhIRKBIwmMx2jB-43" value="" style="shape=stencil(lVZJchsxDHzNXFEgwfXsOP9wleVoKorkkuUsvw8mY9IC5ekkt1m6SaCxTnL3sn943k2eXy7n09fdj/nxsp/k0+T9fNzvzvNFnya5n+Tu6XTefTmfXo+P6/vzw4Jcnr6dvi8n/Fx5NRHnheX51/rFMRPzn0+fV8ZhPl4xSiBOhqFnBLdNyI5cMYRSqIZtQizEwRBybl8+JIRAPhpCEgplmyCOovUhVHKyTfDcLG4EyZQTILS/De8jubqNd5TF4oUy8ICp2LDpCcvrNt4PYcb29xzo+L/Zw9UmBSUIj97AIxWozhBfTwU468k7A2fK4HQhXwc4KoBAUgZ4RNlMMkSKBAifyMVBmTffN+DJwrW0QB4nKjdhRb4milYahysxjb1BxUnAHnXOlpUGQ0CotNCHMonEIBOkVfUV/i0cG5kz2h+gPe7mfA/LnClYvNN4QTzb8DptI0B/bmp0vCMG+jPJ0GlbHW/Aq019bQrAGjc2Kdeu2xC/WuOZHIhtaJ69wz0YQ2GUBsOXDu5G6T2wXjRz7QWLmMgg7XnWgcDtzo+Lpd50TaEIsjn7lix9LmoBgeajsz3a/pAZ5r+O/mh90DvRMlBz+90JAiu4ljbXOgGXZO0dsBN0PwEttNa2K3RCJQbDSwnFylo8zNSrlaozIgXQd/WKYd/QnSkjmfq87QPYUcU3DEOyBspIpkJxuCGTQzfkNqQ7ocCxrclUh81SlUbJ9N/L678w9OF9W36aD4d12b7+P27X+mndzOX+Nw==);lineShape=1;strokeColor=default;" parent="1" vertex="1">
          <mxGeometry x="394.133472739853" y="330.3197919677025" width="5.668793310240289" height="1.5194507745531307" as="geometry" />
        </mxCell>
        <mxCell id="nm9v9BbhIRKBIwmMx2jB-44" value="" style="shape=stencil(7VjLbhsxDPwaXwmJkijqnKb/ESBOYzSNAyfp4+/LhSHborxT5FagvdnamRWfI6426eb18e5lu+Hw+nbYf93+2N2/PW7Spw3z7vlxe9i92a9Nut2km4f9YfvlsH9/vj/+f7lbkMuvb/vvyxt+HnmBJCwkDr+OC1IoHlc+H/FPu+cLvFJNA740KrKOj0Itj4REHNcJzFRHi7K9ogCCUi4jIVABO6RMMQ4EWwnAh6T9cSec97xKyEyxjQQmqYBQKI87xErcAEEpjXmITAn4UCKF0elKTQHeDB5dyCTo/ebBmOdICb2/UBsdCH3hOl5IPL6AFJTaa+CMZ2S/UmGHDyBjVvaucQwP+kZCL4ALPLBfom8Ds58Bnmd7CrInUcoOr8Bfw6urUEqgycSazNeDInsM73qMEra/scNX0DCiPf3n+s+g3ipTHvNlShZAAqoVqDPIOgxUnMaeoFOHMTFoGZ1axppIQQ5aoKijuGs38johdw05BalRA1Ftp8ed0BSWxUIonoDqwghlzIOtoEa297XgCQIybYQwERQ5LV05T6URcPO3KXPnOKwlok1eV0xwJ44RMkp18vq+BA55nXy5GgEds8sO4gkBJWKSjFa7qK1GKXgCoyhZvxRPCBmmWl2UBB6b9j6fadsBEaz8J6cTipI1xLRDxR3kTVKKIEoX1XzBEBSm5qdCW4lYBmLxhILK1WSFPUERofoBaYkDSoQQTy0HG6JcISiKUu4deek0KtfUXbwMK9ohTbVhiUNOf5Sg1XeQ4mFbpx0El0Ztfjq30Q8dKTVP8z/D0pDmRwEb5wsIq80m1Qm+wBPChj03bGufJtaG1TriTQqBB//gsF2ax/8ftv/eYTt48S3447H6qVDxx2n2KhQTMSro6AsiKlQh+77mcQdOvQavEyyk4w7cKKFPfhvOxxil0me4tWsLp6Q5wksFC6KLknkVQRosq+rSlqGSxjzdHmEhEq9zIvCMFR8jqbBQTRejxyNlz15XDC8oB5P9FY7lU0DlpPQreDd4LfaDFEd/ki3xAf4GP5ILnn9NBkddsXyh8WA69wyPPmmnQVMKFEazZ8Kjg/Wjt5t/xtuP81Xqw+7p6XgTe/ncX73a0vHaNt3+Bg==);lineShape=1;strokeColor=default;" parent="1" vertex="1">
          <mxGeometry x="401.176160569801" y="334.13464587154544" width="5.315122095868446" height="11.46021640205428" as="geometry" />
        </mxCell>
        <mxCell id="nm9v9BbhIRKBIwmMx2jB-48" value="" style="shape=stencil(7VvLcls3DP0abTkgQRLkOk3/IzNxak1dO+M4ffx9wahULgHdc+OusvDOUXBEEs8DkDrxuy/3Hz7fnRJ9eXl++v3ur/PHl/sT/3JK6fx4f/d8ftG/Tvz+xO8+PT3f/fb89PXx4+Xfnz8MyfHXH09/jm/4+4LrPfQ8UIn+uXxCIfVvH/x6kX84P67ykYx8ZyAvoaZFPgUSIJ9Dq4t8DgnJxxD7Ii+B6758K6Gv+4m6obwPkB6krQA9EtCQcJCynphDLvuAKqGtJkg9JHCGyoHWM3CeWrgJKM2uwC0IOHQpdoWsazYAiHPHV4CEDPxC/7utK+hXCALkUFZD6yYlAUAMZbVD6SHTPkB1UlZL1xQ6UCuXUNcVaoXBw2nGyhXQA4MzMIW6qlUStENqoa9bEo0fBFBnXg8tNUTgfKkGMVsSaDgFUFwBPRDQUiohra7RCAbQSBGrWlsMLQKA2kFWAIeEVlBfWrNey/DQsVs7NFUrsENsIa9qbRIKSHyaheJquKZRDs4QqwN06N6xhLxqqWuuBwGkAFpDVLNzBe4dc+jroXvCWso2aygAJWMFVLMlhu6tgFwsoKJDZ6tWLWEEnC9yaN0CMgYUB2hIrTxL5hVQAqMzJOutCmgYIGvE9QpLlgJMMlaAoEOnkM2h1eFByVJAKhYg6AzRJuPeYDJWQCULQNxHAcm4Rp+n2gNwtQBo6Th3vAWgAIpOS30Soj1A9ABk6Tjp1BaADk2OkREFQpajIP21iCpuU0hPFIqzBDw2uWR5oFiaZGRrOpTw6bXOoQBnOsFn8CschBB7Bz9IAysXOAqh7M4gGFBDNu5XJ8PZLbwu9zGiJzTz0CYdoxZlkAdzaA6MAMmyvlHlQO4bDUa0AFRHlTGRyX1x9oF7gFgd4ICTFQcA3qoA63wKQCROq2ZzAOCtyXUQxytY8hCh8ylA/JaQpfOkbBvDIfKggE4OgOh6ttl1uMbBCt6X8AqtWUDCK3gSh8jDUGt2ABSi7Eq7sj5kuGTZ9yBxOAlUs0KZTchemhFz6AqzhvJ7MgVFoOGUfVteKTBrRNfkj9yKtqQRZwAtJLQCz4q2ARzUh94sQFBTE10H0Q+ZgCuKSK3dzqPGAlA+OpKIqnSbpWAjX8CJ1aaugqJoqy52BNbDYtv7LnBgly0XU79G3QzbUZQGDhwfTPK4kUezrmRnARrJFXnQjchHqYJcWDIstWSnH0Me+MOVyG7kUYInV8nx0IqcfyZY+Wl611YeBJhySJerEa0lV8WP5M08ecjD89pONUEeQnNytJWH9rX5geE8+ZZ8hPq0+8EDDH9enuO0PX2670ejMG8vhnXM+8ORvPU3hjXG+7PKQ33aeGE4V7gZjzjek5MH+ZDmt239Ddo3ipOH388u3tGEgObY/ofjsbj94O8Xn3/g/m19OdLP6+STm28wbgrsfdmY3gH/YTd5yHA/2V5CaL0rwJ+Lk6/Qn6trgiocClw55IYPMKiPzTW7Ar+/22G/8hlU75TA2eFmm7R0dyBVLaAg1hrdNLThAW1yObpBjjJ4cbJKgsOifEOrFVH14rppgVONWO0Nh/pFQ3Zok8ZsAKjwjSsRN5VGVF2pmaWiDLeU2E1mEu7XeU65NwB0e/yTjkHEAd7GIG9jkG9TPgdAqTL5i6M027W9uYmNOIa3lqM8u9uyjMaz1+58kzXgfZw4QMW5tThGeJi9LQXrkDK/Xev898nbtc5NwE93reN7tj4ven50qNZCQ9NQunH3mg781U1DK+Jk0c3VBE50FWAtXY9WsM5XZ1Dt8kqfyvA01M6yCl4hOffORyv4twhwjM2OrmNONh4vuH4bJnzPyRgbjt2EMM3h/B6Zjg6ARn7jEtIRINhB+KHoNbft1SD7vqhjtSpdX+3QGn5PIbZHaYLbpm4HB63OQrlX2s1kt12Z5h55sCsc3NLw1PoVEGEiG1TXaIkwvy92S4Kn/eNxm3sNB69qq73hkIqZa7OcTPLMhbcB3a0QYY3jZN9u1g4JEGe7QsVvBlls5qt4qJTJXhyVDp8xZrYrFEwTs1jmWvBbtUK2bdKvYOAaJdsqmhPsFUuzzSU3eAZVomECahnCL43NW7VxXQUOLWynkxqD6CWZdDsV0MRT0LioWOfTMomormZSU1AEOusoaGtI45vd0S2YDeH9NPv2guDT6tEr2Af3cD8uDxPMF9+p2kYePdDvlvcQvt/slmNgjq7y9ZXy4uSBiw627PSJ9d+tveAPErr1B8L3xd3SEcIPTsndMBC8wOguvxPsPv/HLzwO5PWP7z8n+XR+eLj8GmX7//bnJ/rR5acr/P5f);lineShape=1;fillColor=#f5f5f5;fontColor=#333333;strokeColor=#666666;" parent="1" vertex="1">
          <mxGeometry x="341.6956430405289" y="263.58949578846483" width="45.93718477566896" height="98.78043588134976" as="geometry" />
        </mxCell>
        <mxCell id="nm9v9BbhIRKBIwmMx2jB-49" value="" style="shape=stencil(7VnJbhsxDP0aXwlqF89p+x8B4jRG0zhI0u3vq6kh1yJnnmD0VCC38QyfxfWJonbh5vXh9nm/8/z69nL8sv9xuHt72IUPO+8PTw/7l8Nbe9qFj7twc3982X9+OX57ujv9fr5dJJenr8fvyz/8POGYhBeQ51/9hct/Xnw6iT8eni7EPaVR3FFN2+KJOAzikVLdFq9U6yDeXvC2uIu0fLvUJpI4oD1TyQNgMagAgFApAyB4CmEbEJmSsjhQBIDkyY8qpdi9sArI7fOoUi7EfhtQMrEbAKWQAKNrIp/GMJSu5CpAPPGokkRyIC0kkxtVkgptkKbxqJIIeeCl9n+p6hUCWqFSVjYUihEDZATkHvstQBlTQ5qjQXovALVCgMXZAHVcoZ7zdxMwJl+LfRIMUBXqZnFQ/NKSL6DUqL2Cz4BIEdT0CsD3hN8EjKxRuCf8ptGq4oQqzqUqGlBwpCVoQEYAIWYNSMjoBjAqIV5a6susEFCkpdfXJQC5tSmQrgQkE4eJSrleaXQxK0zcWuOVgatGJZgaogtolnyis7U4zHyiSaBVnEesIX3Pv9xQcOAUoLEGrOmziReAhMi4OdGskBFVtjAZQMGA5DSgYhtCNoBJxdkVJiRgyLjgHUjEeAkTmeKlJQ4TIjOBC3jLEuMlj73EJnAOp7crGsB4haDiwN1vm0SWrwRkvlKlYtw6MbqaXJq41ZYoDJxhvllqNBtMtsLkE91gzdK7laitOKxStBU3KVG7AiYBZwI3oRk2AEhkVXfGM6pcK9FZg/WPgNn+sNbzwR3IdpWTPe69hXtv4f6rFk41WJMTim3hJmegtZ5v1pGprnJyjhNdQLOTomgSmJ1FxTQnk9Ou6F5jOU8DgGPWNboc2XH2iRo75GkymbHDxOo8pusyJpjwjJq1NDehUBc9JLvwwzoi6QZoGb8gI9oGovwaoU416nFOLXDjLYnC6KZS4XQmR919ZxyI5Prn8+AudTZcBQRDNDHANtG3yI1uDb5ny9Z4U41bfeh7xnqCB4qjDS7BoVftY71z3CAJRApjmBMcCzoznYUOZXKjtQzLn7U3uW8tW+JOiaNJsWEK7jWxJe6VOHLkiu4ehGnFM8jvrMfo3A+WG+JB/zs6vLDuETCZsK70mXjRfsfKVB1VbOpVtyNT8fbw9yLm/vD4eLrHufyuL27aq9OlT/j4Gw==);lineShape=1;strokeColor=#666666;fillColor=#f5f5f5;fontColor=#333333;" parent="1" vertex="1">
          <mxGeometry x="346.6631828825108" y="365.21996923014296" width="36.85986394221421" height="40.45289166394567" as="geometry" />
        </mxCell>
        <mxCell id="nm9v9BbhIRKBIwmMx2jB-50" value="" style="shape=stencil(lVfZctswDPwavWJA8H5O0//ITJzaU9fOOE6Pvy9cDxURtDbumyxjRRy7ADj5h7ft0+tmEn47n47fN792z+ft5L9MIrvDdnPanfVp8o+Tf3g5njbfTsf3w/P19+vTxfLy9OP48/KF31dcLZTlghL+c33jmGr59+brFbDfHZaARMI9wFEIACCUnAVEWQeUQlItwAGXiieXe4AQ+3VAzuSMS4EiiCFriKUHZMp1HZASceoAIhQSADCl/gTJVHgdEAPVPmgv5MEJoVDog/ZaexB0YCp9HUJuUd0EqAMpdICoZAEnSKDgO4DmrcR1gEsU+qBzaaW8TQ0qvb2SK4IQhjrX2vSxYu/6ABwzMSgbUx4OKOAAbqxZ2DtAPCbpi6wCR9pRb2Nvn6hC/7lXf40tZWv2xv9AnKH/PYW0feD8ROOPgwxSTntrL8D/ufMs7B0kUBy+H0C93OCPkIDvy1AvTx7kU2xr1PxnIBhp7FrwwSEJE5v8ZNjcNV5jXyjB/ETjT20ZXrGXaO0ryCc3ti/twfe5tY+FPZp+3Ni1iDdCfnK1+fTYftAjjpcN3wLMJw/88a3DrPUr449A/nBj41IvUO//Z1+aWucBMEd0mz+xzcR5JOEJIJ5yz7hYoCL9IGEdqwmcoHPY9znVwe2BZvR7ZnCLkhqQKAbbtTQqlFXdVuzc00kLypyi1Y3zbctb27hcv5cWbJ/a+XNWYZ/TndEIwbU63rmUalWAbsatF+8F41rNcE6OezvDDVbblImXYd9Vey8mP0jHl7ZsdnA4hy97ldl34UL90ZZnEVAF9V3sYbMuG2fvBSSostGj3Ep+Z8QFNpYxo5USYsRYMaUouskNlHDzdnQn5z67K34O0IePq+nLbr+/3myX/9urrL66XoP9418=);lineShape=1;strokeColor=#666666;fillColor=#f5f5f5;fontColor=#333333;" parent="1" vertex="1">
          <mxGeometry x="367.9643601233746" y="405.7825950177654" width="15.231299682937637" height="3.775493123987644" as="geometry" />
        </mxCell>
        <mxCell id="nm9v9BbhIRKBIwmMx2jB-51" value="" style="shape=stencil(7VrLctswDPwaXzEk+D636X9kpmnjaZpkkvT19wXHpSoC0tq55ZCbbGFJEAQWIKhD+PB8e/14c2D3/PL08O3m1/Hzy+0hfDwwH+9vb56OL/J0CFeH8OHLw9PN16eHH/efT78fr7tkf/r+8LOP8PuEq+R9B7H7c/ojNnKnfz6d5O+O9yv5Ri3M8ola2pf3TDHNAE8MJvCZcp0AIVLI+wD2lHkCcKaIAPK6TQAvVgj7gOCHSRaAo4IAgVqeAAlPkCm4eQJKDOSLNqqjVKB89ko+NChfs5JnpL/YT8t7sMcin7Q+Do9fq5Z3QL4Ra30csmez9nHIPhIFrO0D1hvFHFp/5NJxeb3a3wjljT+UM/J6fBTEXZ9Zf08eyTO5eXxxcLC/Ih/iPH6ghAwkrDIDmKmACBDSKYpVwqCNvSXXOSSF6NCauw/NM6SMg8wETc5U0AxFA0qihACZ3GylylilSGledC04EFibtUkkIICjPK+hMaRSLtTmNbQ4htgGRM29LUPyFV/WgEIB+JJkizpHf6sUUA6UFDknnIaTrHj/PwVWAJQQJB8lM0MB+5BMCnSYUpm80xNktARK4VUrGLOv5BFFLglvJY92WdxyZkjZswr2TKxh5BEFO6N/hSlhSTArp/uX43bkA2t5lPKdZqPu1HC/fNTyHviDN+NnmEKYuGh5tF7WFUgfH+iTBzmv5BERSV1amgYEFACBqlkB8lDhd1XUCSCCEEhxeOQaAGxUeGMGFGQ1Gy/KMIN0pw8GANyuE5tRCfGEAKJRCdUundiMlRqIfAE0BRDXRvzubDBLwX1mCgPIwPs6eRqdGtg5AbBy1wozc6e3qAEeOFPPYUUDGARE19ibGZCViq76+xBIpUJsSA9VefLaFQ1AAbEJYBDUmyrB87JddB6V5aVmzcNZLt04iVG809o18igfLnW+/Fr3zoPPLw8g5N7bMRowb1gaOMNMmmgKLBk2qKyOAvxSslzOBJfS8ZkYfS1gI0NUePTfyEEVRtBGlquwMgnL6zUA+IZkaktMCdUybE4AdZQ3O8VGM1TZ0JnkvXh+L57fcPEczCm+QJYo48i+ro+QfXjDQLA6L7qBdKYU9jaBJNxXsPV/hDlNjsw6KAN0aq6mtvCjD7DXG/EzoDYYZsFTnYlO6LsCnghBU2llSNYh6pRWEuytB3k970OWUgG3vtXGJXwOk3SgyCImcsA1BKASv5gBdsvb6D2um4tohqYX7QNl3J82/dGIW4WqH8xY/v1+4P1+4A3fD9j9Wi4M9kgiz9yb4PVA7+3PTOo9dFCW+sdcCaIKjaO+sehFIU5QcVZJuBXlcJ9GT3nhOT9WtVvFzk4X85hzG+B1FMQGu0ECUHVXbPDGwjtd68cG2xx+8eNlox30DG9ypgCQ6zVd6nR5dJQdRLiWR4drfVWcMNVV7akJU1fV+ohFKwjlqpklNthNMEWLyEc4vrpiEnkGOyz6sJZH/ZPz3yfIw/+PG74c7+5O30as3+uPIeSv04cU4eov);lineShape=1;strokeColor=#666666;fillColor=#f5f5f5;fontColor=#333333;" parent="1" vertex="1">
          <mxGeometry x="394.849456532826" y="394.184060073075" width="12.261580988048536" height="22.173145938952075" as="geometry" />
        </mxCell>
        <mxCell id="nm9v9BbhIRKBIwmMx2jB-54" value="" style="shape=stencil(lVrbchs3DP0avWJ4J/Hspv+Rmdi1pq6dcdw2+fuA0VAWD3fPOm+2dLAL4noA6hTvvj1+/np/Cu7b2+vL3/f/n7+8PZ7iH6cQzs+P96/nN/vrFD+d4t3Dy+v9X68v/z5/ufz/9XNH9r/+efmvP+H7Rc6Jq10ouB+XD1SlpF+f/HnBP52fb/BBUpvxTVzex2cJecYX8bqPb9L8jI/S3D7eBwlwAC+eHMAvGrUm0RMBO2CaBfJ457aJzKazjZop2YiAlxYmgaqSChGIkuIsUETJGcwNCd6QJAQi0MbXVwEvgfgteomzH0qjVopZnM4C9kkkAk3KrFLxoiT0UpDoJoGs9A2pSCizQKGhkZ34OVqzRSvLhjRi8yrgJRGzZjPiLJCU5k+3yaySnUqJp83qZc6HlKSQjCsWm7NZzdCBHLoG0fkMUanjLJjbrFKsUkg+NCdlDj6LrkTO0NLIr6tA5GWpjci5CliZITmtTtosEJSqpEHafIZQpZJDa5I4l5lQRsBvC5hNZrOGJMrOYM+bHWeFh/lBq3h4QxhK7gnUOVoDr94mALHklVY+Xaq31fPCVGpYvX0ddtsT8HM++ELLfReYD209yZFSuSGQxJGc3hCIQ8ndQ8/54AOPpToi5yrgadXoAnM+eMsQknEmUBoKBP4G6HFKi3cP1tlIjSdokQxNdzSkPbybn88LseVzdoCnLogSZn3yqCDb+IVlZInMAU4iNAbqMCuRWgCfSSq3gvokmgVWszPUbMkkL4105fn51z60jfdSHeBZa7amU+fn+1HMtruaYmf2I0C28Raf+PxI7GOMDuwfRiXba8sF7cmKSnUY/1GU8YSltmfxpHkYPgE3GgG+h4e6m2nZLQX9lSmjLUv347Tf8G7RhxOvmtE+JD4NnxXw7gCP+cjivxNBxDeOb4ivJB/NPr4CnjXistTbNJjqHh6ZL8fXES4f1Kei/e28zD51rW+NxcPSIRMn7nV8fRMPPF9qA7zn+LzEP6lX3Z5LfvF8acvzeT4CZz/MdxzOxiy1G8+ov2f6W75g/2X1djMfD56P8cz6e68nGM+V6/N7+Ibxb/2X9ReH8RPGlLbXj5Z+yvhV73ezPo7336UfOc43HI7ebhT4Pb7hMuAZf2sR+YmnHN34T1DAM3+1jJOP8Rlin5WPBTodtmUfE/mc5Db4HvGvDcS4Z+DPj2s/YlsGzejfzJ9fBh18x9PJ0/gMbMQGofjg4FlovzA86GMFm+mjuOptXB/FeqtjPbaHB//awOaJQb1zyJiOZkJdpv+DqVNxqXI0166HOJicFRfWR7P5KnAw/etYgH90v6BY2I82GDqIzO2OhPuhrFsYHktxjtVe7Ngb2lKMAl2J9+yBTVKk9Gwd/w/69zrPW4ImQqBsoE/LRo9WjLBYSWmLbbqMxJ7O9G2ZUWLkAmFwvpvNaiYCteEZYh11ea+NZ6A5jvJS4xW4ZwjUD52YQiM5YDoRK1+6Bsv2ll7HpvZmS892STnjcit7mnH96zmWcuJ3GRX3z7mMq7ttgYjjk52KbbjNTXCRVvjCIRYkYIUzbItNiNbCV3RhKffVU85jCQmXUBaObGnYZ4L5DP3mjTiuk2QQULoW66wO2rSVBZJAVnrBrMb82NLdFxwcjcoldmUacTJVT7uotXGkDpFyybK8oNBdV8KM1kZnO4+jZm+qFF/jgide9pKXW3TWDz1e3XQ8Oa8fm7NbPNHHrct2Prw43H0evgC458EBHF7FdjwpXw4vkroDSAA5nL3eidweftGHXbY57P0dT+35ez+rOMbbH++/4Xg4Pz1dfgJy+z3+5sM+uvxeJH76CQ==);lineShape=1;strokeColor=#B5739D;" parent="1" vertex="1">
          <mxGeometry x="406.5159121211183" y="322.6061449921257" width="19.650477337335058" height="72.02693497313203" as="geometry" />
        </mxCell>
        <mxCell id="nm9v9BbhIRKBIwmMx2jB-55" value="" style="shape=stencil(lVbZbttADPwavRJLcs/nNP2PAHFqoa4dOO7196UhSPZS1QR+k+WZFa+Z5aBPH/uX990g4eNyPn3f/R5fL/tBvwwi43G/O48Xexr0edCnt9N59+18+nl8nX6/v1yR16cfp1/XE/5MPCHJV5KEv9OLVKlMb75O+MN4vMM3SqnDayZu23hO1EpHkEApbhM0UJD+CxQQvlLQDh+oAHzM1Dw+hG18KsTi8AIKlK1+fcJMCuJpkZLPVxngM0l/fqRYAL5QjR3eXijANwr9RDBugBEq9wQbElAhDkvFl5nIVEAP7BPZ1UipCCBYE/qY1KKssEraz3W0vqAyJf+FWKAQmvq5M0JCIZk0HSFRRtIMs3IXAlMGOVQra+2rZGoFs2cEpwXzA36MwNRA49YhmYEw6rQl3TeuUUSjZFXtI0qkSD6rtilFpIY0T/IND+W2GrxMEY1R9eczE2N5Ou1wIUGO/R95RlIsT+cAyhTTIx6jhRoa7ZWJRSVG4jGX7OfIfD+hkBa538mzIB9+lGAXg6tSbHNWWzeP9ITEMOmbAy0E+ezuLNETCphWG06XdDL5IK/Ps1qW20exr1LobzcTFNJDmW19wVcS0GdLwJ3fqICaJhInt4D3BZN79gFVkIDMFr3gLUQwRrxKwK5ngF/5Y63w2gneH6vCBqzMotR5gdvAcz/URWC+wS+cucD9i73ws50P6//YAvw53h5u2/bbeDhMy/r9/347t1fTZq/P/wA=);lineShape=1;strokeColor=#B5739D;" parent="1" vertex="1">
          <mxGeometry x="421.84786792660896" y="322.7444494389589" width="4.647769590305113" height="1.1477744189019934" as="geometry" />
        </mxCell>
        <mxCell id="nm9v9BbhIRKBIwmMx2jB-56" value="" style="shape=stencil(7VjLbttADPwaXwkuuc9zmv5HgDiN0TQOkvT196XqrqylrAlyK9DeZHlHuySH5Cx3evVyf/O03wm/vD4fP++/H25f73f6YSdyeLzfPx9e7Wmn1zu9ujs+7z89H78+3p5+P91MK6enL8dv0xd+nHCJEk8g4Z+nF0yl/n7x8bT84fC4WB4CaR3W2wcaWF+ojuuDUM3bAIkUR4DYlmAHadTyAFCGR9JI039LQKMYAKBQHH0UM7W0DYhMIY1OUmpgh6gkcQBkpgi8FBO10Uu5UECARjx6qQi1sg1IQjoaXQopsCHZDqMNVaANOVMabaiFGHCvKOkYuBaogkjbiYs7UiYFgbMTh/FIJVMARtv36ujWrJRlG9C4E2GmBrahmdE6ks/IAgI3AcqK3hiQRy9ppRoBIBIXDxAQOANkl6JWFpCXEukKEJGXLEzRAxBb25zBC4CgHVZcmo6kAFC71xeAgoy2BGrerQGw1QBpFYeMbGi+GBs1/mT55erNTMwegcqGbdEcXZkyclPxVlttQx3I6JpccRUY6pr8kXKjDKw2QBwBhUlBQlTjd/UAVO+rejKVQIILUxEPUODWGqioBwQEYF/JzIYM4mAA10YNwIDfpa1qZSMBR5oA4w65dvWxdaQwFlfrigmw1QBlpLc1pYp2CJTUA+CRxOsrAwTgJaPGeoeAyRebB6DCZPSWFQDJGQPU5N2aQWe3rhic0bWrui0Ar1IU0jv1orIgH2zU0dd7AxRk9KrJTQmEuKQrhfVGigpx8gCUD3XO4IUNSEsbvZ1wNYAAgGVciz4OCZRKAxTHpQqpMe2wEq4VF4H3AUxEqusPuC6ZJKuj0aawkHD9r7D+bYWF4vA3KqzWxcsMiP0itRUIdxu16yuMnHbZOedo6p+4nKNtJZgqvPpNLcjd5HDKWa10UwHjI0qI8+12HlScQ7N1fy1htQVgUw7dxhkgMKtT9Gey4haBX+2WXx0g9hvtZUDus5UZwFCeWGl0ZaCk3rs3ZyErEYcarxZfyrJ5CY1noq+uKUG5ruLHM9EqCTiSNG90xGJaor/l257oZhZaH1nNU6/Y5cRlgFAbASF1xl8mn78PNFhb2QuBSAl8fZ5WnZczcCiveglsuKsSKVABsNdVFm/ge+45OHsS3hnYl64A1cUs6c7zVeTIeRh0Xo4koXjqcx/CXWZ+n3MuloMKF/007I3a4Hsfw6vROyfPby63h/OQ++7w8HCakS//90Nxe3UaqOv1Lw==);lineShape=1;strokeColor=#B5739D;" parent="1" vertex="1">
          <mxGeometry x="431.6777471851469" y="323.7147965103094" width="6.5639747242350195" height="7.916146678648526" as="geometry" />
        </mxCell>
        <mxCell id="nm9v9BbhIRKBIwmMx2jB-57" value="" style="shape=stencil(lVbLchshEPyavXYBAzNwdpz/cJXlSBVFcslKYv992Nqs7AWpS3tboW5ohp7HIA9v26fXzRDc2/l0/Ln5u3s+bwf5NoSwO2w3p925fg3yOMjDy/G0+XE6/j48T79fn0bk+PXr+Gfc4X3ilQTvRlZwH/9XMvK08n0i7HeHL4ScIEuCdw6OMCzOf1+OKIh2m6AePi8JNqu8SoiKHJYEgcbbBBGk5oQwn3n9BGhzQIKxA+BjK0gI3rcXyIrob+MdrCzwlqAkpA5eF3gNCMLwzZNFQwoML0v9NcKO6PFwS/3jDuU2/qL203TIJD7Svld1LbluTYIlPCIRuCIto5kRiXibE+oiXnmKwZb4upKIOUubLjFASXA6fDJqtk6PeUQSHmvNmQWB7N+Fs3gkgq+v5dtkZPWkM0OJNFk6s+VCi0NnZitQ8r5dsqii0ORqkjEFRF2R7FJfJK0oJtX+QvR0xcoL9WdXDBVK5HS1NiKQ266E96Xf5uvc2VsUQvbvm1dAWdUdHa09ff/l3bdv8B6B4RWh1a8kPrU1R9fEx0gxrOOFWOueyKpbae08JignWNOMwlzBrvvZ9e0uzh3hXkZKyKtEqUFYke6ubTZvcWdg6wzBnNS/XOF1urdG3ULYpdcOl3cQ6sfnLPuy2++nUfjr/+3sW5emuVke/wE=);lineShape=1;strokeColor=#B5739D;" parent="1" vertex="1">
          <mxGeometry x="431.4923896405438" y="332.27704065188993" width="4.778626569030318" height="0.48298738111589046" as="geometry" />
        </mxCell>
        <mxCell id="nm9v9BbhIRKBIwmMx2jB-58" value="" style="shape=stencil(7VjLbhsxDPwaXwm9RZ3T9D8CxKmNpnHgpK+/L7eG6tXs7gQBemtv9pqzJjkkh9Iu3rwc7p73u+BeXs+nz/vvx/vXwy5+2IVwfDrsz8dX+7SLt7t483A67z+dT1+f7i/fn+8my+nTl9O36Q0/LjgnyU+g4H5eHiSVUH4/+Xixfzw+zeybBDfaB5m+btnbH/gwAGKW5LYBMUmpAyBUyX4bkJr4PAC8OanbgNwkpREQpLZtQFFxY9C1P1i1r0lcHEMQrcRepY0k+J60dfsmdYzYSY3b9uqkObBPJKMaJKK9J/5r7OFd7R3zJ0sOaE/yqRUZNntCsKqUAvasprVJQ/9zIj3gsR6cKKkfsy8N+I0k3hbw/V4q96eN+Qy9S7fsoQGCFMJXU+S3SGbxNlHwP9KC9s5hxBZyYyEbZTqOFcspqYnJp5GDZFl4VxDZssRcUoljVkvsdb4OSOiSDY7AXHJSRp7VALyRy5glc7KyTgvYaZYG2vo2qRwCMpt1rSdxBtBMAFVaREAjWapF/OIfGikNy3qqC5dIWmvs42ceNBMES+siBjbBqjX8qAhGXGH/4EULAqiGhE7TH0DtwrsVdFUEsClWM/aDARwZw8a0G/uhlT6Yt3QTg7ZXkBY1IUwLAFUG4yEsssQ7LjvkwZHyNkBNCGDiM4kzZMlqiTBtMaBLtgAxl0ztCwIq5wH0fOo4xnTBoGcKsFVMbhGEsg6KK1Ez5upaXgNRxalHl8OVpcmvUM0W1fcDbAyNLk2rGavviHPmuruuAwrqrokc3SXN41FR3pBRA8BwTZ4OV9sOQahtFaAu2dyC9Tzw/bPg2LB9JrIsJRxMlS4nRkOBU1hvwc0DAy6Ibx0YxkL6f2D46wcGtkD/YwcG4ws6LPG5pbiMKK9/hzPCJyr8duSHhjQGCvEoZVxTQ6MlZzMHSjoWqgZGkUKOIr3nsJkDRZdM0YiOT4euEZB5G3grI4+ARNLqHeqNASobFNIy2lMV73dLM3t2LMz9SDd/P2m02I8ec//JIA14WzYliFGwED/Xd9xVe3sb1ESjS7lDwlKjjbw4Ziel8b73dvBte/twvYp8OD4+Xm4y57/j1aU9ulx7xttf);lineShape=1;strokeColor=#B5739D;" parent="1" vertex="1">
          <mxGeometry x="439.3718228796632" y="333.8567711206017" width="3.0698006149362604" height="11.18647952762232" as="geometry" />
        </mxCell>
        <mxCell id="nm9v9BbhIRKBIwmMx2jB-59" value="" style="shape=stencil(rVfRbtswDPwavxKSKIvic9f9R4Gmi7EsKdJsa/9+9Dw5IWNxGLA3x+FJInnHkwd8eNs/ve6GFN4u59PX3c/p+bIf8NOQ0nTc787TRZ4GfBzw4eV03n05n74fn5ffr09z5Pz07fRjXuF9wSXAcQal8LG8KASVf7/5vMQfpuNNfAWuKn4kCKUfHyuEqAC5QHIAGGDMCoAJauwDcrY7pAAU+gA5cQoKEBPk1AcUhkw6aSCnRiTxrE8EhfrxXIB1ygGCkwATcDDx5JyfK1A15/mz4Xa8nL9oUrj1kfiq148BqpNADGuCK2KE4jR53kIDJGd0aCQANKzIMI5ukUbd5ERAXpUIiq5SYhgdWkibC1sAe3Ud2wFWQIVSHUBu662A0sTRA6ABJIjeDgisc4jkNw7twBCxkdeHDEkDKkSvDRmqboMs4MWPTYvrgZq6u13TRAoQvYSpkeAaj1688M4wG4JXH27j8zqM3PowkM5XFnDy3dLm2vTeDmYcydCv/rywKSMkX5vVCKG4njBPSDPx2K8S3ZkItyX+D0BMweQgTsfoAIRnqAHY5njP14w2c2xOt+2cwhzja8JVp9PixEGPi4JNfdtkYiu22RudTotxmBzYl0+2apgHv1NVtFZ+w/dNQLIZzIJyyB2BNS+uAu/EJ91l9s02NAdY49F1ndDUflNQb8JLNTRNa3E5cTctqlymHKXJ7vrCSVIfh0LB3qVITM6ZX3cEothuJ536F0Npdv3gXy/Mf4+Xh+vt/GU6HJbL/e3/9jYvr5YvAXz8BQ==);lineShape=1;strokeColor=#B5739D;" parent="1" vertex="1">
          <mxGeometry x="438.7891608333057" y="345.36760651452676" width="6.37616744981445" height="1.2879829604178212" as="geometry" />
        </mxCell>
        <mxCell id="nm9v9BbhIRKBIwmMx2jB-62" value="" style="shape=stencil(lVvJclw3DPwaXVncSZwd5z9cZTlSRbFcsrL9fcCo+GbYeNOUbvIYPUOCWJvgXfr08+HLj/u76H++vjz/fv/349fXh7v0y12Mj98f7l8eX/Wvu/T5Ln369vxy/9vL85/fv779+8eXITn++uP5r/EN/7zhRJzkgYr+37dPvAv9/w9+fZN/evx+Ld9cjyAvQuSL822RD04Kkfeu1UU+uZJuy/fiiizy+oEn8t7lssg3V8Nt+VZdCou8cPnopK/7Da5EAvAurRsIaX5yCqjdhXVFobhIllQLqjQ0F4hOa3INliTOsyVFF9Zf0FMO5BRqcH7Vkh5zJFqq3tXV7PScmZ0qIKcVUJ00CkirYcTuKrHUAVjPIfl5MrcAcVVrUtPge/AASFNvp4By2OYByK5kCvAAKNN+zwFqfKs7pzYVfQ7Q/14PLnXX2ZKqa+uS8qHoWwDYQw6ukYMrZTrkAVC1VgLITgCQXWRayi6vWsrFJWJ8CgB/yNVlpiV1UVhSo3FSAQWWxM17APwKENf4L8Cmi596uwlYo0bROPIxgEYNEmYGYPVpVXTgm7aAzgERllS4P8QZha4ALCEqADddaYYrYfrXAWjOM1sKmIEUUJjHedcTAoRtWiMfqLW7SPxBTa1mBLBApgCfENDJHtRdOmxa5iLPAeqQAQHMNDRGlNWnL0nsHBCnMR+AMF3qHKD5YQ0CmojZHjT0Bo8AlhRTxQyktQGLGppv4mreNbtENp2iSx4BLANpko2g1kLVqmkcfLpWqiUtFLIgQIgtRQ33sKTGl6THtJq3FnUsP2j9BeG+Co18WuGBlrTOZEEgaJyrCGDmHaKrAAh008HPrHwAjrM/L9VnXLySZ1GmYfHT0jzI8/IKA2vLM4icRzH0Z5VnKTdjp9TKrFTOLRsjUiu0c0gzWR7ylX6/JhKP8oUZnROQb7P4uyFfBeUb8WSVh+/v80RuyEMF04SWCypfUL7x71+dUnvF9EF5Vu9Y+UDt08pHWqaeyVd6XiifZoPybvlO7D/McvGQ56kgYjZT+UbWH+fpHPKFxsSIMVTlK1l/RH/sleo/TiLkSj6zXInMiMp3sv40m/ZDnrfxCcuJfvRit+QzyrOCP2E72/smvkFDofK0NMB8ofKN6Ccb+xHaj2ezfpkR44Z8MfK0V0aeRng8Ka5llGf7rZiPJFD9N5eMfCIlQcP8q/IsnnQskEU9muZ3qPFlWw8Y+UL0KVgCqXwn9ibT+w55TgtoQYMbTtSgg0ceQQFsByGYI858SccJXQESi9EmySuAFgURCSDhHbICoJqWwtO2YVCFkychIdWngMpq3YSVmQI6q1SyMY1KKddQsBZVAOtfFdALAljyUwDwCNJ4R1CnM14BWPobS4I9dG582djSpqBLSOoKb9rVNKCkEw3xrGQJs3G7AmR+cL4igB5cR+JhAFjVEjDtK6CyssWaxgagtmmWxO4sRiYxm6aVUUUCaACIAw3uXRDAagtNPlatjZz0+AWjJRaXFNAMQLhaswUQ01AAsC0DwArIgtT3HpA+tqRyotYNtYGRTyZRcAuAGUioTw9ARwCj70+XVJlpnG2akVinaqUOVLC12LuoNY0NIFsXJVn01LwrO7gzB2ps06cuyiLfWRBgDeQIM0atLE+fBjLWko9QaX6BsfEjGGcD4C76QYDmB+vTLIu2E7WyvmTk6XVJwXtaqQdD0u4QYipdHmf6tJx3+nTHXmzkdRL4ZF5oXMl7VoR604x1elc7Ko2OgMgKB8Ofaj1Gjy2aOmBTwJ0BaNUa8d5fKmd4DKU4ylzebmCw3xTStlriF9Tj4AICWDoJ5hpfAYyWExNYOe0keAEumcYkQVpX5Vmk70hTjZaPGF5HWk4O4vkWDdBRntFaDWk5laeTGibIR7qeijSkyjP9VIxdg2Zg0y+mweW0azHlSKA0c5mncyXP9JlNkxQ2tB9M+wwaiegzzRvxK3l2gx2RthdPQ2nEFDtoNkozQ28xaDzmwDh2MGhCFnjxfAcNSc7Lo/1vaM5gaEhOowbsODc0bcD4sKGBA85mDZqZrj9YGpteO6A+64zZ79xvoYWpGQgcND/Zrzf2kKn9e0OTc8rMI4+yuQY5k490PSjPr3HO5Fm8svL8GsrK82suj+NYm2s0I994/+ex7Wic5vdYQWyuGT36y7jGpPoHWn1ck5L4480176ZmmkXeIc8HhiKy0irP9ntw1od8pt+fsXVtmU6pFLSflmg/Y/LvuMan1xpQD7RI/VEw/6r8pgSFEa/GJ3qDGYRrnpegB/s8AZXTOKHPCHUFYPO2w+jMwAkbwIoJo3RtdNPjmGEPPM1Y+kABLM+PQtcM/rAxteQNIFP6IEVkvBXAUk3KeIVVE71CTBXvBWrkS+p4aTpmrZl3+kltHYBAb09yRDagej7WknHOo/C5ilzRNBTAImRuOHVWOmUDxjCfmf5jNWzueJEwBpvZL4iZYGz04BTQGwIyuy326NNjbJPNeXo8uFJ5IA6TIjkAhY9tBqQ1x3ArGwwNSPvsxmfPAHRA1wI2I8AWsBkyDkatmzHmMNPZBOwGpSNGvt0odpwN9AHgwbiYe7IxvbqZSoYlFT6rkHBmeIzEcwCwlGPonk0lm6HKHLhai9GSp4W2AqASG08TmForhvvx+IH5Q8M9jOcVTEsdQ2XiM4bFBLLdE5Fu3lfxRyjFULObZy6XwesJuEx63ASs57B5qlME88OYteEA0FLkUWNMaq8nfbm2PQdELBLHkyn2eihjQgmNv7GqSHlr2RhYHd0xA42HZWzexzApWvqyzkELf5wQoHfl2njBzAIPY9qIwwQVTz9dcPg80ah3mb45Nkyz1eCqV3lPmUoxZbqnvikdB1k87eTHlURDebbfjpcanjJZYiauNpc+glTiVj6hPjfyxXw/sR8xU/N8Bv5ytf1O/QtemXrqwleXZhcAHYU6BTAL/ehr3q28/nF5Ovzt8enp7eXx9f/jU2P96O2Zcvr8Hw==);lineShape=1;strokeColor=#B5739D;" parent="1" vertex="1">
          <mxGeometry x="401.20372196113067" y="262.70024819130253" width="21.68767648429548" height="140.94405214637527" as="geometry" />
        </mxCell>
        <mxCell id="nm9v9BbhIRKBIwmMx2jB-63" value="" style="shape=stencil(rVbLbttADPwaXQkuuc9zmv5HgDi1UNcOHPf196WqSPXS1qAFepPXM7tDcsjdQR/e9k+vu0H47XI+fd59H58v+0E/DCLjcb87jxf7GvRx0IeX03n36Xz6enyef78+Tcjp68vp27TDj5lXEolOLOGf80qzFf698nEmHMbjFSELSe4IlUnqNiEFaqUj5EqStgmROHV4CVR0Gx9Ie3yopGEbz8R9xCGSCsJL7PFMoSA9Pl5SkNBELB1cKQB4I+53Z2ooOUpFHJ7B9pa7mBw+gmSKUOW+WhRAMi0Z72ZZ8JEaMINUSr2eShnot/xon58gVBDB9nPlzUtIWxHEnjClqAGC+grbioKOsRqU0BMShQyL3KonvEe1YSJ1iiIVEIKNBIcXyiACWSy85rRRAi7lpUNWvOkHelYPr/hACcQb/JArUI5S7T0Ul6a7Cy83DqIEWsAMGXo84+pmauzxQL0dH8Xpiaglkx9wuhz4X/A5+nhjgD1fI6Xe/znBG6AVktYPCaYCKtbqImAlKLzEWvOWqJkYFY1vPFrtUMCwI9TdxAEOIova+aJFWGi72d2sbpkykqS+cpa4iCRZ0P0gsqhQY9bsJV0l7j5Dl2F7dUQBQZgV9CaICjSVdTishNVf9wn/+ob6C4J9/HmyvYyHw/ziu/7fP/FsaX4e6uMv);lineShape=1;strokeColor=#B5739D;" parent="1" vertex="1">
          <mxGeometry x="402.0288810398946" y="401.03561239542" width="1.9845456638978856" height="2.2748171720297705" as="geometry" />
        </mxCell>
        <mxCell id="nm9v9BbhIRKBIwmMx2jB-65" value="" style="shape=stencil(lVfZctswDPwav2JIgOdzmv5HZuLUnrpxxnGvvy9UDeUQEteTN4nCilgcS3AnD++Hp7f9jt379XL+vv99fL4edvJlx3x8Pewvx6s+7eRxJw8v58v+2+X88/V5fn97miynpx/nX9Mf/sw4oSwTiN3fecFR5P8LX2fz0/H1g3mh6DrzQKmMzT1TLJ29/iAD+0Q5dvZeyNUxgD1l3wNK23IbkMmnDsCRQhwDhCn1LomnEgCgEOceUMiDHYKsgqorCQAqudADKgUQpahZqh0gRhil5Eh6QNJAA9IpUurDmjI5tEOl2icuexJAOkujuAACMSCdq+VwW9mu7UShz0MRKm4MqJrXvrqrJy8AoIljC6igHxSQ+vas0up3BKh9HmqgCEhPgL5aa4IdN7nU90PNUDIm0gZQmuiMwsomShVWqzrA0QIq4pCIwwqAOEQSZwGCEqdRF0s6eAhw3obVI5dUuU3xxZaZEaD0/aB7Il3Sz5Y0tz1HgGp28PB4UI+L4eBwPyQq2QIyilLeAFREWmszrTgggEpvWkUJi4AlrXkAMuOdI2cSEe81dTaJUDXGOsPGpwLVWD9HU67aEOCAmESiWEBFDZHapLCc7Lc4jKoprZo0oS0+C9DzwBY4Q8Ev6nFfHGUpl+1DK9lE6KkUwQ7Z2QLXPTNIdVoNQFlXAOmkJ04vlpmhS3HVc9MsgADclG4BaJMC3Qh6UvfqqvOMAzIQVlHSiYkBaYm2+nQmQ1LGq5aTDKOkk7OZBXSuZDRLF9tBjEn71cTk7/QDpd4jH1vqt/NmDxTv20C07RB5M1RSAcq6KPvNXED7uyZYS0207h6Y+17AQkvgwNxIsMCBwbWCv5mjDnCtGJfUwkAud7Ql8BSgM9Xe8RBV/Vkw5gL+znZwWTRvYG40F4u62JpxcP795HX2rrk+3G7OL8fTab54f/xub9q6NN/S5fEf);lineShape=1;strokeColor=#B5739D;" parent="1" vertex="1">
          <mxGeometry x="404.4080284047117" y="408.7412743354115" width="9.001308529950014" height="6.020505338320618" as="geometry" />
        </mxCell>
        <mxCell id="nm9v9BbhIRKBIwmMx2jB-66" value="" style="shape=stencil(lVfZctswDPwavWJI8AKf0/Q/MhOn9tSNM457/X2hURmLoLyevMkyljh2AVBTeHjfP73tJnbvl/Pp++734fmyn8KXifnwut+dDxd9msLjFB5eTufdt/Pp5+vz8vvtabacn36cfs0n/FlwnKiUGcXu7/LGtxdfF/vj4XVlH4Qi9/aeYr4NSJ6ydABmknobkJlSH1FI5ICHwjakWCjKbYB4ktgBUiXnAUAouQ6QhQrwUAPV3kPJGFAo9B6EW902Ad45cj1Cz0CIWinkHvDB5a2YYuoBWibkIbayrwDZAYCjMnioiIhMuQes6rCN0DKydfGf/W01aY7FApDAldkgtq4VhFQiSbAABlkrIBkPSg1o0pIoG6pzq/Q2oFBNFuADbCE2ZVWfICRJ5AdARB4qcRwASK6BfB5CAsRpilbfmjTgQWkqdSgrCknVbJJW4oD4FFAMQMijlpOBByEBPGhN0ihvII3K5IYeFUSckOvlfbdHdVoG66KCuoojPySRUQeVQRuVPOrR1DpyPSxRB2mPDlSXO039WYAbVkQFi1T3ohmWWgYG2sjFesgVA1wbEqtFigZ+cnbNRWnjdvu6oULoR59eBtAkY13VPdMcSEBIPraO/JCrXkBAj2oK/RBgqNVhTXNbw7dOH65jgGNvN67OZXB6aP82cwdPT62pruYRbWeKzph7UMjrxfFqj8aEMjWEA+2LvXk6uNPm7IpNF5w/32OjrSbQMmv8RmltxW3bf/Jqft9eH67fAS+H43H5jFj/b78b9NXyzREe/wE=);lineShape=1;strokeColor=#B5739D;" parent="1" vertex="1">
          <mxGeometry x="410.93955192604653" y="408.45952523209894" width="1.5948787935261255" height="8.824181844826322" as="geometry" />
        </mxCell>
        <mxCell id="nm9v9BbhIRKBIwmMx2jB-67" value="" style="shape=stencil(rVZdb9swDPw1fj1IoiRKz133Pwo0XYxmSZFm/fj3k2d4rcz6kAF7k2WSOpHHowa5ed7fPe2G4J4v59Pj7nW8v+wH+TaEMB73u/N4aatBbge5eTiddz/Op1/H+/n76W6ynFY/Ty9ThLfZr0aUMnkF9z7veOfg3J+t77PHYTx+8tCKLJ1HzfBl2yGLcRBEv+0QC0LqHTwigSQR3vUODlXJCci5t08I7AB47e0DSty298vfxb4k1Lpt71B6/JogBL+D7/HnAEfjuz5+VKTE7CV09iIIBI9f579FUNm2D+sCe0/jy7peCYXAT+tyJbhMCIrc37agEj4rSh/dKzxJfoH2HdZ2CklOXVLxt1gBmcQ39kmX8l2HRz3tX3Pf0shP4pt0tu515L5pTeamSZU0lyFDs/fE3pCtFEpOQ+ameIHQxzRLzlCSH9OMKSAS/KbZRVGJWBkxmeSO4DFi5SMckWcjhroAvE5r44Lvf5h/If2UbHa2FGQS3w6vjESa0U5Hoc1i5y+fvtOs9X21EIkUVjXqQMlfC6TPpw9IRB1qhe/p3xCxjDYH7U+QwIeLs+NLqEJ/4ZEypYUFlZXnyVxbC33U2MQWRWQnmMo1rrA8WWq0M9mU//e33zUebfHx2HwYD4f5rfr5//px2rbmh63c/gY=);lineShape=1;strokeColor=#B5739D;" parent="1" vertex="1">
          <mxGeometry x="408.38784983513426" y="416.7321800717734" width="4.470899320836755" height="0.4615838668698113" as="geometry" />
        </mxCell>
        <mxCell id="nm9v9BbhIRKBIwmMx2jB-69" value="" style="shape=stencil(lVjbcloxDPwaXjWW5Zue0/Q/MhPSMKWQIent76tTxgTLsAxvh8PusSWtLvZKHt5fn97WqxjePw777+vfm+eP15V8WcW42b2uD5sPe1rJ40oeXvaH9bfD/ufu+fj77WlBLk8/9r+WL/w58lKhUhZWDH+PbwJx+v/i6xG/3ezO8DlSSQ4fAsArhebwAvClUuABz1TlOr5m0jDgE+V8Hd9yX77jlRjsR4XY7SdTBA7SRhIHQowUwI44nDx4YijFBpaolMeYiXmtAkKYnJRIgVebiWA0Igt0UymUxzCX2AN/WRdMcdxSZQp6nSCZwmh0VSqAYEJLo1JbhdJTj9dIGsGOSOuILyRAGWwmj07VTA34iJVa8QRGPgreRybfCgiJqYi3OQBh5EB1TAfTVgZOKmbDaHRrlIFWq62QPKGgCsD9e2cE5NYaKeaRoFAYRijNExqItBFa8l5KoAYsK+hIYFg0FhuKJxRkg3nJrWCRBoFb4lA8AVWlopPRkQTYUBrpRIhIS623pjOjFTeTPBESCJwRXFWywDWgViP4LYUemWsEGeNgWip4BVe7jcBoheY7tOUDKgIWuMyekAHBpJHkLgKTTCtUnKJhSlHG+eCLgLkVE1xdWgKHc7pWT2ggDkZwXlrEhwuZTyB7g93qvLQkEMPA8URAKXo3wcZDN75ZB2ogp1Ps+XXW4xJwq/BU+SylgJZsDnATrmpvk1f79JiiZyPaRcY0wNkQiMp98COiJmJUA7y4b7QTtrrnEjTBhiWxT3en4arCbEjNTxpWdiqq3eIra77RQ4uvSjZ7KMiGVnwPTdL9fHnemzJabIADCWrKDGOC2sxY8eHBTUs2NMLTifbp6yS92t1wmRAnQoSDepWpdvdR/3Lcsk+GDPM5Nz9Fp67Fq+dJcfiAhDedVwWOAMnOh83hG4iA4SU5PDpl2EGq+u+jIm94EYdHxx7Du4Ia8X5O5n3iI7J3wjM+MUz7YdgQZnstizG++vuCAhJgjlfA+5n0EOCR6t77kdt4e/i8jHnZbLfHu5zz//3ljb06XvzI4z8=);lineShape=1;strokeColor=#B5739D;" parent="1" vertex="1">
          <mxGeometry x="421.15614991280245" y="409.6349238631568" width="7.126791376132435" height="10.738686455180792" as="geometry" />
        </mxCell>
        <mxCell id="nm9v9BbhIRKBIwmMx2jB-70" value="" style="shape=stencil(7VpJchw3EHzNXCuwA3WW5X8oQpTJMC0qKMrL712ICXQPEtPZ5s0H3YbDrJ5CLVkL+hI/fH/89O3hEtz3t9eX3x/+evr89niJv1xCePr6+PD69GafLvHjJX748vL68Nvry4+vn69/f/vUkf3THy9/9if8fZVz4kIXCu6f6xeqUq/f/HrFPz99nfAxI963Y7wXX2Z8k0TwQUqc8VWSHuPT0HbDFwnuGF8lgz5JciX6+/G4TSBIYgJZEmhkNvbkxE6KnwRakUZ+Idi/Zxu1II3YKEZpaRKoTUIkRvWSQCCIEpWSipvDomyGviuQs+hspRJoXBQvZVYpN3FEpVJG3GwCUTSTyLDQrrOAE08cVyPGXioSiVlrEZ2DLwXqh6rS5uCL5jjiaQuEMKsUkxRipZbEzVaKXjLJ/5YltkkgmO+Jpy2YgQEsBxljmECdPR0yjaVWkZPCFvBHAg0Egjgm0CTOKRp4TptAmf3g7TfZoZvUWSXjESU8ZgJtVskn8SSWusBsVh8kk3zoAqCSkTkLvkVARU80mvFmNeZns9HMe8Yx3GvA9UUy9wESgFSOdx7wnuValTpnc+LnrYNNdjzjo142IPklsxCySglpMBxylPoZ8TTi0gj5LYBoKTc8kJcTZfgo0QG+MntahYGUEc/s40bN2/GVFRBd7UnxVcJsnzjqw318RvvYF7w+hTnjrSSyauPRv5WWZCuYada/iSf5aPgcAB9IvvTnJ8BHdl4r4Aue6xNQn8js70a43OBZB6IYP6f4hQ8jiR/D1+W8pHQbvhS0P8kvw2dFPLFnx+PzWb3oeDwvi5+Ox3hz/PkwS7TRpR75F3rSOgLwKL885heNz6UTSqO9O+KTBN0fbS978weNE68XCe3v6ehk9QL40yYXhq9SFPAsftaWxlF/6TK72hdEH/XID4Yn/GaDXmmoP8lfmyRdBTyrv7rUUzcMcB9f1npK9VfU348G6giPDR/tfwwP44yXRvjTu80/u4CSgOg/ALOGuJMDIJ4lQF91RMQzB+voN3c8K8CGj/j8QAi6r1LCe57fRn/9H/Vvw583eBagDRM4jIw7xGPDRP3bcID2tAE1PCw+TgN0iTe22zJ8QHwhBcbwS0N5gsepUCqPn7boTxJMFePBD4Md4hXwyvXRJR5Y/CgW1HBGWBWf71k8KG7OAi1guhTU83xEfSi+rfZhm4534wsODJ4uRqwgKYz8tOHTuDYEbMuhAfPFDQceFWCHBZU2ENtqecezgcQaiFAATwf+igO8o/HflgHM01WwNWSK9YINADZwAv9Hqn/fJ+ICgja4EfGFboBsIIQGolJ++zng/Rzw/s8DXlnqRR0N5lE8wMKuDoK5jw+4Gz+5i0rrgo/qU0b47vzAGvq6uX/nH7qAc6O9vuE3NnB69JcbhHG0sPMR8IEtHNM6cLL47/yM/F8Z324r9v28jH9awfN6urC7czFB+dPwOuMj5Qerd2nmn0T7sT5g4wKa3X1a/V0W3CwfDR8Rzxaghs/vqUdtGWirZBafS/98csGw4E8uMNb+/OSGZGlwz+5gdDT8m8DJLY+OiWITyLyn0RECm0DlF0/rltudXZ6BlU7GgLbSVqT3233RBHNtHkx/JACFvjM780NZLgCV+yHjbip63usuy8SYOHk59HRsY7y5Xw3qeKtgy/5A6cXKE4yrqUhi9c9jaGRO8GUhyJxGC3xfICyX+o3+Qi6YQPYIxgFp2SGZkozE+hX+bNa+Fya/sN/IbwKNltnedUMbFeneZi/bm0ClGefLeA1hIz5HX0zwYXltKIxe6X604uRtsynbdeaRLBue313F5bWeSlc9ASf7fXd1/8B41dV3e+S8y6TbdzmEJD12Xh1PKM9hp6C8VLnlal5p6+JwM7rvfg7w4K+bZe+BALQu5wIw++3b4QM8hvTZif2KJxHkxlsvtx6j+kAv1fHUY7C77NsxEqHvf5HvDG8f9rcGvzw9P19fOrz9P75laF9d31CMH/8F);lineShape=1;strokeColor=#7EA6E0;" parent="1" vertex="1">
          <mxGeometry x="432.28837249283515" y="322.9006361760097" width="35.0437367567121" height="87.14351064947634" as="geometry" />
        </mxCell>
        <mxCell id="nm9v9BbhIRKBIwmMx2jB-71" value="" style="shape=stencil(7VnLUhtBDPwaX1XzfpxJ8h9UYYIrBCggr7+PJmaWnR5vO9ySKm7GqL0jqSW1Znf+4unm8mG/c+bp+fH+y/7H4er5Zuc/7Jw73N3sHw/P+mnnP+78xfX94/7z4/23u6vj3w+XzbJ9+nr/vf3CzyPOVfGloZz5dfzGSHZ/vvh0tL893K3svZcSBvsgxRP7IsYP9lVc2LYPQeJ4Hpsk221AdGLHA7kknpwoVglxAPgkJW4DUhRvR5ezFEMAFWMUCz1SdhLSAEj6hEwAQdzoQ440DTmJG8NabPfqNKBKGo9UnJTKAfAEL5YDokdA4ABnEZATARTJAQGVPaGIHcNagliWhywhI+Al0Ft5yNMTKDWSGDcBCPmUCH4COAYIkg0CDCnRvPzeKqyF9Iw89QwFRJY4L2kCOJ4HN7I1L33tJEDJDGHVGoykCZTUS34pUU+bQDXI1hglkSdUL2akRtCSImFVQB0LKCi7SJRqQHorIJAoKSAGBDjC1hrFJAQY5kNE8gVtZIQaVU88AajTGedDA7An5H6A9ZFIq6wFG5kCKimgWsUajJJlYa2dmyuAZ07XPtFWgMSPVAsCzviA5Mt0sFtjxIxeR9OTv5WIND4iZtpntCAgcynR9l0KJqJ1T9YFTD/AegSxfh9631rkj6FHSgWjpCVCARYrSPnoCb+1Db1M2UVhvabmtCZLyKaWfSYSc29cqzMlUkKu9BpeAIlOCFWpMFJqoBPChi5rF4Drze00YJpZekaiHYxUg/aBeGCQGGVRyhv2wIuS6flN7ygrezbVzTRyU1fiG/EBFqm9I5zQaIO/sbec0xzq0V7bE5LGKT7893UuzecnFF3a4V/GJ6Okb/FnQk9iRftI7T3kt9BJmyaVx/kZsSIb/4m/AUte7SspSC8e/K20CblJ/Be6Itm+fKzsWb6MhKneLbUHtab5Ynuq6dW3smeyXM8D+dUMEj7YPiVW9myxcFN8Eu0PHu8JWn0Rf5UPcz2ytXxajHR2Ez6/1d4WbNBtEpOGrh7A9qgTwxCPvUM18Sq4TwMm0aWzvhJAmBRRU7csqNqFxqrRucoklC41QKMzPqR5Ka/n9lNsdJ42Rl3V4Caibaxstyt9EC0ycCHLad1ou75fCc3IFL/HYaBSlsmV91WtA95XtX9/VdMohbGA4jLttqiRRh9iojWtnRTuaxK/1WpiCDY1frvYugbMW1XcZ+4v3y883y88/5MLT5V7QA1Le2sqncxLAfESTRk7n/4EE1hawRGmaOFvbmrn5tKXCuVSDF2Rd4Bf6Lh5cTGyVdcmNuNUkcGrHptpiarmy2NNW9PjtnXTgVGiVFLdDS5YqmXUHlqxpWteswePxXJ7aDGGrmGqouH9n+mLwZZ9wPeR7Dar7f0R7Nna1vYGB/ZstOneHPD8dE3NPXwre5bfScKc5c8UH8fiU/FexNCSeev74PP2+uH15fP14fb2+O56/X98Wa1fHV90+4+/AQ==);lineShape=1;strokeColor=#7EA6E0;" parent="1" vertex="1">
          <mxGeometry x="471.1154361040476" y="323.44134764968646" width="6.24356565346928" height="15.262719326004193" as="geometry" />
        </mxCell>
        <mxCell id="nm9v9BbhIRKBIwmMx2jB-72" value="" style="shape=stencil(7VjLUhsxEPwaX6ckjZ5nkvwHVZjgCsGUIa+/z2xcMquW3S5uOXBblm5rXj0zq43evDzcPm83wb28Hvbftr92d68PG/20CWH39LA97F7taaOfN3pzvz9svx72P57ujn8/3y7I5en7/ufyC7+PPC2SwsIK7s/xjRPn/r34csQ/7p5W+KjiJnwl+CJOAR/1Mj4FUT/gvSRiTyriR3tUCsFnJ7kM+CLFE7yKj6M9QVoghCixjYQmKXLCGCEzyTMXzKQ8uhwlJRKjJjUNhBgkFkKI4scgJcsyOSHmHvQToYgSwlJ2ow8WBk+iZDGJI6E4Ce0ywZce9RMhUZOa+DFvpVGLVHT8/eppYXgpYxJq7Hm8gI8R8YHiQQgLntjvpPrJHqJMh/GsKo0ox6GQDZ8p3iviA8mXw8ZSg1Rqv3OIj0Rmp4pf55fE36FmDJ8oXjPiA41PBvudNOpvrYgvBB97NtfxYfXmpULBaZ8l5yUcJw8SzXA0lyHFRQI5YRkGkIMmgUynYtNsJDSTKekqZjGorFlVkxNawzJquQvvEiF6JDRikhGg97bSpXeJAJk2QiF58G7STqs0c8sRBQmFTBwjQDHZmysnpIKETNrd8nsRCY3o3yyu4wmrOFxiJDcdQSRnBJjkb8k8TyhSGxKUeW2ZDZiIyhJRcD8yAh2bdgLE1YzkJjVFgrICr70vrgiOnVD7OrTWHM8DmpRpG1iKqSGBDcOlOCcfPD8BdjYjJE5oY783r9hmvhAaEjIrvoYTxd6wRXVxetIomxBLMU96oIlrU2NqvFmai1OfaUwP7yXYFoWJy12052eQrS3gQ+qrzfkpl/seciIEuv/bHI3gg7s2qXE34aVhuwAorpqRRKJRHCwbic6Hj+X5Y3n+n5fngLcoxUYKiX+dvmazOPY1m/vxJ0KgYzlktCgXuiloRpOypx/YMeEHcLIFnxCSBWn0IRZOKNgZrZMVMtLyJEvVvp2cJ/iepdXdC1stckDhLPdZJA9mEizbPvZV97zTFbu7t2JnlzVZwqidTEsvTT6na3c7FdImnuGnG0KlWZ5vIJWOAsMHh3gifc24MyudlobPaA/TwSKc0Z5A42/4ADV3zR7ojUE89xfwXjJppbM9nn5kz/46+kE7x9PRy8c5X47bM9UDv6t87433dbw9vF2v3+8eH4+38+v/43W8vTpe5evnvw==);lineShape=1;strokeColor=#7EA6E0;" parent="1" vertex="1">
          <mxGeometry x="477.1311550288657" y="343.2841525514042" width="14.455738128988742" height="10.472179704838254" as="geometry" />
        </mxCell>
        <mxCell id="nm9v9BbhIRKBIwmMx2jB-73" value="" style="shape=stencil(7ZzJjh3HEUW/httCzsNalv9DgCiLsCwKFD39vSNN5+tXN+qdIpcGtOMQtyuHGG4M2e/yd7///MNv79+l8PvnTx//+v6fH378/PO7/Kd3KX349ef3nz58tj+9y9+/y9/99PHT+798+vj3X3/88vfffliS609/+/iP9RP+9QUXQzhCWLAU/v3ln8IR83//4c9fAL98+PUJMOcxmsiPgvK1nuTj0Vk+lJN84p8/jnJeTz7mBPl+zLN8PUJF+ZZFftL59KPMk3w7Gq8nn8/ffkAC+XbMcZIfRwooX8/rmbxf214R+f8d2Cv52M/3G/YKrwHlKOcNxHQE+kLeB/gA5CMRIG0NeADKPoRXgJzOgHoMAkSn1J2tJhztfMvRrg2+MObR4xkwt6JcA8Y2k4fdmCHTF7oqklkm3YMBYlLA6ABoR5QlpX0M14B6pLOtmTHjKZUjVwXQxQ3TJdmDqSPtIak5pIfCvwKks/KZAwhg0CMeTb7Qt0u+BpjDlYsbfNMPRXgA5lb4S0A3n30+pRyODE7YABJEckRt7ePo5z3kdMSIgOYAkwG6h7y/+QqQz8qXy9Hgpg2gm65HpSVZKDnbdG5HhoszgC6pH4n2YJojpzS2SV0DXDTJphq0h6b2UMJR+AvjfErFnCcD5JQKew0DFAHk/SNeAZIAyvbnrwDi+UpFr9GrkozyWOQrgDiB0u8ASb4wGFCUt5W5mcorQBWiFPiUzJOe91DjDvWvAPnsl6oFYjpWA8iS8hEhZBlAAooB0GuUTY4egIL0rZtTkS9UPlaLaGddqm0HsWtAOrps2gIxHWvahPABME9FFhe3Mj8B8JSMzciSJvrWZgHl7GZaQN/azBkLIG6efw148K8HIKFqtHr0pIBOAKetLaOrtP8ODjDgpm2L4ipbQdVYh1gVQMlSdcmYHQMFdlOEXBQw4KZNmedZl1rbgfgaUHc0eAA6JjTLgh0Al2T2IEsybgDKZ35OuLfpL0VRc73DASYcq0WDKUlf2PzmGlA0pVlGC8pnITCcN21ugTIUi8rJATo4MiMKEoHMtRETMO4SBFA2XbkGlL2AJ8AAXcpJsywLk3TTRmurbLohMzam3c/28Ea5rgHOHgxArtLyEWFki8mCPaTkTmliemx5ofhWSxAo8YtdE46VgsBNW/Ys92BJDt2DJfTiyFYaRV+IeqyDy0QxqJsZrK1Dea7lmpFSIE37TJ7qJlV5gyW/pNtFOatl152sTTMBS9+JsiZlSmPs8HV9oFoWM/lGF6DeYsxNql/Ix6DyDeWlbDjD/gmv5KPKV7DLoA54RjT8K/kK5+Pl017hV8sTQfL7vTGYzZ4e8hlZZ1SnYvLEg6NmeSbfgetEzahmwbJK0lTB5MmzZw1OJt8pwGp8XYVQYiFKpEyeIn5z+21c5HHn2dheXBRYlWW6sKRJ8CpdkwZlZdirlk5XbDltUcCkPTTNQyYXwy2SqdVY1kxLmuqGDNDpC/PiC0QFl2McDgCKtyzBLYlyqeQSyMm1Z7OFGtw90B7Kzi+/8qaTq9sagGoLq0rrvkBphQGq0yXyRwaQAuO8CZhFC+4LQLyrOhfcUfmSa63cf0H6GAtAZLPuBTwfK5HNqkWhBQAaYoDmL473oDbdsfx3DbhZkrsHNKCq9REzIIw9xTlvczO0B28Pg7ME71snpnerkZIVkOkLSSthBqBK2EorpgIwS5i72PcMIGc8lAO/NaNfxQfJpe4ALnG5A6StCE8A6n5a4iLO+KkD/wqh/dJ7hL/rm0WpZ+L6hZEHKSavcyLyELS0daccYWdDT4BOKWTQstCcSOBs09FtutFdR2ekEx2NAZrbA3KyuA/xa7+QtMN6t4ekHaV1SqRLSccrFoC/ULwboE0nbRssAGlr2mXXZ229OSWnfJN0KW4/9A0mV7/ZSC92QSYUNaNfAHKXYfPIZwAtKWgZ884hX1k11Qyja10vAJuQpvUT06boypgLQK7smwHVDdRwIy26EuAdYDjeN5nGBZeaTeau8eoLxGiSY/jzSMRdk3Ya1mAXExRp4Ky0hrMUn/xh7bZoP+ZtFuyPLOWPLMUB/u+yFGXHHSP10iVRjYGjgcl13ibPHCybjgog1rfcjPOtNG21yqCOntDg0arPOFeZiAvMizwIC8vDBfaBY3KxO3sYTBPrRY0pEycrTr1vivuue2i6hCQuOprIJjp1ptPkI01BuHSgYTrQHOXjxp5r7s+6uc2rcrEr56LeOdPhVmZ0F1CwghA2i38uj8MN+2Q9436DSykzRrbgDDljZdZNod+0J4LjI9z+uJLn9orK37VvvDy3h9Sr3LWflPxzeytsa9ryq32G8uK0TJ71R/RtDByxjurjBs8kJSUVg+fhslt/w0TY0aJR8VmCmzEchWefXfu1bI/xdf5wZPRXq3rhOuaYSSXNaUfiBmzRbHBE7pV017INXIFxU2Gdy07LizoARQ27Zulirilf4tdNs5A1tEvctGvJ5m2k9howd5vzCZBIs91UWK94D7moL+0Fazy56exCz1hZyENLkp1H4daMsGw68bxT0lZgT1hyL/6meQK9NDcgxR64uPcSjUuYxb2UajzysMZlz06yDUzuqhvyaDxctIZZmwJo7L42ZfCt4dhM7aoaa9ASLK66wX4DUGWhzospSfJ8LbiRxIJfaGn/9wPAswn23zpWmdGm2yN4PAAJw5WdutiDAYhftK49qxbR85mq6SxpwCl6U2ZpQVWu5S37EgAnRmbBcg91YE3VABKy1qg0zYe70dA1jE17SDvreABuXgK4IeBa0POt+XD5Qsaq7Zq6DArATWetUt2N3We16bvB/qy1ixr4zUfWmYbCBcz1EkCecHBg70UJlvlzBFSNousJB91D1Qi0HonQPVRV71Iwx+iuDrYeuvCSxKbvntJUpcV3j3WqBsX750DSML1/cCSMbD1pgii6JnjPBrQeTdE9uCmi3Ngeuib/+ebNR3dLKujue9cC5nq8xksSZ3z3PM4VVHLChG+9dpNNRyyc9aGz1TnwTU/3+nPinFKfWlRZDyHpBWtQJ/A2nn0NiDq1lyqy+5G0er7K4zRmnDSRXk0EOKU1tixLylhJGs5Vvs2CXAOqvlBazRzwS6O596WRl+QMaNW7GCDx4a3AcQ0YGqcjD8WPqU5gTZvQO3n/ortjRWZGdQLrkTk/Y5eaUizYlDCAPE6IfNNvNbwHIGFVZhZVjdVkprKGe7fCrfrpGzG8IBdOBk7hriqw5JVobbPpCTVkb9PFkopu2P82h4qGMB2tz/zbGZzXTmiZJi/PJOIOLK/khXHzy5C32dY3eUqJp3uGETBKLfmp8nQ+U8e+A5fpptYlA9/X1OnegGXn1YbX86GMZ/12FXc+LN/c+nk93a2f9zucPJ/nrCoPAXm68eqbVx7f+uttvgJgf3j7bTo/ffjlly+/jOf5//W379g/ffnNPfn7/wA=);lineShape=1;strokeColor=#7EA6E0;" parent="1" vertex="1">
          <mxGeometry x="425.49112719765117" y="262.9971518722543" width="34.73445995347538" height="155.95532777597546" as="geometry" />
        </mxCell>
        <mxCell id="nm9v9BbhIRKBIwmMx2jB-74" value="" style="shape=stencil(7VnLbhw3EPyavRJ8NR9nx/kPA5YjIYpkyEpi/32K2XC0rNmphY4BfFuNukg2u7u6euaUPny7//T17hT9t9eX59/v/n74/Hp/Sr+cYnx4ur97eXjFr1P6eEofvjy/3P328vzn0+fz318/Dcvx64/nv8YK38+46GIdoOh/nB9kc73/++TXs/3jw9OFfXPFr/bVWTi2D3kutwG6K+kYEL3rYQFYcL0IQHG2HsmSa/EYkLBeXgHmvAJUF9p7ADm6tt6qZReED7m5bCsASwgAXLTCt5TEkazuAoc42DGgIA6r0zik2qEUVymVsmv5GFC982sccG8mnK7JZfLBu1AFoHDypea82KHB6bgCiszWZi4V3uG/i74OwL8j31IQBdT9ldTITQCCy6vTBcmiAW3doWaXNKCvTjf4IJwegDU13p5cB0SuuF5cFLkEQFpZo1ftNIhvdbo3WaIA+MaAqp1udKQ+vToMXGaAqVsKzu92aKKmkUuWGKDYvu9KNHg8UvndmZjGmYQTAITIgBsVVI0BURATAJmOtC1xBIi7UEdRowNAPlRNG4171oilyg3PoUbJxRslt4YaZBhVfifmygKqUiVnrqzXWoK8VpQwt1GQq3Ia5Lr6YF7mEmq0UUcpM5RHtxRWH9CCssql7tLKZOD7qgBIBGpBWRZ1KzOuG0CnRotzvQmI6LsKABZYCygGV3QbtdWHUCRgSIEVYK6JZC0buW9hmH34ur1xA0rS42FPV+Sqsi9MAMhsUQqwpw7q9Xk2dnizV2mKSrRM9oqES3e5sr1YH0os8XlMrF+RkYnuRzEw7InuotZtYfLCW3xV9x/rk/ScDh3ZB9LnUtrifmxl3yI1G+6fzo96UfbgEKLSqaWP8ofyrUhOgT3FqzivtH9hoW3y/mHvSdRqe+PmlFzQ6wdiLOc1/xSSLXr9yip+E91H8YpcL/I+O7eZrZ0fTkbMJzfys0Wy7+I877VHx6DRLugAoCc1ItA8W8LRHMVCEzmuFFSdB7hoYkpdo3MzIGt941kQRQzASt9s0uGic0t1neaMvwF0n4QgqisPpS5HbEguHuKTVLIQuoWYtMhbupgHLl6/RCXSOs/YViVbA+CJHaMec+puAu6yHw8pu3pdq5SBPXOBjhcBOjdImUJ6qgnh50A7AT8H2v/HQMvpCg2tCH/3xnPko3aafBgTsPKh8pBQs/ahsgouN3bYyR5Qn3pVPU5MOgl7qtSILGTA300phz6FzgVAEVM17kHZZv5eB4CYOvtwQyzRC/3c5dgPdUg7WJhD9HUAponEcfCiaVljPTMCJ45kmVu7mXQaLvKR0IpFpEeYaIcmNfT4KEHvhbGnuCWIkdgZ4NWXGOOpyqqMQ+g8luCW1BwDUUgtCHFQVFl5bkBmqLcvYfeVxM+WdGBP1A17pWWgi9fzZN1+/O4Dhm4Nfvd6qstBxvOcl5scPHfaDfZK18N+V/smUsgzZ8NeFabneGU9OHvOhxvv+8Lkwgt7NbjtFE82/S3ynV9Tb9vjx9un2y8Pj4/nL7+X/+dPvXh0/kycPv4D);lineShape=1;strokeColor=#7EA6E0;" parent="1" vertex="1">
          <mxGeometry x="437.3128434411625" y="417.9017061219557" width="10.730933359499431" height="9.114508178704455" as="geometry" />
        </mxCell>
        <mxCell id="nm9v9BbhIRKBIwmMx2jB-75" value="" style="shape=stencil(lVnZbhsxDPwavxKibj236X8ESNoYTZMiSa+/76iGtivKHiNvPjgriueQewgfXh9uv98fvHt9e3n+ev/rePf2cAgfD94fnx7uX45v+HQIN4fw4fPzy/2Xl+cfT3en799vu2T/9O35Z3/C7xOuJtHWUd79Of3iJem/Hz6d5B+PT3t5Fecm+SDRXZYvSVqc5JOkdlk+t/H3kG8SiD7ZSwmTvEZ6gRStQt5Jq5cBsYozFioSCgHoeN5moiiOqBSyaJoAeIQjJwSVMqsUy7jVWYCvEowXkrhMAHDbbNaMWxG/eVh9vnQuUjwBBMkzoHjJ7IQVkCWzO0SJOgOaZBKruLQ5oXrqBwSCCb4aJTPHuaHxBijUDyFJmNOtNqnkDoicOHu6IUMYoEqZL90QGoEkUJYym7VlqSylg1SjUqFWKk5SsQBlgGyDD3eoxKyoYm32Qwsj4M8DssQ5RZsO358HNGmL4zLJB7hJTSzBSuQEaJxmP6CWJwaIS3gHcUylJNGo5CSQUolAcLPjSqHVG4Awn1CiKClkAOhs1qLiGSCNUNvqEmohu3SQModGTjT4mhsZvAG2gD8fGotZAWBlplQbS+h6zA9IIBctwBGVspPobbmviRQBpKizgEIA0dkEAoCVe/S4sKiUyQnoD35pWSyBNI+E3F+aqKQqKVuzeuKHOtJr72ginxe38Xbih7q7ZAishS4dFE6jzzesAS2adStUVbXynrhs6VWQZ+UCRK0szyceRpCmRX8qbyKo24fUiiXNuv3p8w13RqI2+nz1Vp5xWzd46U5eib/cSNkt3hpPADsrQJ4lvS61F/KMptoW2PVhDE/SYh9lBG9Qp518pPqYUQHyrLL74c19c6L6m1ZTrpQ4iYs8G1287Uw9X4h9dNDjfT5SeRufeD6pJ+4M5Vcez0s+Vp5fSz2MNP5tPmLuIvZfOj3iIZN4eK98tOQG/SUR/Yt4k4+O9lRVa1AA2GSKFhnnE1Kj4/vahAHwV9r8CmDTtbNJ0AFXqIpfAKTq5rMnECv1qhPfcwLm0NVKgdwBlNGsFAAoJDIwnVgy5K7xZL/wM1YbMZKZZOvkhgHqQrdArNk00awfcqHtEoC69GPKV9xaASJlUDjCDPDlik5Vqhm6lHIW2LXOZqqRxjdGIj/fum6uuTQHmjaO0TSxE9QOLPglsyVhWVYEgRamunTaPkqyDCojIzdApdQaOWpWZj28SJ1BNCezWPwfLZcWI4bu4wjWbmMZ3Wy352BlIC4NDr5sBBDCmIB22yCWpBhZDCVHbCgJV5/spWumhaaTnpkU9i0EaynL1FUdZfF+a+L7RSEH6DJXMD90YmVqX6FNqy/JzXZUx2x1cf9qGu+WtecBzc46MdMJvu+kZ7MGTubxd5tPCJ5yAShgzIpbsd1lCpb/KCcP6GlGJfV0YMt1mdgowUU3MOU+8D7txvw65B11Akp7ikaehTbkzcTPSxJ4g1+ez1dTJtfceDVxSb4mI88G4LosCB0luL2WBGtPpn+29le6Tjwnz0hP18cbeTbQ9vvO9vGUb3d7qpFnxbT7yxv5yJ//vrd9V+Xx4f+rxc/Hx8fTm8n9//ZVJH46vcYMN38B);lineShape=1;strokeColor=#7EA6E0;" parent="1" vertex="1">
          <mxGeometry x="451.5471387189832" y="413.5127737578674" width="13.145962480018321" height="15.018780504323937" as="geometry" />
        </mxCell>
        <mxCell id="nm9v9BbhIRKBIwmMx2jB-76" value="" style="shape=stencil(lVrbblw3DPyafSV0oy7PafofAeLUi7p24Li3vy/Vhc6uRufMQYA8OGtSJimSM6T2Ej/9eP7y/ekS3I+P97ffn/6+fv14vsRfLiFcX5+f3q8f9tMlfr7ET9/e3p9+e3/78/Xr7f/fv3TJ/tMfb3/1E/656Tkxjf7P/Xv7oDXJ6f9Pfr3Jv1xfH+S9lIzygchHiW2Wr1LqsXwWV2f5Iq0cy5u1YH+W0oj9SdTNCirBHStYhEqZFaI4YlGoouCCk6QkREXiHNNaJBEfUhYfZ4UkiQRV7dezD9VLIk5nLzqbVKpEplCk+FlBxROTShQPfyGIC0Sh4D3kSjOj2nk6K6i0TBRUKijEccS+QhOfZgVHi6GZSXOUtIgSp1uSMDttV9k8Udhc3BQCN8mSbzYpNZpLVr9+rmhLx0yy9V7wm0KUGolCw/ROThq5h64w/4VoRrIoVamgoBLZPVQJs0kxSCH1YGFNc2pENz7ZV8ii801bH4nsHhTDar1TmUmKYQ1JCruHJBEUgjSmEBcf/Fk9lPkv+MZzyeBnDquvo4/sK7hx3qaQB4Id1TQAildJJDVqxZs2iGGAUpeK85H6UPM4b1MIowb3FaxHgIIfML+vECWDguMKZgDALr3o6gap2ABIAqno0rDvFS5vJAE6McXokkdD2VrMCNmRvJ/vLFIWY+AXZ3sCbXkljW5yl/fM/oRA4mk7MrSNkNUSWTy95AzygWRcsfutIK/E/rxgQqAUKWc8P/LzE/qrI2BHfKfOjYj3UsN56KWF2q/WJIDiUXu6vML5ntSjNlHM/0Dyzfz1wCvEM3/j4Gb3+Ddij8UfxgTLf9If7H6BoHppbEqoo7wf8pnJW1dXkKdkc6PHQ97xeo/Y050oqxcd5XSXT6zey3DvLh9ZP1ny4aSfe0S9LcGPAEMV5ClTzoM4PMhzjIT7dbReTN5jPB2z3+AE48nwomM2xpPVY11GOkenob3zKZ4WxEdH+3OPD8ozvtvjj/YwvOj3i/l/Il+WfGb+ZsQjR8dRk1c8P3CKpZifgeXbjrzn/irGn/Xb7u9P1lfB+LD+ZvJ1qZeTesT+cCLvF/t5voXFfnZfBUcTRwe+3Xo8OR/tp/2zrP088H4SEF8it9/h+Sf10tD+s/r9KXkbGDD+bJ9UPfJbR5cMpeG84MZC6ggfFftPZni6zXR3+Urib/iuaD+bhPf4M8tP48/Qbz3Fd+M/OKXSrW0uOK8FOqNmRT4Wh4FH/LDgPMX8Nf4JfEApfmWH9ZhpvhkfBv7P50fj2xX5PFuN2PkJ5U/4NtRv5v4u/CrRrXbfbM7+xrP8cbDa4fPmBlcP+cz4rV/5IeP/JaD9buxiD+dfWByNAB/O1zgvKKtHxXktUPzt+wGsr0Lwoiz4G8eAe7j8ns9PfB6puPZSOq9Zv22zfBnvMEf9POI+h/LnMNrrfV9E8X2Z3/0JIVDJsBDxpxMJdNxAW1yt+JzgI+c0bVnbJRqk5nDo9EpZQfMDRB+Wm5ltQwPSVs/vrW901wUtMynhoBo87Sx9Kw2bMssV5oPixVktMKzvm/U5tzt4nDyJgA+VdtO2LTO3anbj2XNfoWEuxcAvriF/ijw1vNsI+qZx8ibSlpWo4y+vDZfG/V2HOwFLy5T5A0TFrWtqA1eOrhpoiAb+rqPIu1Tp4qC/WMD7Whmj2lEXgKemfEKVl1HRyEBgfSag0znT5Y2BA5C73Oj0WuLCjgI1yegF0LUOqIxvhuU1uI4N1j4BU8yl6mkFpWWiNowp/FUeLs6GMPZyZJAGHMkaOiMB9536phDpVGdwAFN4U7o29A7H8FZov1/WJr21EZ8j0phe44Q3BGyUjRe0w28V9C5F7HfIAtpGbA7kFd+9+GLD4ddZzhVg0XhqkV8iyr604LBFdnlS/A6Rx+Qrtcct5zNmvsBOl6fxwZRutCw3GvgoT2BteajpsEUzKCz2sMn6XN5+uH/56tv15eX23a3H3+OXteyj2xe94uf/AA==);lineShape=1;strokeColor=#FF99CC;" parent="1" vertex="1">
          <mxGeometry x="472.88553069308625" y="323.7667871631736" width="40.56369355201726" height="96.93976968743694" as="geometry" />
        </mxCell>
        <mxCell id="nm9v9BbhIRKBIwmMx2jB-77" value="" style="shape=stencil(7VjLUhwxDPyavaps+X0m5D+oYglbIUABef19erLxMJZ3m+KYKm67M+6xJbWktnbh4vn26nG/U/f88vTwdf/zcP1yuwufdqqH+9v90+EFv3bhchcubh6e9l+eHr7fXx//P14tK5df3x5+LF/4dcQliW0Bqft9fOCk+b8PPh+X3x3uN8u9k6rD+iIxkvVFQh3W40kN5wGaxecBELwEdx4Qing3AGKSks4DYpU2mpya5HIekJ24MNrsJBIn5SZxNLpwo0sWTQOgegrA61TGHaJkEocaJY075CyOuLVW0dGGhE8QQPNSTBxwSGJDixJHKoUggQPKGLigUtmRorRqAf8icxqQOtU2AN8ooETL1kbi0LJ1KwAlU0CdAJkBiiSdAOxIVfxkQ2FurVKmHRhbWxNV61bHjoSEnACBZBwA1ksqmdYx1+m/QTRSNrBFG1MOdFXGjSxhBCAhKmOf64FdU26N5ekcVRuIEnq5PV1nkHKmzoDArJKhuI42tEAjt9TKMRDgoyM2pNAPsAJQnwm/Y+lsXgGNunUpQ2PZ2AT/dA9KNiMWyhOrNYqfjEgMAOpkC/DECNXeojZ+zYR9AERnAZ4EQtU2LRCY2qBdKWwA1K1B8thHUT4TCTXcarocAEo6NQJnuZG6nDinNkwGLTswo4vtcm1VUKcBVeJkQ2NeWum/cWtkgWsT+QqPQ50CV7qjzwGMiANbHWMrvjcBWONFHGYAK0yIdHITgHMpTjmdmVuD7aMAsB6EfKjBurWyI6mtxgC8sYNRTKBGYWJa++sNwLNIo38Y8iVeZmJPlw0gkDaKwBkBtKQop8Z8JKbJ3g2IADTrpUrikLzt7G39xGlAnuIAN5AUzWrFBuQ1k7q4crRxByh+euVABo/kK0pVH5RCHY+UeGfHidMYB3TiwAAf+v5D3/9H+r71I28AlfE7WzIhIZgUgNY29R538EbKd4Wbpls+u7RXpLCZIyQ6bUFVMVKggkzsSE7iVJgiiQPKUBuNrtCNBJDTNG1p1Ia0zodWADKI3SCiFRu45hQCCFNnR49hXtK1Mm7Yqozfk7z3lU69khUnlTrV2YGUUt3gerqvp6GZMOWmp5Rw/eLyupypz3U49zrSZJc3JzWa5eww3iaA68XvdGTF2cM4RgR7veA31WCVi6MtOdqeD8+Suh7tbcrR+VzqH3tdnpgoet/k+c3l+PE65L453N0dZ+Tb93YojkfHgXq4/AM=);lineShape=1;strokeColor=#FF99CC;" parent="1" vertex="1">
          <mxGeometry x="516.428055268908" y="321.3539767831445" width="7.025467775189402" height="13.09463047791913" as="geometry" />
        </mxCell>
        <mxCell id="nm9v9BbhIRKBIwmMx2jB-78" value="" style="shape=stencil(lVjZUtxADPyafVXNIc3xTJL/oIolbIUABeT6+7SzZeOR10142zhqRkdL6plDvnq5u346HlJ4eX1+/Hb8dbp5vTvkT4eUTg93x+fTK34d8udDvrp9fD5+fX788XBz/vfT9WQ5/fr++HP6C7/POAuSdEKl8Of8JUpJ/z58Odvfnx5W9tokxMHeJCqxV9HRPgaJYR+Qm7QwAqokBohibQCkIoG4lLKUPgCySScnxCI5DwAtEjsBBGlpTJJJLfuA6j0qSrMKh2ywr1Eqsa+S62iPMhJ/phqVAdCyGIt4U+ZWpbEiBF/mji/kBMRgY057ltQIL1TCWLWuUkmZNUgdY+g21/EyoEocy9CLKInB1PMCgJpJnZP04gGJnAAe5O5jCCRLtUsYqdGTWN0HNJ3nw1LpJoWktW0aGlxizdCj6DiSwNZEXILHzqWa5wa5DMieGqVLIpXGCWmcMcXECL1bn5O4AJIoqUMz36LW6VBqQXRMq6HLWaVxwphWDCU26ksRG+ltSGsk9EaLOpcSbVE0UHJBKx2sqUsxnyVGjQTmbABGyIfRWjZ1KOwE8w00ncBiyJ6tAGQ2KsEcd0KTTgqHFV7NA5RwCQAb+wGlbKTSAPgFV2cdsRdDcbIBk4/FkGcHVoBMRiXqkLoHMKGBSvfgAYFMDXDJ14HLALC1ZQ8wJmXCvDNXgE7YCu3j1u7Ug6RwE2BcKKAGlWNBeveAwlwKcxJX9GZaBmmt6gFsVKZFD65blPW0zQ25BjCX9EJPK6e3Z+uyV/caqKtPq7Gg47xvVoDAW9QPsirKOi5J3vRDYy7lzcqC/GEN9FEAFJmTP7iuMJ2LheLYqiAfCfpt3yyANnfI3lJU8ycwrVG3Y2YZz5cXe5wl4XrtMkWGve+yZJTe/dJCYboVotOxtUQqpXv3bIVeYuIkBoyNMU2QZGze4wgXBESfMdHXLsjKwqI2XzloX2MuoeXGykEGsg7C32vuAoErCpP36jcKogoEUDb8nkpDXALXnEur0vznDX86gvRc3rAJQbC1iD3q9Eyvs4DfVUwuTfwWFM2TqS/T8HLl5i27vgQR8mUfMkrPpnf0S3S6AhF/Nt2DiyC9r/u7QMkzsy4XeaPsjSr7CIdGgajGHcIQGwEZJ3C9F0Zm4wsbxDlJdC9RhfN02ZcLKWaW7G2rMs5h5fbZP71h3bHbUvb3sUDnFxozeHtlNV6eR97sE8mPbpomUM2jxZf4ncFS/ex6x775W32gTa+bh4lAGafdL5BARSHsu7dnS3P7FLto7z377J9u6fX8g0+979vjx9u78u3p/v78LL3+f/8OjU/nN+z8+S8=);lineShape=1;strokeColor=#FF99CC;" parent="1" vertex="1">
          <mxGeometry x="532.2169355449114" y="330.84661900149206" width="5.320562373822516" height="14.613109677248607" as="geometry" />
        </mxCell>
        <mxCell id="nm9v9BbhIRKBIwmMx2jB-79" value="" style="shape=stencil(7VzLjlQ3EP2a2Vp+u7wm5D+QgDAKAQTk9fcpZ+RL+5T7eJCyyILd0Pj0vbarTr37Ib348u7VpzcP0X/5+vnjr2/+fHz99d1D+ukhxscP7958fvyqfz2klw/pxduPn9/88vnj7x9eP/3706uxcvz128c/xjf89YTr1aU+UNH//fSJdyH++8HPT+vfP344rC+Br2/L+uC88PUV1rfO15dlfXRyeJ+8rM/OH75/XV9cSXx9WtZX1/l+o1/Wi8uerC+ure/T+fkU58N6nsEFtoHsAlxY5DecXJQVkFxnInR93wUo8yv2ABUBeEJ1lR2Sd309pCDOs01751cpCt1lsmnpLqxPiNcz9wBBuVZBrYUAmmsAyC6yJzSX1lNSUWX3oIC43kNsLpNTUgBuWlzjewjrE5Kn9zAAqzak4CIH+JWOUjztIa76mdLpHsoqGik7IcKngA6A4oSLBuhDqq6xPajwwRP0JdkrdVfhlFQcmU77+d8XoHOa9E4KAoTrNPKwd5WckgJAp7N+BaeZ3BDQKyUyvypQVqZqFFDjCkgusE1n1AcFNA5oAMguM0CZgnAByjzoZ9rnXDkZqwIBQD9hxyrIrVkm8dwDVAAchK+jycoH4euurBdXvGvMoPTpVFyA4CozKN31lWZKdI1Ja59uwgVQK0qEL3il0vWqy+Gqr0O5AJUy2Tim1QQVoSZIAR7OtVNy1asO4C2pGWVXrbK2PqFGF7j/09dTqslldhEZj7Xm6XLdI6YKgDr5+S7fr/dQ2ySSPUDvFZ5wHfQeoES3imvz8yu2gKYqB4BAT6kV9B0a9xL1+8DItUT5Xs8EVK5l6mzovYIJatfdbwEqm22ljdZobKLqElYzqucWCPWpzld4QqcGQnmrreItnr7SN+69AbB4QM0BqKgKS2JPiFMhbwBCiEnteIcnRGqo1RcBBVKAkJtW9yjAplWniSypi1dW30HydGX3gMsc3ACYL62OsIcnlOlz7QFqqOFY6/RX9oA0Dc4FaJT5NL6AyE8BwgDqgMGxyvR99yaoT464AFy8NQoDZ0M6jdZDm8H2Fe16yksaGILwdW5QFACugPI5c/oUABZIHU0mSwqAmEYBlbCGAkCW1NEM/JVAp4dnenjCKhrDMyVUuQUUfg9gRRXA4uPNHsrMpDwfwOz0BlBPF+cTAljuZwAqApgfOkQDXqlRgzIADQGMvYe0VgQ0LkvgayjgoEAJ9sDd+2Aydgpg7B1MSnBECHwPGaS1z5u5BwDXQQEsC6e81DoCCntCRzdUAZFwawyGyGQmhPaAjEmBzp2TWOep39w0yyKojYNU5RBvZlA6xvgKYMc6skMdAZ7IkgLwCYWKtwJyQgCjygHoBkBIQAHg3Q8A3wP4Gv3yDe4BUFoLNVkpGDIuVFoVgDRzfAKSwBGQ7RPYpgP6S6dj1bDM3gPz+cJMut0C+B6auQeWRdg+gSX69KaRNSolMtU4lNZKXbiR8TUWiLG30gwkNvqV77znhqKDxb3K6M0r8WhXvcpmAIn5rc2wRqeyFEyRRgEsbxeKMeydxqIhG1+j02RliKZi8S0hdCdh5KSaR7AsGeYExnpyD7I5VZZeqpjbHDaURaIYiA4Tyihj5qpu5YjcsmV6Xt3wWPca64k2eyMTQunCG5EQaqpMPrALlWpT8xqKSfjOG6Mg1B22tlmof+Ex2zj8QiIP3vhgfH0wMYzMG7+zHpVeeMyz2y+jIcNzQqua2/XMb968D0tJ7PbLUta78+T6Yu+LebQ7eeDrbVzBAsKdPLfv1BfmH2z1keoLxqdC+XDHJ4Xu1/IVS9n6qU3P1Bdv+Pykv93IJ//+71ufTTQuNDVqKgWHqLFt7CMtqmJ5sXfOP34DYD5yCBsLWRkjJtNM0nlkXYyN5DZ7pNcMgAb7bbo9t1aesWLH7LFeM0u6KG9Vm39gLm/C0py6vEKIMdr8Q6MFzCgGUOkpjaYfABSaXvsR916AH3Hv/z/uDdhzowDhAEx+VapxQ7xNZE2TX32TSGXRRGzYiaEAVgtX+xONP8LsifISFhaEksDGY+t006EbE9ppZW5E1hEBnUXWBXsSeuf56bIJlKlXno0+9HnQ9wDodx6yx3ljgagVzdg3dMqA56nBz82xZyw8n7L4ptHoVCe4muBuALQSkQ17H2odeZP8otUUm5o61GsyduqdKkIWcKg57QC0qpVn088FONTNdoCDPlgArf1l4/7wjslgWo5P9ctiaIb3xo70WkdA4DSD3kygsVKwwYCnac5QN5XqxMS7YSO9dBo+B+WIigB6cd00MQhvMVD7AOX5RjN4MZp2lYOja2hGKj0ltaJhFT7hDpbaachySqZRX4rmlTJNN6eC5UhJ1E6nK1q4ALwXMHvT3xJ521BEfZBAeSnnDYA1cWYT0oinNi6L6cbqtJ+xBNPvxc3u6HZcj7VdnaZ7gGBJtVX6StW0PrVCZalWTFG0TIOm5tGwt0TZW78PxktapCXV1lC8G2+bFm827WkAruoC+lBlGuI9oKH7UxslY2VSBFQ+RJTQAtVMU59qAsENrYl6M920Ao4+VNYFbSYbRqcrB8A9jF5a1nIspqlZ6OzEyJPAaNOhH1gwNzN0kLf3gj4cmprHK8GmD23Tgj2cozGbyZKgJzBav/kTYOgl85CmG/FWAB2pa5j4zYc264qVrdxoe28vmBrPlc9OZMz9jjGCwyjEeqyZu6GbYYvEB/ciJkIUENkTInozaiZZ5kRdQmiIUQCrqHbT6TpGUphOm7GazK3oaI9cn5C48MlVEr0BsHE/EWz6HKNBHAAt+6nRKEvpHmRpjDex/viK3etjgIoDcIAqU1kSw96nITDT2XcaM7OAwyBbRWk9jcqZttLTMJ7pHfzW/HEPAAXEUSLhxwp5vjGyyEUDvJkxFHkQPhhZ9LwnwUykaFTEDLt0FL4xOspH5SAbOkJBPvkGKeAx/spYI85OwQuQaN/dCLdh/DXSSlNPmBMYQ8Js0xnpnvfDqAGC/KzM6Pfe+gj+GG9VMbnTw5S2WX+YAi+Y/T1MmRdzZacpbbDohyn5gk3ohyl8M65zmPIvOCXrj+cjuJ6JtImh/ex5v7cedMbTGL2b6QrPlbggc/FeqlGOMO/D1pv++cP7VNTgw34rytvhPM2vFBzuq+Js+UEe/oNflVjX6x/ffsLi7eP790+/gHH7//iTF/rR089lpJf/AA==);lineShape=1;strokeColor=#FF99CC;" parent="1" vertex="1">
          <mxGeometry x="463.06767688510706" y="264.1823714277993" width="32.093857791341485" height="161.32837306534475" as="geometry" />
        </mxCell>
        <mxCell id="nm9v9BbhIRKBIwmMx2jB-80" value="" style="shape=stencil(7Vrbblw3DPyafSUkUdfnNP2PAHFqo64dOE7b/H2obnR8NDpnFgX6UiBvzoazupAcDqm96Lsv9x8+312C+/L68vz73V8PH1/vL/rLJYSHp/u7l4dX++ui7y/67tPzy91vL89fnz5e//35Q7fsf/3x/Gf/hr+vOC+tdlBw3358oBLzP5/8erV/fHja2QepabYvUty5vUoNk719Q6zn9kmcn+2zVLKfLH7ev9qJiH2RGGf7LLGc2zfx836ik0K+33vReYGYxCcCiOLKDLA1lQDsCPOWkl1pIy7z4uYtpSQhEEASbTOgSCBbUicZAFUSWUGLuDmMUpPkzwExSlgALZI48hLmW8qOXqsd8Uec7QCBbCnH4dfdlio5dG4j8ncAdq0lStLFD8TTpYmbz5BUGgm+GjD9LfgyOXTNkiFaoyjJ59oQoPYJIYwWJLgZkKSQFZpKmYNPjaTIGZpF/5wPoUpgHJBHfu1ITAkJNIul2XHBXEn80Jbg0ziI5wyANKOUV+0MAUIjDqo9BkQp8woW8IlknDkuz46z+FWSD82hH6oO3x/HUsWctq8oxHEWrQkA2zUcA5LkOR+apRTJOANAihqA1U8DgOMMUMi1GsAHBDTCGjVKnaPVOyeO3WuUnJclGG1ErKL9EOyaFvo2QOKHcA0BnrlakclalcLOYACPgMCYbAVY1rJr1aFEdgCWEP3QAMjDl6fhCtfq+QoFPW1rek7fbfZ0sTWJ42wDAMh2aEZ9ilzZK/sN+gaAUR9bweh7BsQy7u2UXGcmi4GGxsr3JnCY2DBAW2pWY1xpW5rLaNhceXZLsIKpOkrfcRxxAyiVlcb3CkXOUanepcAcfCZlKQmUUcc3gHEbI4Hl0N6KEssHN+5kiyXOraYh0V65IIPAiHQ/ZVVLoyCd2s8EEG7Zg1byUvh5gZEczU2zjwnsKR855FRbkNl77Ezc6G3O7GvE/TC6C6gwPK+cYTSPb/aV7SdIgqykUrXbz/ept+yBJiL3b1j6MKoi7T7zki/c3s/7ybyKL41k5v51i6qlzYXFfwtwP43bF6gEVDT3fITxAo3n/v3zfswhrCNsKCnsghnlWrhjfjFON/uC+Uvlr8dafENpevTv1gP8N/ZF4nyfhfKzlSTo7BptKEzduPm8no+brEiWZb5WmZRYBmBWJJVJiYxtV9hI+xhQl25Wh945BrQxy9lJCSZLe/cAK7QhwY5HWm8NypY3Ojx5tgQUPq000+zUOOlQOqJaJVq0VpB32GXpsJlaaUsrmL0kBlD0XK48+jz2v6VQR1g+hJmvrYX2LKEXXWqbDKzt+tlhb0v87LD/Dx02AiIdwVq+lPkMllNUwlSUGFb0WI42NyJnS+rAi1ZA0ZOVrxCx/7UOm00JeksOMkl5DbKkBr6PIwnPAHH2gymxyjvsDA9J/A2jTwahh+fTSLslmHT0QTU7tOKDgdWsxAAO1eSNOYSxcQL5X7g+1NEebJ62joM3kNDAJD7pKBEfALOjLwy54Rly4ICIwWfhzR5u+ktPQgBbIZnIbghg4/x4tCXWd2oeBWd3aNZYqcMEMgDTP/1hVdEPrDXsnQLImTrE+LGIy2MwuAESnWmZEnbrQybxg19UYuQPN8tjr9ESG14uUsMSlNWfuDw+8+c2xafet+fl4wOP1Xekx8SVw2mHbzTsHO7HJ0rby/37SAnsyJ7VwmXaZCHCNIzD6YLfbvjEHiaWfTxI7dNir9QeOgCzZ3XTL71eoGrbo8br9uzHCNgv+EB7SY9S5Mb41OOrZb9/uv9/92OT2/b2x9svWz49PD5efxiz/3/8JYx9dP0Vjb7/Dg==);lineShape=1;strokeColor=#FF99CC;" parent="1" vertex="1">
          <mxGeometry x="471.0834759338867" y="428.5833673459239" width="20.752884506072252" height="9.936267248938444" as="geometry" />
        </mxCell>
        <mxCell id="nm9v9BbhIRKBIwmMx2jB-81" value="" style="shape=stencil(lVhbctswDDyNfzEE+AD5nab3yEycxtM0zjhJH7cvNCpdEyrXzZ9EYUW8seQu3rw+3r3sdxJe307Hr/sfh/u3x138tBM5PD/uT4c3e9rF2128eTie9l9Ox/fn+/X95W6RXJ6+Hb8vf/i54oQkLCAJv9aFQGFd+LyKPx2eL8SZt/IpzeWX/6dBninFuXxMVEb5COVTIS2DvFIoc/lcqMZRH6bKc0BJJDwClBoCVKptAEii3OYAZYojIDJlsIMB8hiDWKkglRoFHQApk4KomdE87pCFqgC3ZipjGEogAQBTII4qFSXJMDHiGDiN0AZLnDbuoA3Ggc2GMQ41UtE5oFEbba6FGrDZUp9HE1qghmxW0jwCBAJy9YFuCWaGVsoOUIgBoFWfGe1cgTOAigdU5NVGUkeAdr/NABo8IGNAc241vyGjDdA84MoOrsvYSgDJap9T9YA/KzO3tg2ggsZtAFdwi1VoB0u+jQ1XACwblUA9WCIU9gDU+AzghsniVqRS6cPgMnBXANUD0DwxQHQ2aC+pGcDXg/kN7WB90dlQ+oSZAWr1AEUqmU+2JYrrgTdGB1wPeVPTEcWh+SG6WAUKiMOZt1xELiK/tj7GLwAV61Q2+R1xUXPxAMXN1bvJlEQ7aP98JicB87cFkT+EsBEhG7MT4gLap+Z/tlcbc+z6cYHNb+GoLjtszIH840DsHCtwCBn/Gf1ararB4NXe6M7yRleAPBt3GRWq3Ef3jDtUx3O1O+HfThViR3+MuiOTxQ85Y4GI6GbxqWT0Aw1qo4TNsUqsUsme6KYES9Q4pI5GGzNGnG8BOO4tsKZNJTezpMA4FDvvuONAwCeU5Fsfp/6LGZVO7kgTcL1FPyAKZaDRkntjdqfO9mfV5jIpQorInsrgI9/GoRH2easrceIMvBl8kxfYgYMf/9LxE3HHns/H44m4m2nceeVM3CUCbNTBd4izqybiLs0CPB0FX1mhE9BJmNyUCX0oTMR1c20BPPPBW46r4vbw90Ll4fD0tN7HXH73FzC2tF7exNvf);lineShape=1;strokeColor=#FF99CC;" parent="1" vertex="1">
          <mxGeometry x="499.8488087845566" y="424.7745545520871" width="8.98836408323541" height="10.982671097701692" as="geometry" />
        </mxCell>
        <mxCell id="nm9v9BbhIRKBIwmMx2jB-82" value="" style="shape=stencil(rZfbchoxDIafhluNZdmWfZ2m75GZkMKUQoaQHt6+2u4sYBn+tDO92xB9lnWWV/Lwtnl6Xa9ieDsdD1/XP7bPp81KPq1i3O436+P2ZF8reVzJw8vhuP5yPLzvn+e/X58myenr2+H7dMLPmcuJCk9UDL/mXyIF+fPD51l+t91fy0eqpZPnQCndB1IjqT3QKDcAMGnsAEmU9T4gdgHpALtkAFfiSrG/kgYK4Eom39+oZorASebT0Mm3RBFYoMS9T5suTrttQKHmgEIZAMKUk78RB2CBUuld1JhCuQ+USLkPQjWvAQ2afZhrIQZOMhNbf6UaKYGomRO1DEAGQKUcPYAyrzXi5oEKMs8A59YqMJMMcJE2QBkDToPlHgY0e0BB4AyIzuhMjDRUKsUDCQFKjT2QQfIZwEOBZhSH4puSAYIibdmqHggol+y85N1aUKTNiUMcGNmQl7hepcYHGnx6y0cVF5wNkRRVXCEVD8A4KOXgATRN2tC6Jw04+cauobjiXKs0L6HhYEBtHkBGc7Bp46xOcGBNKobcgH5tlNQDDQwIc1MdCyJCgIeizv8T0OI3jdpgryxCzQ05xmO6UXBDzkoOAGLdvc9vS+AIbGBdnHgG2mLV7fVq6UKX7eqcLDeBIZUmE4ACWXr7deqB81l8SRdLFWCymaB9OeRAFWiQIc6C6yclkr7x2UKHNNgy4xqf7awBNI0pMfp6Y7hembxrxQyDYPJuWQrLeLkn75pYgIuMeXw4H+1imZc5cJFHw83ka/Ly6Pxzj/7L82WZfFf3B/Ey+dK8f1CVpfF8BfE1+eTzAQ3O8VHF8Mnzz4+wD+Xt4/Lie9nudvOD8fr//oVoP82vS3n8DQ==);lineShape=1;strokeColor=#FF99CC;" parent="1" vertex="1">
          <mxGeometry x="511.5464215407119" y="423.28675202771035" width="6.949370674827151" height="10.793933311229845" as="geometry" />
        </mxCell>
        <mxCell id="nm9v9BbhIRKBIwmMx2jB-83" value="" style="shape=stencil(lVfLctswDPwaXTHgmzin6X9kJk6tqWtnHLdN/r5QNZJFSNo2N1rapcjF4uEuPLwdn14Pnee32/Xy/fC7f74du/Cl874/Hw/X/qarLjx24eHlcj18u15+np/H369PA3JY/bj8GnZ4H3mOmZgHmueP8ZGn5P8++DoSTv15QZBKuTR4IecA3pPEBu8KlbhPqJF8ag9UKeZ9QnHk2xtER072CSlSlYaQMiREpuAbQmFKgOALSXuH6qkAgvNUc6uqXhqo5JyVVYS4AAJPIi4IqYI4UCoWL7yPzxRb/MJa26pSqPYDFRxo9uXyAkgi4tX+HPbxTN7ZEAQQM72dwRfKEB/F4hlkjqNs9leJAT7YvJFEAvImkQ8WX8D+hcJq/wziJZN6CzyKr1raBXthjwieIltCRY4IxMmGIKEQKMF4rk4u2TtSWJmoorR0KxcJReBSWUVNswZGza2yQFBxJF6VCQGaBnJs8RldmNIKjxTlSY2FoBniTTvTEAvoZ5r12eI9rhKfwrtsy0qdJdguc3PhnwhZYBpE7bDtF7TBFUBIsyUnQhCYN9phjavvxWCboLnfRk1lQC7Vps9tsahUgKpVS0mbmJ4cqHU1T6/nA0EXKd6MCG7y+TZeTdZKypTReVYCzSPGdtazjTFPgu1NXZktHpxfoo2w4oEjhtYSDd6j8xfbDPhfU2aqBi+oKopNGkcR7S9TUbjjUa/89Jj8HwRd3Kfyl/50Gof65Xs7xeuj8R9AePwD);lineShape=1;strokeColor=#FF99CC;" parent="1" vertex="1">
          <mxGeometry x="518.7868132096138" y="429.5062348405896" width="2.7806577505962196" height="8.422632917321684" as="geometry" />
        </mxCell>
        <mxCell id="nm9v9BbhIRKBIwmMx2jB-84" value="" style="shape=stencil(lVfLbuMwDPwaXwlRL0rntvsfBZpujKZJkab7+Pul13BrUc4EvTnO0NKQM6Q0hLv3/ePbbvDu/XI+vex+j0+X/RDuB+/H4353Hi/6NISHIdw9n867n+fTx/Fp/v32OCGnp9fTr+kLf+a4GsnlKcq7v/MbRzn8f/Fjxh/G4xqfKUqDj1QY4AtJavDsiAsIqJTbDXEll64HsHPkXBMRHPkKlug4R08FLFECxdgEpERBrgfkQsU3AVko+usByVPiJkAKBZCmIJRa0kWWxG0G+GRJaxqyA3lNJKENqMua2wGRqtiADDhwsFrSgALEx7zkZBVQIygc1ZbCSizbhaOQuwWAlALVHg/qzFQ7Asg+akbuUgoId1ZQfASqUKN4i/dA2Ew+WjyDfPouP2V5s+0D8s7iC8ALie/wSEFKuNsQWoDVmKljACqgLgjJpsghF6QNF3jU8NIimXWREWltVr2KkEq1QXZlFmADzRJ3vaKisUDScUY+E/Itg1tGjhvNq4Kkapl7YwK82zCygP3o0OtKkEAJ3DLzVvgAavxdvP5rKhwpovywdZrOG0QgZMptiXWiIVnrCCy1CdCZGcAK00htm8U0lUENRKi0RZvmPlCpzv3cZvXGyUIDXMthOryA9lLYkp46FKibVNsh9fwFGrbk5XOr8x0yWrYj1lFC+xErPAfPLSoCrgaPVKF8xe6fwX40ocl+H50e+xIrHklCm6+zeKA5dUlli0f7r8s4WvEF36/KN9p8IvznSXdVL2CyGpa29oWPQG/fvk/cxOvD1+XleTwc5rvP+n972dFX80UpPPwD);lineShape=1;strokeColor=#FF3333;" parent="1" vertex="1">
          <mxGeometry x="485.26372532031996" y="160.00368595040536" width="2.113128362834535" height="28.509915984689844" as="geometry" />
        </mxCell>
        <mxCell id="nm9v9BbhIRKBIwmMx2jB-85" value="" style="shape=stencil(lVjLbhsxDPyavRKSqAd1TtP/CBCnNurGgeO+/r7cLmSvKO8EuW2UoUQNOSTliR/e909vuym498v59H33+/B82U/8ZQrh8LrfnQ8X/Zr4ceKHl9N59+18+vn6vPz99jQj568fp1/zDn8WO0mUebYK7u+y4sml/wtfF/zx8LrGV/LS4TPVso2vgUrs9w8k4ICaKJbeQCgGYFCo9DcI3FbuG+gVUmfAjmKEBiX0Bh+4VKn2LsVCWbYNvHPkXGeRhBhfIvUGuVJAPgmF3qciOHKZXB9pyZQRTYFif4KuwFzKVPoTNPipbhsUZdH3BgVGLieq5gShBFxKwbKkRKNQ8zX9VwYF0KrJGYI1qOAE5bD2ergly/1kag6vD/DbeEcy4HNGeM4WH8CNnc0jjQFiaJDCLXU38L6vMHNFAPyo2KvFo/394E8mQWKmHCweiV9Trg54kNSBarT4AlTDtlLofR3E10FkCSRoJG8kI+SA//fwCfDDTR6rfPMgvnpfb/EJxFf5HPJZIP887F8Bn75Fc40H+tJ8G/YvUI82vlqyoN5N+1P+K6iJ9/SI93emIhYSqHdOFs8gH7ReGX5yq/Jb9XDAF1xwi8VnmD+fxDP5bA2QwLTHyKB4BhmafCtQq8ZacZ+M0Ro4EOOiHhsDhkEWVb1hKcDGKtokTFq4xtvW+GHioLOtIINoO6tORBmNUIl4mLlQJVIDM/zOUx1y6Tr/rAZHpH01MM1DR9OMxutoqxF72A00rqGXjxbwiiZTT6FnyddGw2ak+2z1kSKaG1Nj/RppGDfxrZ5crwAHEMV7i0ez+Iy3byioBW8p9VgKw0TnYMNRvJGOa3PzfXwgXw2eMb44g0cyEE2hbPBogFW8sMUjfyKx9d+jeEWS4b4430zHVz5RfD/7pv4Qrx+3B/zL4Xhc3v/r/9sHvy4tPxbw4z8=);lineShape=1;strokeColor=#FF3333;" parent="1" vertex="1">
          <mxGeometry x="488.2139382410344" y="160.59062446859738" width="8.202298206768319" height="10.140029654455324" as="geometry" />
        </mxCell>
        <mxCell id="nm9v9BbhIRKBIwmMx2jB-86" value="" style="shape=stencil(rVfZbhsxDPwavxI6KIl6TtP/CBCnNurageNef19uF2pW1O4YAfq2x4zEa0hpFx/eDk+v+11wb7fr5ev+5/H5dtjFT7sQjufD/nq86dMuPu7iw8vluv9yvXw/P8/vr08Tcnr6dvkxrfBr5nmqbiIF93v+4Mjlvx8+z/DT8byAFyrVwt023CcqxeCnty18SJRSh/eUgDkxk+vtYYhnJgkdXijwNj4F4tjbE4kRoZLPHUE9TsDjnCj2CQiZagUZ8OR6F6L6DHJQNEZ9DjhQjNsEcZSlJwhJAQSm2u+QMnRahCp3hMzEfptQq42SVHICCaXfoToqwCQlGB9qoAycXiHwvR2sSfneDqEv7iotDOsEsYnTJTgBQqHaE7zDglZGYLuFoETkJsgFwaMwabn6nvCv6awTEuVo4+pAfSuBh8w5ZNLQlapvgdsiiHHakUf1nSn2JqlEMjKp2C4gBRdTsdWnhAg6mRYT5w/tUJuLSx/QDrW5uIwSSpxKzhACHj/v1bxMNbZJBpE6JKFqw6SRFpRqsRN3ChzyWtrIXEoOCaIQ933jrqozlbFxoDBl8kZC0prV/yGIKqI3qXCbY+sEbde91znDVBexIk1a8miQMoW+DSTfpv36bK+U+s7EER5/dAp6M9sTLKZU7BAKtXWSdYK3mgsBTi09McVe1R7Xt1psGo3XJYCC9MzHvSC8h71vPFR6PbEAk4ZDq+IFKG44Eyu+gKD6ppWlPcgBO+EUj+rIDQOOGCzvKJrR0FrUBty07dIyvgE3HTXDC8MAZxjKwZhICRpjXA2w+odAeij4IU8ODsChDPSuA2z/4M3rLlwf3i95L8fTab4jLv/bS6F+mi+U8fEP);lineShape=1;strokeColor=#FF3333;" parent="1" vertex="1">
          <mxGeometry x="487.7597264517319" y="160.58886294282107" width="10.117212918848509" height="3.612561727314869" as="geometry" />
        </mxCell>
        <mxCell id="nm9v9BbhIRKBIwmMx2jB-87" value="" style="shape=stencil(lVfLctswDPwaXTEg+ALPSfofmYlTa+LYGcd9/X2pqnJE0NpMbhKFpRbAYikN/u59//i2G4TfL+fTy+7X+HTZD/5+EBmP+915vNSrwT8M/u75dN59P59+HJ/m+7fHKXK6ej39nHb4PeMiqUwg4T/zAlPifwvf5vDDeFyFO0cxNPGBXAHxSqWNLxTA/vWxb/nUHZLbBgShkhqAd6R+GxCVOLYZZCp5G5DFUkqRGAA0EJcGkAtFQKkIpTaHwhRAVUuxXStKHrWBmZgtIoMkple0SdQVFyEgdACYhJJGC4CUaueCBfxX121AJtcCVnW4jUgk/StQ6yIF3yWByhS61tUyJQgIHSUHJqICvFFTbTXKIVDMnZoQpWhHaGoNrlI2lDJlpI20DP0KkFBZM0XpAIiSLj60poTEdJX/ClBQlQqlYqskeORK14eEKRnvqyssmFI3cl4hgLuhTniojVlOJNHE5RvyLlgasZs45N9VfEktQFGVYueVZZmQzQHqchDUuK8CNC/KuQIcCZB3Vis+ZfLANVJa2rQ65RQkHWXR5vUcVQjwdUTNSS2wD+LtEeSqt6KPE0+prZJjaMbV7VuxRihuth4jxGB4mJxhAz2vO6EdBbg7OxPugBsxSRvOpEBwNVU14RHs7qxN8GIDG+HZm3AHyMhyQH6Eo9PG267iM99TsakyIBPsYDGse7R+WCsDFPnFz/FPw+vFx5f/83g4zD8O6+f2T6EuzX8Z/uEv);lineShape=1;strokeColor=#FF3333;" parent="1" vertex="1">
          <mxGeometry x="488.65182242813535" y="170.37228367888" width="5.965143856480911" height="14.19098558825931" as="geometry" />
        </mxCell>
        <mxCell id="nm9v9BbhIRKBIwmMx2jB-88" value="" style="shape=stencil(7VnLchQ5EPyauSqkKj3PPP7DERg8gbEJY2D377e0g5pWajodvnHgNm5XtlRVWc8+6Ztvdzdfb0/ivz0/PX6+/Xn+8Hx30rcnkfPD3e3T+dl+nfTdSd98fHy6/fT0+P3hw+Xvrzddsv/68vijv+GfC8670DpI/L+XB0mc1P+fvL/I358fdvLqvEzysbpI5IuLOsvbG/yxfBAX8wTQ7GoigOrCDJDmKrmRRBdmFYSrbO+LYQKE5ESJjSIqXV0uRL66NDtBXZNj+RhcjpO8d7UReXGtgXwi9zcXCcproPI5g3yIRD46X0Hes/tElwTlCYdMvuF9PLtPcor3+cWpI/mC9lf2/jzU29mf8MHkBeVZCJi8zvYJLrxSPjJ97T4e5Au3D/BNuH8tScz3ydxfS1IJW0QcAiCCq2v8RlpmDewVLMTKYMAubSk7IY8Q3xJjdIWTAk6wTF04qyGKU3OFhz2klfyCH2TQbACKEY/p4IdNNkBygWQWy4xxvlLh5casHmfHVR4LqsjVqiPbXAcETBY1uUxOsORfZk/X4jKrNwmpUdvQ6jpAh9UHoIWRYa/XzObaHA9NRgq/DjAizJ5uVkXZCYJ9RUuuEvK15QCLKHIjS4kFdOZ9gqbB5R2ABZyFF1SdlmnZz1blA+rMyFrNSIpWZXmsVSyczbopkpYMkBUBgZTO1kbl3gGY0gZIBQGsmBigZgQURiW/Vfs9+Yir7Qio/y3SmDZAWehdCTcMoAu96ZXqEnGJ9gwGgDTTycR0KK7G5QSmgwVYQoAwbuQrZm1Mh4yZr/ObnwAVyADClM7YiRmZWBYwpZFLPN23pXXoAcHNip7WMXAceTomBLDs3bm0ZAFWdo2tcbESpUYbEbkDsAmmRxxkgTgGxUNAQ0DkiQnpHWkT2hMTkM8qANcBk+vWQR35IWUEUB1eC6jLMNz5SyLOSlAtCGhEh95DgpUqnZ6tjML0bHbLxNNWqHNBQGO9hg070Kx7Pu+l0SnsTkjESpYilsKu5P1W9hfqsfm5jSS3666oxjosuOvfAvFaKNh4W4fIuqvfA+0GqLylFCRS5cwzJ6TZa9YWMydYWyyz0pXnGPVDxV1rX4iVrLWX+Uql0apu3JZZ6VLooK5lLI42QKRFWpccUzwf4rxLs6cznzb6TAZjogUDW5boApDRNB6OibMOfXLl6xj/utlYscDZ9P2CDg0WFJV2JgaA6aFvEEjaM0CC2XiQ60g+zjdSvpL5u6L7u6L7k1d0xgfYso8d3NGKWmb5RP3bMyl0zS6z3C5YPYJZgG1h8lj4bQooZYQ5FJKQbk+uF+WEyy1TigI8ctqsHNiCAdcFsY2G8qDPgbY/6RhmDuSBQ4lXZBmd4k6e1VcZK9RNng8JMvr1nTxbXgRcdrwoD5xLkZJ0aUzTVncO5ONiH1YoPXI68VWKx5hMfA5c9ihJqL881u2+EqPyr/uW+LK8/fj94fLj+f7+8t1z/3/80GmPLh9J9d1/);lineShape=1;strokeColor=#FF3333;" parent="1" vertex="1">
          <mxGeometry x="503.46441948540144" y="162.4192202894528" width="12.964966846084826" height="18.687911327760776" as="geometry" />
        </mxCell>
        <mxCell id="nm9v9BbhIRKBIwmMx2jB-94" value="" style="shape=stencil(7VvLchA3EPwaX1WSRs8zIf9BFSZ2xbEpY/L4+4zi0nrVs9uLLzlxA6NmpZmenofkG/nw7e7T19ub6L+9PD/9fvvX/eeXuxv55SbG+8e72+f7F/3TjXy8kQ9fnp5vf3t++v74+fXvXz+NleNPfzz9Of6Hv19xweU4QNH/8/oD70L+7we/vi5/uH9clpcCy2s7Xx6dX5cHVwNb3sOyXFyo58uTC+ves4v+fHl2pS7Lqyv9fHl1oa179y6X8/XNSVrXy7Tt4fo+z7atLy4R43SXZV3fqau6K+v+h/HJfvR4cXWWGjgR54bgQl8B1SVGnugK+FdNShwcsgt+BYhriQCa86sTpLhGtjT4D1vqc5PHAOXYCkhKcnIG5UVez5DStNshQMI04gYoLggBCIZNqq6zL+T5zxugu0aoLdXVlXtZhYCYVY0YVi5lmew6DmUl38rWnOgXklpp9XTWU5HoVzeBWfMW4ccAcWl1XG6UrerXtJq1eOeJH5Iq0mrWomYlIapE6KuVilANSNuON0CiopdV/lculeKExMMgApyh0XhQIshq1tJdJ9RQIjTQ7TB/cgwoU6c3gFDlU7+GlUs1O2FW6hjTVWWGkE+JUGFL3EpKBPB07TS5DSKs5Gt+GvoYkOYRN0Cgcl+yS2u6bZFyaTBndVwTGqKlughbyjPFHwPUiCv5WplZ+AwASbFpEcC21Cf7N0Cj2qqAunKpqx/IGaoq32qlvuWkY0BwfiVfjzTt1k2rN4BQ8tU4d7wD0C1F1wQBjdVWgom9JxfZGWT+8w6Q+RfwDInKzACs1OiZBpACUkBAYWYVDKBenCcRd/CFQkvKgzPUSZZTQEVAurBSQUC/2BJ8QQtlUs0oIBvAhVkbRFznh06zZ9kBmNyruEdBAJPKWs2hO+dSn8K4OzQrdFVJcUs8oajOYQApNVi7EcwZsmvE0xpf6Ac1NDm0bkCMLrFiXY8IiV0BTPm6kfsuvMdqB0LGqPFGtT2A+EEBkKevARjTl4BszCqErQqo4V1W6tNNewCJaQX0ZAD8DN1YiWWg4P2BIzLjxlZ17gHc1c04orBTtykSu4BgpYCqezApKBA17qaWHv8FCbnWsawcKkDOoPUURlClraIKUzVKxnKWVp146MYTdZ/d8E5c2ZhI5Ruq9bcgPCtnqhFXtiUtXK18s1lRiUaN2xyVnfU0WApUGhDal0UDYF/Q3rJCyBXaNWnLjp7e8uQZIJtyhvU0CsBio/CBoBlhdT46GYCEAFaSDYCxEgsgBdgqkTUQw0pGBBj5kjflTJ5yezY6Qam8BCCXFHAxnLFfYGYNONwcZmXkC7Nt2wOYlcIU9z01SAAlMxkfAP4FsV9gng6T/ft44BGHWfEy4mp9JwCL7zJ9f0pvm4HeG0CBke8wRHkAYUOtAMbWI5lhDcSBkCm9uS5hhXURQOppMQAeoiG/6wvvBtgGoswR7FkGwixa6GWR5rhumlHGVs2imLLqJPzZ+AfFuE2ynM4pEgLYWHrUGuYLrF6qzch9o9PNMdYzxUllJVw05Gt0pNsyXtOoWVkH3prpBwrtXnucSXZPPlZKpzlO2k9zWLFep0bsAKx0+Nlb/iDgf+gtbav4s7c8YB9UJ4kWTG9ZdgdozHPbcP8HK11VASsbkc2wkplLNzq911YRhvGD8WwO1/C5wuAjGz4WbNl3zj8bJmLr16kyjaFuRwATS+1GsfruNEirJt6MADrvt9V3o62fAlA3Loa6tiG4GBvbYvpiMG23dDH6Dvhe42q4fgSg43sLuLggCKYQzTRTH1gp0UL0wA+JPnc4MGuaBfwZIBolo1vykwh76WOO88asQpv8Yl7CqLZldunXTPWtEcKvFdGsnt9DVix1W6fyXcysfFxcsi8UlO9xNcqvdyFnNT58VICHLQntIErCS79RmrIzCJaJ7cIPAdPoqJZZQ+DNm7BO36nkjq9INMcw8o23BXCRX2hDoF0QlIk100I0Z2zMxnMH1mcJFnEatKz6zvYxgqd3R9ljotYIYRf5qc3nExugTC087UZXtiq7KmtfM5YCyi462UjmDNvjx2OA4JsnZRcdPm4PxyYgN/78J+DkO/MGOXnzQpLPEqWhCGR+hycVy/Us9I5DCl6CZ/4mVBKqd+q0dJCIpXHiV6Pi8SVm4nO4WPHyVckS2TNYwR5Ffc+0Nfq5gQmQLYkd9yjbrH4DlPkq8BggOBoU/mQjBByrjcebrKdBZozXoWyKgK8Y4/ae7mQ9zEFi4HMQ8563Ux/Uedu9rS+0ETVv8wJvErP5/7k9E971VXrciO+QMm3G7DtYqo4eX/0Fmsk9Tro9fS5n+m1PZzdbMtotJ5bxKLue3pl6lHVPLxrMfNvTrtljPcEzq0dt492pmhktw5d3s3emIThC9rSGDUhgT8fyAWe1nnZbATt3T6933v17DxfL9Q9vv2Lx5f7h4fU3NPb/jr+SoT96/XUO+fgv);lineShape=1;strokeColor=#FF3333;" parent="1" vertex="1">
          <mxGeometry x="514.3739768121565" y="184.0406978052912" width="29.78688496714767" height="138.28371724189756" as="geometry" />
        </mxCell>
        <mxCell id="nm9v9BbhIRKBIwmMx2jB-95" value="" style="shape=stencil(7VnLchQxDPyavapsy88zj/+gikC2CAkVwuvvkdnyZNwT9xY3DtwmG/XItqSW2nPSV19v3325OQX39enx4dPNj/P7p9uTvj6FcL6/vXk8P9nTSd+c9NWHh8ebj48P3+7fX/7+8q5b9qfPD9/7G35ecF68dlBwvy4/5CYl//nl7cX+7ny/s8/S3GxfJRB776UCIEvyBNAkphkQpBBAKNLaBEhFclwD1PbgZ4CXrGtAzOLmPcQolQBSlBAngDbxjZyqlzh70CiRhaGKn09JnUTiodj7wgSwc0sEUJ1ongG2aXKsNUkDD4EuqR09OGmFAOJIzZ0HT1KjJSmwpCyRBM48+IpxSJXuoczJF5Mo8WCnlMucfE2Co3GIs4dix0riUCwOc2pUlUr2ULb6GoAWpDEPXtx8Ss0qLlCABw911ODLAIe51OyU2B6c5IyATI7VABoRwGraeBFoxgAsWw2Q5z145waRrBAhHVywNVVksnaFvavkAyCxJVXRigDPPQSIXL22JB8RoCT7OgBCXUZTWi7pAKBcGSTMp1QbT9ciOudGtRJhLKB4SpaPhZGrBW72kB0nJhWdPSRHT8m4Ms3EZE0uMK7Mo0NtXFmlJgoo0LPMA+P7jOTamxzj+/xCk3Mk+Yzvoe9aR0lkDz0RZoCvEskeasH09omycY2i4EFpHCzVyhw4m7kYzZQ2BrCtHnhDCTiRxRHIFdsDeUc6/Jg9ZJ7S2cfsYT2Bjm/9/bP9NpOu7CscKE0iOx+ofkdToujghmd7z9ajgxqe7Wl8I56PvZ+tJ4krYM8mQ7NPkNKDL1f2FRrhaKVL+3k9YbxgZQ/cqDwfElZYpA3HzrMo2DOeM3s3E2MaImsVXxhF0hjuV/kGs46th7czGNc21lvlf8Z6ZAKs1yOM5bxbepxow0jAlX055NuV9j3H11E9aPbVgz2byC1eCe2v1CM0ezcCsrKvFewjy/+/tLeGAfvl+dY70hzfQvmqHu4INkm/6qkYX5N1ZAMmTyAAnneklvCWw9vExgYJ0zPzkfaYMS3b0IMVDSPdrjagaDKtsp142E1DTOJ0BQS8GCkx9k0cri2ogq/YObr6ZbtOKDUTF7PNWu/hNkhZ8qVxJju5nFj3btid6hX1GzFytsjM6vm/+oUE/q9+/2H1awAQUSarlFWQQ7lsBVH4wAMDg5VcYiVXRiJsRe0pHZu+dvMeUuGqyzzAjBRpU7Qt+tmD6lCrq6YV50j3u/Qr1AeAeK3vwlW7NXZljdePq8qdXM5cKUA9dEHOaQM86Hbz8TIgSIEmV+jwnNK4BtkC5+k1dSxjxRug0BakFXkpRXrFa+MOkEB21EPXWwBIdGL1m+DdAG1Q28uBQ8XWNTFJJY8XL1ayLPU85na3J5m3Ve/OntWzw4v/wnv0JsB39oWs3+H3mmdNv7AHRdU1Fknrw+jWNRaJl9l7tGeSZLtA2F0nsisOhz2h8Dp2I1t29qwq3eGjX6NN6m+/Ql63t4fnT54fznd3ly+m+//jJ1L76fJ5Vd/8Bg==);lineShape=1;strokeColor=#FF3333;" parent="1" vertex="1">
          <mxGeometry x="543.5303967824104" y="325.253482870429" width="15.385313993188173" height="13.1780743371849" as="geometry" />
        </mxCell>
        <mxCell id="nm9v9BbhIRKBIwmMx2jB-96" value="" style="shape=stencil(lVjLbhsxDPwaXwlJ1IvntP2PAHEao2kcOOnr70vV0HZF7Y6Rm7PhrChySA73wHdvT/evx0Nwb++X87fjr9PD+9OBPx1COL08HS+nd/114M8Hvns8X45fL+cfLw/Xv1/vm2X79f38s73h9xUXhWpsqOD+XJ8EcvLvwZer/fPpZWXPQiKDfSZOwN5TroO9D1TKPiAwpfGA5hHvA3whP96AGbqkDngeADGTB4BKcbxC0ifAXt9WxhAJebdvn0jSYF8KpbxvL5TGC1em6sGFo81BrcTggODJ5wEgnlIFgEIljIBILgBaaIrGHEiiCFyKjvxIC8n9yTZAyEULqIBHSYjdCCiQFprVGC3AgTy0tE4ueQBoec02rAGEtS7EXCUuAurJUlsLNTSVIKwKqAbAJMAldcCNLlXX62P7DpqmMQ8lU0Hlqe8byVeYCsqDdqAxrMWRAJdy6lFfKrpSiYBLlcJ46azUQC0g2HrQMwuouOinPhxhHjjbPCigos7tLDXUJdhXc/d43ffAHXyiNDXKiACxv28FyODSbdZEC0iA3l7LxVsAA2p4NyVOYBNQh0d2K5USoJIe7609YpJG0PCiwMbqp+rJGRaDhmgGJAQIU0xVM6Csse0xCgggRkokW256AgKox9MdMhqhZSOsKM1es1QtIGFAmBONEleoVguA3C592KypigvaOQtA06QJjWQBGQF4uvSNgvYTNeQWvWeX0FQXO31aq4f1zNnao6an9hMvMqx/IwHU3qMIuT4s19RGtPgoQPWwNwAPlZWOnlQtADWAyFOQPFTEyXVeLoCAJXemaBoAd827LQHC1DGU7AggE/EyTHRTh6bFCFaHOo5HgAobVM/CdvEpCXY9qb3HLQDpq8QOl5xtGTVCusok0yuWVqqAxYjo0KXQniZORkQrH0GY2h3NqlGpInkofaNdAFq14NKpWlmyCtx2RSg52B6B2hIXW9V6CQFFGsROB91mMgiTLurOxDXBzOk4sTtf6JvvTuszU73qE1BybKOq3AuAGRNXWwkCf9zGFiAgB6EP/NV3gwCSnG1fjQnSqCmxkXcc+rTYUwBmTddNn4FH6pLZAfRMSLtkZU/su9Y2r6Mdt9rJAUvj1PMcXIjblx37fofWqmxF1c26zB+y1wW9WHvQWqLYjcd1xbRnX2x8IrDXwWlqzMGppvbJ2gtahCf55fuBu+/Pxh6VZPNfjH0F/nz0c+dte/3x/9vq4+n5+fppdv1/+y1WH12/4/Lnvw==);lineShape=1;strokeColor=#FF3333;" parent="1" vertex="1">
          <mxGeometry x="571.4760342804807" y="319.5083031437754" width="6.790052517247932" height="17.861999390965867" as="geometry" />
        </mxCell>
        <mxCell id="nm9v9BbhIRKBIwmMx2jB-97" value="" style="shape=stencil(7VrJblw3EPwaXRvNnTw7zn8YsBwJUSxDVra/TzMC34jFN0UptwC+jUZdQ7LX6iZvwofvd5++3d54/f789Pjr7Z/3n5/vbsJPN97ff727fbp/tk834eNN+PDl8en2l6fH379+fvn726cu2T/99vhH/4W/XnAqqh3k9e+XL1qTXP795ucX+Yf7r7N8nOWrRGXyqczySVq9Lu+khlneS3TX5aO0Wb4Wuv8mKc/yXlwk+0mS/QQoeRzpFOC9+DoDHF3BV3FpAuQsLl8HhCB+tlk2rRGdhix5BqQqga1QpQIgSfIE0KS1GRBEiZaiSgSASiF+FI9/D0CsQw3nACc6qzWaKYkdDFDcDAjiyKGjlwRbUqmJAILkeYWu6EAAUdLsS6GINgIwM8EK3HAxj+g6AEEacY1YMAEEP0LqGgAyQHASmOGq6BzSQWk8GKDMAItyZYCG7u2LNOKtyXxpTgI+SyNZKS1JwKeRqM4BAfNSz2zE0ikOV3sFYIdOBdVqmaoRO6QmHg7tJJM0Y1kIQtSyP8vdOQ5HGADXaMRZYowAKFRLuWIAuUwjrqj42b2tABTiGmU5tItSyBlKGKn3AFhaIIYraYT8AfAjj5wDirjZ0s6NInYOMEvPIep0hNQpoDosWY0WdauxDViABPb7psLZChbiJLFW8wtgAbTkVuMs8/7L+IFz0qCooEyLlXEWnW1s0U/23yz6I8h74hItDo5zVJ5Ru87lM1ZbizyiH+N0WNkkMlLVMAMncWQ/ThfaaZSHKdT8C1iYBOLRJl/RgRhD6geAoFTuEW0JezeWvAbIkIk8LbR9BQj7MJLZG89sAOqlSxnsAJJN+xmWLW3UCnTEADQQ1kwUR+m95qlAPB0vgwbAMxiAncGo8rolDtAVwLZUFktvDm2UKi1q5SvgGTaGKyP/vNU1CpKFnfOtRcrTvqqvsERc3JwB1Hqk8atagt5QGgvpglWw8BNk7G15n2fyHrMwI53WWTtg2lKZzcI43kWesa/eiQOplcyrZi0g78nvW+cODZij1MtYAnBmN/rca6wFPYjKG48Cim0Ox2iUrvuhbLaNXHiRZ82dyUfUj5L95yU3Hga5Jg+si7fkJg8lTWmvmSv6v1IWYud1GeQd10/G/bMZROf6HuUZr1YssEr1b61BxPOyOmDyDX+f5YfisX0yfbL9e2SBShNoWeJdeaPisXgr77XcSE8XedZFmDxWMVqIzV4F5Vk8mrzDeGQs1vwtLfvZ+LPD827iBe1biP5P45H16xVJr9JRru1f0Z89P29c4pfHF0xZdCx4TT4v8cXi8b3yFXmZDge8Wl9QnvGBmka6eRVfrMtdRm/cH6zLbahPyhKXeu2ofY0PFOB8dP/WtULX7cUxApdxgut5i1VwdhPoJKYze+RXlcm3k6aV8bGG0yrjh+/qKTf8sy35bUNwreEDgrKh0A1vV3Yk/UcPOgA/etD/Qw+Klt6MWOwM7xviGAC0tBkTrVvaDKIKkuTNpCujsxY+CsyY5PPoMt/Y1yfxvGltKE9Hmcfk8rIfdsfQlku6QpuItjRxhWYLK7KQXiolyTVjk9Jozq5HTbrIV3LeejjkKwcKbDbvsKqZi7JZrNEioO0GYHdbJZ9UEdaIlnQSyGzyUSxsl+zFSqe1Kninkne9H2avwpv7upyhjjvBc8AxAT8AjUZ+Xq8MlfKd7DBVGGFjDVdqy7VnoBOcfscIgEgvelLCi4yeLojh0hL+m3zU3yEAgBsuOQy4ywONc4BiG2UhSrekJxfcnj0DaHg9FBztROJiuOD524eFYATOF2IZF0IHINE7xpiRL4RC2X9/ygArVJpmYsRxRVSaNWJYnpQE/tBg8aX+pIQB/NmjFbalZeSS+E1sdJjuzeGZt/Z3NLMdegwSgGk9QYGu/C1QwkSWPZ3DBcXbUsuFgWzJkopbnlgxEmO5Got6phfKVtHAW6vn2RvN0IfZ7EnW8Myjqnt6w7o4Um+OiRE8Vp/NMz2PXHvzDHD9/UYV6pEV9saP+LVbHgw0epfhsBXurSvzCHTqxl8wuKUXUT480qUn3ALKu3a0PKDbnFjxRdJGo/pOiy1FbeMR/+Hh6UbePlxeuX65f3h4eST7+v/4Kta+enlRGz7+Aw==);lineShape=1;strokeColor=#FF0000;" parent="1" vertex="1">
          <mxGeometry x="497.66247773778764" y="171.0868224570766" width="20.0769763423561" height="68.51572505718987" as="geometry" />
        </mxCell>
        <mxCell id="nm9v9BbhIRKBIwmMx2jB-98" value="" style="shape=stencil(7VlJctxGEHzNXDuq9+6zln8oQpQ5YZpUUJQt/V4JjRtEJwY5oZMP1o1LJVB7ZRVO8c2X+w+f707Bvrw8P/1598/548v9Kb49hXB+vL97Pr/gp1N8d4pvPj093/3x/PT18ePl988fFsnlp7+e/l6e8O2CM1fSAgr2/fKH6l2IP//y/iL/cH7cyAdX/SRfmrN+LF+cxVk+u2DH8t3VNssHl8KxvE/j3wOQu/PiBb67PFuQs+vK4uTirFIOrjUB6C6UGWAuCZVidKlPgNRcESrF6mxWKVXn6zEg2QjqCiguKgBMtBkAL3kBqK4EBiij4ZOwe8O/frsOiM57BngRhwwTCwOqegNSI7OXirABuVkDxyGLNyD5G9mAZBFuRXWlXS5FYTTK189uzd6lJADR1bkDIL1TFoDi/A5QRQuoSGayIbosVGphOHFTolG8oa25uWkCWaR3qwyAo4NoMwBQ4OC3IOIAQCJAk421FU6+FmW2wmg/e6l115QN0fW5zfTkqkhvAEilXkdJHQECAZqL6g1oMwTozlTgAtc0AKpVNj98sgF0kd4AUPf2Zs6UEcYzEa9QBQGA7wyIInIVz9v5VVkNAGUfIqeSCQBWqYx3HgGMAHmU+eEb5hGE7FO9EoA4d7Iex+g+yj6bjUYR+hslV2eAyTd0G816LergTHQyaBzn7CtxNJLrgF1R55VBXQeUMQO3E0XkEgDEf1Ico/sIUGZAbHKywwabAxf9yK7rAEyoOTXAuZSX0Ohsdit4bFONqYxmvRZ1kRwOzToTD5W0FfJ+TiWwH/V8zBOifHIkQp54cbz5/LljBBmz2ric15gcyafZXiwSql0011ne6+LPgeRv9GAr/Hzdgmm02aByR/I9kH+ykkfGs/9l7/LMhtHrlP5+jMnX/CmKUhnnT5bNF/Jx1r+M0X4Ur0Z7ntQH8oHrq+h6rKyP2l8WstXJXjnOQAhpV9D9oY4J/xqvpuuX9qmg53FlruZd1fUYZ//brf5G+thw2OEw5uebyOclHzrL63pMrI+sl1+VRz+f9fc2MvZoJlED8llaDDZDlw7fJfvAXI2zi5BDUZEJxHgexKHKpAOrJKMjdmjRtTZMdzPrm5r1fWwQa92kMTmPADRosNAqPt53kzI3uQGDfvR5Py1V+zXwbMKKG1Qz7cxXsItVBSg7sryuVr83r/9889KL1JXNSw+2/9/mVfsu1CZvqgudolUNJaezj25IVXtpKQi68CD7dEEYMYwk0xVGl7ltLOdAxbHz7ra9ssrrgDA03gCiUslG39rcweR5sfKEQHNVUw4+qQTQRA8+8XNq5CxnEDSmLT4nedtezve0ekVZ0/tD8nLAVIDd2g9AUdfzOpahDUBVXApMPwFQMysZ05MFIFIj1nHJ3togVIo7PgO/KSoQ1u6+vdoKL4GS08zKKwu/DjCeu8XLTwagbHlX02rNACkk2r0c4BUv5vtO9TpuHIWqOV9gi5fru6iewNd/yCflIT7+Q17t8X5EdCsvn0/FDPkskshGeLb2ihzarQFLk5XPp2ELeS/6nfFQqEl+Tdnx5+XzioiXjfPhRl4xHuPzIGaEuhzbLl7+hj6/9jn4tjx+eP32/On88HD5dL39P3+rxp8u37njux8=);lineShape=1;strokeColor=#FF0000;" parent="1" vertex="1">
          <mxGeometry x="518.2521102955461" y="159.77634638444067" width="16.875313835188717" height="8.628400758954012" as="geometry" />
        </mxCell>
        <mxCell id="nm9v9BbhIRKBIwmMx2jB-99" value="" style="shape=stencil(lVfZctswDPwavWLAm3xO0//ITJxaU9fOOE7b/H2gqlREUNpM3nTsEsTBBTi4u5fjw/NhsPxyu15+Hv6Mj7fj4L4N1o7n4+E63uRpcPeDu3u6XA8/rpfX8+P8/vwwIaenX5ff0wp/Z17I5PLEsvw2f7Hkwr8P32f8aTyv8Ymca/CJvAF4R8Y2eBMp+H2CDxS43VChGPcJzlMyDUGWSGmfYGVLrcvRUAY+G0exJaRQo7ZJkBjFBp8DWbAj8aDFF1NX2A4qmTZERVZg4IAQQktYltgOkexXWXDkQYhcIacITLYAFyTNWccoAgtJcuRbgqlebRJKpNxlzYCollTrbEVg4EPJ5J0mWBDWUsgYTfDIgpR+Z6FYSCiKEGHiJkJpCYkYW0gdIYDDIAR1GlImRnnIlLwmII0RArMmRJSHRNZ2BGRBgpi6LQEVk/OVOx/QiStB67CE9X/u9wgmagKjPAhBJU6UGDkdOqel+ICMleX3ihCQD5Gi1wSLik+aDWvCJ0fU9CKAzkOm0llAWi/l7TsLqP0IIUedB9QdDHNX36JtKK5iojujHgtTcJpQ8JHTqZZBAhNspwIBq8DXCMlprcyeAh5l1KSRC6wNz1RUG/VQyWzUTU4KGA0/0qhT68PUAQBBNKJN9KpYtrdUS20xsMR5E9+VnrhcwHFgcq2yyhyAtNvpjpgdLu0qu0tVCB6NPllPAZGhxDj53abA+yqce1Wh2pXN0IJPNYJL0kKN2nahGopt0mIdebfxts4Ii4E6wO7O6EbhkQNhmQUrnmEOBF+MwqOZJHgtqQwzILOk0eszODRhEegVHu0/6jmPYacVYWGv8EjgJyHS+wkYr2Y2ESbkr9SjKjjY0sIybn3gM7qOfPUO+SleHj4urE/j6TTfd9f/9QVXPs2XY3f/Dg==);lineShape=1;strokeColor=#FF0000;" parent="1" vertex="1">
          <mxGeometry x="539.528486020114" y="166.95486467837475" width="8.873592818961878" height="12.161973245841546" as="geometry" />
        </mxCell>
        <mxCell id="nm9v9BbhIRKBIwmMx2jB-100" value="" style="shape=stencil(lVbZctswDPwavWJIggf4nOM/MhOn1tS1M47TJn8fKKpaEbI20ZtM75I4FkfHNy/7h+ddF9zL5Xz6ufvTP172Hd92IfTH/e7cX/Sr47uOb55O592P8+n1+Dj+fn4YkMPXr9Pv4Ya3kVcr5TiwgnsfTwJ5/3lwP+IP/XGG986Rcw1BpoOrhMoUQ4P3QhEQxFOWhsBMIawTcqTqG0LyxMCHmMm1PudKUtcJrDFpTZJEMa0TAhOnhlCFOANCuEKoDAiOAreEOgX6euLKFMQZoQCnPVNeEKqATJNswueNBrFNwuAxCJG3WR5CGtfxKmxv8VwQPrSFUAsV4K+nVC0+APvjwv4M79fbqsVHYL/3tpKVwCBAPk7vz18ApayVbkWaKaO6WZpUyCFCmCQzIyQQpLBoR5pljyvTylqofOGDKeVKAeVBZeYsISMhRZK8qDRUCWpSm7hZG1/R0l/lz14Q4EOchsYMn5DPduoo3oPu5Ra9QuD9iyGlskC9aCteKLfClgh7yzBV25TpyIEzyk297d9Qc1SAx0lrt60EnVpIp7nYfqdCdEBFJdiGhCe/4mP7AF4tFC9tElQl6H6mWgweaagkkjakGlF0v9iG6uAM18XFWzyyRyXDYvAonlIo5w346kjSBnt0Uyv2fuSv9vLgN8RTS9Z2IWyPts3YfV8PW1fZr/H68X9vfuoPh3Htnv9v92w9Gnd0vvsA);lineShape=1;strokeColor=#FF0000;" parent="1" vertex="1">
          <mxGeometry x="547.5746406837802" y="175.4954368695623" width="1.760323720829001" height="11.274293541220867" as="geometry" />
        </mxCell>
        <mxCell id="nm9v9BbhIRKBIwmMx2jB-101" value="" style="shape=stencil(7ZzLkhzHDUW/ZrYV+X6sZfk/FCHKnDBNKijalv7eKI+yp+ui+tTMwgtHcMcHbncmEo8LJLKf8g+/ffzp1w9PKfz27euXv3/49/PP3z4+5b88pfT8+eOHr8/f7E9P+cen/MMvX75++NvXL//8/PPL33/9aZfc//SPL//aP+H3F1wMYQthh6Xwx8s/hS3F//7DX18An54/3wHm3OY8yMetZJYfB/m8RZYf9SBft9xRvvWDfN86y5fjfqNtuCEg5CMgba0AYGz9uINYtpEQUMoR0JbSHgFCOwJskQToa8ULYKcWAwLicQ/7sdGm29bSEVC3MBHwp5ndAJ0BVQ0j2abppOtWj5aRwzb4G9JRrTmtXZ0D7FzFtsuWSK1FjS/XrZM3ZLWl3LdMgLRN2bRpqSJA/L+YlsgfwjYFkNDjhvPQUrYOIWaYPxzPoTQ8h9G3dDTvMjBojKY+XS0M0jfYio9Lqhb2wONG3vLRH2rCIDDi+u8boODBjbDl4znUii7aLS4JwHwQltT70skNYIoGB+rmQKLWsQz+HHALKjeAGQuYdzfjO35DY2ttY2vHg2sJ1dpMJ0ePa3kp+hyQlzHfAGWroKVmofeo1la3CQdnSpRA1jqmrP1cj3HJ1JBhSWZqRdQ6cdNmzLMoYILHmbtIILOjrHDS5pD1+A09rqx3CihzBcY7QCWAy6I98Tc0dSAD4DdUVasZPBmfBcboABVMw0LvEEBBJlBMJ0MBlZYUlsvfAHUFz1NAHkr4DFDANCyjtaqAAUvKzS2pYVyyrDyrAigD5exO2ggR7SGtLd4BGu3BgoDsYSAvNrKjS7J4DtE7jcWOboCJQSA1tVZLMZRQkqk1KWCA8RmHlJO2rFdpD2kl2RsgsZbilpsCOrhoCsr5LHNTyjKmHY9qNW5AWopDia4BBthS7Greo2KYsWpB+JLxmwRailWTogEGbbpouB/MBAwgsdUARH9idoCBdaUVYUHUOlfNcg4IStaNyQaqdJXnmjyFJePZRx3NyKxV+ZtRcWRXWy8qT+uxQkHkb5z0nJdoYW/yZBRNjciqGypNmnraXj4Ri9HoYvVZhv06ozb5TqRHw91kOlzX/97JE1etaqBWVGNqXqu9k0d2ocHU5KlrYPKynrGC5QP5Kuu5Wfgj+aHyyCy25uQb77erfOfPzypPIagsbd/Lg/0UzU17qwv1k708npeQ+Lte3QOAZKZrQHA7phXlbXp52HF2EZc1mrUEvjgxY2nu8zuupzsLYouLUeWp7jKLEI8ZFxakEddyHmSkqiXR7vEY0aXLYfLExNv69jt56hIaaZD1NOxmdZfxGu63u/NqWwT9D20/WAaYKN9dhqGMN12EsBMh2hSUgk9uZhsgDgcg6ueaQNeA4gHE5MLa4h2gEN8NLg9cakkD9a1z+xDg1ErF1imAAsUOqApA+moAp6XJm67vstX94BxdoZblbhoegPy1OW8mU3LtRJOnYq4v37rnT8hfJf9dRJfm+NMtPj2QV1/jWxfPLztGo6pXKHv0hWh3xueY3+j6Bxai+YT/kV8mbXnv2QncMmmda+snfh9XFXx/XqCfeBaIqEJcp3NXz0zQZ3BsImGL3ztkxAI0uPqB2Zm7mLWKOOHna0E8Vo/pkXxx8qDPsLjAnTzVMy6X7fKsH9cBoHojrGrwzZ9f0vvWr72nK/1U9/msf8kAl+db3flm8JegLcnBl2KOGQxmo0FvuC46NkEv6cZAIhE0fu7ykF/COs37/bL9O/1T/+LUH1GfJ/KoT78ejid+v8TWz/RJ1x1B2fS1P3r/Yn/08YTt08WHiPr0/kI9/FN/ZH9/p7zcgA2unoPeo0y+AIsaDy1/IbN31VXGvnRyfKaivyRXB7RFwx/IT1fdUhmQ16jFG/tfeXWj7vkVxJPb9fudPPVnPX9j/ummTXb+jP3E4fgtxf/muhEN40nXeLLXC1idK5+s2I0YrpvC13xDr/r3oo0GU05KsEZ88nt1/ifge3X+/1CdTxddKPtNZxgN2co4iV4Vvd/3/ih7dJ1x3Ktn7BWe9C5p0MeZab+q/sXoBkb36ox0rHrxUXQX/fNEzffbkO+3IU4+OXk4sf/1bUhe3bd7i0Z+pp8/kP/l1f15o0dmdz/f1zDUo/PtKk/rLye3FewBejvTsF4t7ryYb1U3X1BXLn8gr/VAXYOHD+T1NqTg/ELTMcZZMKI3FyEyrr85f8k4IO7nHXh6u7v5Ap4MdZOkVo8RN5uOQ9xoyBtJx+CQHqPmDKtAcbIo6QjJ4JZxzA7QcR4xFmVaBiCjjtV1DRp/Q3NtyIphen9LURRAmTh2fWgwChcSQ7nQyNz5dmTOAETmUnTTUQnZ0N6MFy1FTB4WTXNXQCKAK3dHwLrA37d0zmepu9nWiQ0Q8zgdwuQOYA76WKJ3vADOSXuYBqCZqpw16HVuCuTi5qQbZ9m2guINUPGaI3e3JK4A89BEbgAK9MUV1r2su8JzgJvaNAAZX0kaZnrG3kAxshAVQM3Y4vh7T9wtcunNANQOLN68I/K1Mt1Jx2WO5wndj24H/Ib9TYsD0DlUO4cjoE2s9WvRS7k21hDMOaDprZYBiAXUoZtuDUv3/QGJPGWoONfXsnssUZCotqqVgn0EVSL7aw15vxGRCXTXpGkcjLt7N1Dnok/ngKIOZIomNtndY4nKTKAPzUCVn8VYNhC1Vh6stowmNwiVJ1yHa0mbwdPTHiMKwkHNpRI9E6sayMzLKT+MplVS4Vul/VJFAA2pg5HOdGRkhV+IGK0tx5RVLp5NRq2ULGPgK8ikzax8aw6fA7J2CyzrUSDbRwOOm87ctNxnnY9hJvMzAANIFjUyQS5q1Zr04/PF/HnVLLqPpNOmq1b0r123c0DT53p7UUrf4GbEjWfim13/7jjipePrHdGtzTN5D12592uBcA4Yek8TC86V72M18pw7YeFnAOlkxIDUYU7NojwpNKcLSzhJv7+Rl4fQV2/2JQJc/iaANIMvf3NAPj/g5NV0hUDgXvnUq+LAVuoGQQMb6dTH8RcvT6bSKu5cvrZ+3yw/3rkeacVc7leu7i71Od95XlP1Q/bw7h+5eAPA/vD6mxq/PH/69PKTHPf/r7/BYf/08vsd+cf/AA==);lineShape=1;strokeColor=#FF8000;" parent="1" vertex="1">
          <mxGeometry x="459.67004082911785" y="190.4418982865148" width="81.11191502684451" height="108.54958899806324" as="geometry" />
        </mxCell>
        <mxCell id="nm9v9BbhIRKBIwmMx2jB-102" value="" style="shape=stencil(7Vnbcls3DPwavWLAG0g+p+l/ZCZOralrZxz39vcFq/JI3KOznjx2Jm+2jDWJ22JBndKHb4+fvj6con57e3359eHP8+e3x1P66RTj+fnx4fX85j+d0sdT+vDl5fXhl9eX358/X37/+mlYjp9+e/lj/Ie/LjiV2Aco6t+XD3oV1X8/+fli/3R+vrFPEvNqHyXWY3uTUhb7ZtLjsX1Q0fWAptLJhUKS0hZALRILAbiDK8C6NAKIQUJdAVlaIABDH2zz6n5QPYZhAZQsRq6U/f+tYc2dpiG3GcQNkMSID6VJWAsjVeq0VUlpBSQJ6RhwTdMExC6ZON3CrMwN4NVFTmhFbL1SzPOT+4AuFU7wem/HgJ5FDQGBVGtvomtYY5FE+0F3XvstSSL6LtWpSCdx7bYrpjjjcB/gf1699uqrLHPeYHGtb88cOaFVsRVgkYbJWSWtVzKbXXtUG21NxChgkupRTAEBjQOgqa1JIolrGavPAUZowwFhd0IzAkiSKwJYabQoLe0AzIcdkzmAlkYQMwRk5kO4c4KyTOtM003ijBWf7vJQ3zvBIKxe3qxa/QQoPm/RTp3ua4taoGN6ZHpNXCl0jHq1VhhBOifAUYvW9YTs5chJAOZuahJJprvi3PU5mRiRqRRgY6NhdYABt0YpLNPeX+tkv6qJQ9ZYE+d6pbITwgziBghSSS2NYl6vVGYU7tubNFAC0piAsykstizQmA7ehfEjynSDMzfkgGqlcf81yYESvcenrqNE6egZfNXBnk10F4/Qmko7swZsA5fgTCbFyT1Xe0aobg+zNlAuqmkef41/JvGvmyK65jfz+0N8Mp2zbg//v1Ae8ngmrH/WYFXRX6Md7PmF+NvUfEf11iveh8RnzJaC/rJ+N8kB48nq01AkpBmwQ3tQqJR03R74J9D6cX/h/krF5pAD2L+R9yMMgXf6Uff8wOLv9VaxHwvrx++03+sbXxDYHM47eSOVxN9nHvBtpwu5rzigJEKhDdx3QjlslHoEAA+85FjLOKCsJRcrX9OK6JpjVxKdkETfZtwGcBpgV4qoGTN/heiKW1oJc+c5kh4I2JjjSKBB4nyHCky7/1iJ/gP8WIn+FytRgTzkKc6PMh0grIEyvVdrgsnso5mVd8N3v9zoq5yTQFujlAMnsojiIhWqRsYDFbzK6azfI+aLsENVnjinGdALjT/VbM+CNw9axhRe3T1FRvpQ6BIgr3lINp/d7gMUt7SslIxLwBOy0SuNFzVQhZFeyfMKssfpng0UDyL2Q6QvvK4boZbe6WkXdqCEh7YhJ/huDPPBU8l2u5Alrk43vo+HHZGNDZ2pN1z4vUEiSUOWsnrQ+XTIkyA2+07Vc5pa7cbeiMMJA+T2jdw/4ii5eU8+AOjOAUbD23J5eyGWsfkYcOsw4SPFb3dGQMn9FenLE8YCpPiA7/Zsnd29xnff90hJ6y6elRLF934f9769/3D98u/L+enp8t3h7d/xy0L/6PJFY/r4Dw==);lineShape=1;strokeColor=#FF8000;" parent="1" vertex="1">
          <mxGeometry x="471.33350146522116" y="285.94949662484487" width="10.161133089171745" height="11.982368295761898" as="geometry" />
        </mxCell>
        <mxCell id="nm9v9BbhIRKBIwmMx2jB-103" value="" style="shape=stencil(lVnLchtHDPwaXlEzwDzPjvMfrrIcqaJILlnO4+/TG2bWBJbbqdwoCuAOGg2gMXuxD98eP319uGj69v72+uvDH0+f3x8v9tNF9enl8eHt6R2fLvbxYh++vL49/PL2+v3l8/Xvr582y+3Tb6+/b7/w59VPh2jZvDT99e830vSfL36+2j8/vdzYW5Nuzj5Js3P7UkV7sE/p3L6aWA32o5/btyTq7U0Ss6/S/XkqPX9PUpuznwuw+/YmXZ19NsmTOFSZyTt0SY06ZB8xQi4k5J6l+xAQQycxAKMyPaZtoXA/aT0mreBIhEVlSPOsK1MGSYPNSLuKvBEemS7aLAcwpZInaJfuYwAMiTmA2T7TDVGRPGgR9TEglSzTeEL21BgoBgIrYpg+6FGkMFiLNB/06LTckNfwhJlpvdUDW6dKIUG3Li0UHEqcZBoVl+wQAysgsDVHlDop0ZHF/JH6WGS57wDUfdBdZbIn9AOX+uoj9x0Aa6C3LdzuBz0WJnsBTdroAWvxJYoqV5644mOoRSpBqWWpwSHLGIRLOfZW9BGWuHKgRmkySeezvZPuDkobmTYpvkTRqYywFc19+his0orbI9ztsygBaR+vN/OnkSykddzdXnkAYmG+8QYA4vsU5LS62v2cyRy+/KWQcHsc/xz+KTUFc0ZRxBbscXolfMgHxuEnmF6AwywR/8rwL5LDE4y2O/y7egblShXJRgDfKnJb8/2+AyarrxqwXDPjdLFo30iSm+QS7TsbawdM0fLZKJc0YsBMK6Qln24QZV0irTG/2yOJBB9USKgxpYItyfQDDaQrJGFIcDg/ugDBv0QNP5d8O0lXkI9zDdyzDhd/nYGJs47YISbjvx74z1eKfJTwSnXalk3fhPAThUR834EVPQrQx6BGSxJtOkxvdMpMYjBwzqOKb5gCwZxLYfHCuCeswCZY/ZFsUNZVXYNuH8aJ0rpp1DgQAKzu21yKZneoXEXViBIUiDIlmKNOqyAfQWmMJXZ3B6Ob0bS46NROR9TscSJDiGXa3g+aAqsRG5tzrhh3/ZsWW+47NGm+gwFptiUg6hQ0POYsGWpYIoKyg4RWgutoka6DKxHsZiHVW2rY4nKYs0hNYn31IMkBNMtctbje3eTyrEiPj2CCyjCJRwyik94H+TrCdKh0+GMLjiunUXWBYT/C2jyWZjprx8k3fJCJ7RWbaPNP6IVeweAJI/A7ceHZ4p1Na5TfetBgqGq2cm5T2ge99Q0SA3ajuK7xTaHkdbN2s32xlbPMKObR8NnKWWuEFYdkt3ktxXUNY5E6aHzCdj/KZ5AGtdGo2q5j1fztxkBQwgBpgXz8BvagVhvdF0yjOh+rYs8KOnuIJl3wtsvHuLIxMXzcFsYaYGeXYBpGwyqNs0IIM33QLox+ZCPgz2QM1HPQq7wKYN88gyq/9CtLH/ywTwzPGhla6IaK4waCGr0M1n60p+f5n28g/tseH3687vjy9Px8fVty+//4egRfXV+t2Me/AQ==);lineShape=1;strokeColor=#FF8000;" parent="1" vertex="1">
          <mxGeometry x="483.59931955869547" y="278.25891899137446" width="6.083050835808353" height="10.17239249885024" as="geometry" />
        </mxCell>
        <mxCell id="nm9v9BbhIRKBIwmMx2jB-104" value="" style="shape=stencil(7VvJbh03EPwaXQk2tybPTvIfBizHQhzLsJ3t79MTgfMeq2dqIuSSg2+2VByxyV6qFz7kN18/vP38+JDi129fnn95/OPp3bcPD/mHh5SePn14/PL0zf71kH98yG/eP395/PnL82+f3r38//PbDbn969fn37cv/PmyLoYYt0Up/vXygzFCrf/85KcX/MenTxTfQ0wULyu+hVQoPq34EqS9Bi9B+ff7gu/j4vtp3X9voVF5y1jxOQxl+A54CSWe4+23dcFrD43sP4WoK76GQfG6nqfmUAnefrvqg0rIZP8l5PX7bYRE8DXksuIbPU+7nXU/rYTaz/EaxnqeLQXJ5/gRynqeddDzEQlxFaBqEKJAkkKHv1DmnR8vKGGsIldTEiKy6JRwLig9JHKmsou4LyhBmRJJGKvVFNsSOVVTC1nVIvd50McLWpD13nINOsgCc1OrDDlPVTxeMEKHv7Bf5bElmONZL87+ZmMLMv4FkyqRizMR++q87NwiUY2s7i+k6f+OF4zp3PYFMVRySnavcfVfpiyZCF1SyKsM0qlqFPMwq7aa/ja2oKAM0qaTPV5QQxu4IBH1Lva9Vb3FPkGOtShenC1gXsYMcqxew6y8MhlGGCBDpn7efETMuIApX03uphMVuuYgbgGjCubnMhyrxRJySrWiX5JIg3Nt6JfMyBm+z9h0w0d2qGPG7j2aU2No0UVzuv9m57Ee6S7QMT656EmDbcszdu+hhAbP5qJ5nXTvGF/x+4UGT4v1wL4sTrDgr8juclAmr9llBjyzgdbncezuMXT2ffOF4H9DJvvXiGxtp29neAg5MgU6xlsUBguj56MJ2btQ12t4YF9CvZZxSwE3FwrRB8MrGPx0Gcf4gvYl1H6NG8t6v/sBn+GBvccZrI7xbQbTG57uXzG7idOnnuEr7p+FGcsdBPcvbD/dy8u4rA6MrHHStkN8j+g/I03OumMfl3h150n8c08h1VfIa3jQT8MT++ouREZq771gMhFnFD/DVzxPFoENPxTxRB96DcXth8nbMF5ESke7y1TiZI9n+Ir7ZxSld4yPQu3L8Ip4Zu9bbQFI1iSCZ/i+6o85VHL+I85E7xa/WE4znL0Uel9jd8d38ZolxwlJZaVE2vBwXzyJG3l+7sZnmL0bfiTAJ+J/RkH/0GhiPEy8jHi2fxPP4dl9NeRLjdqv4TsUG0Jj+1fU/12gM3xH/ka/36d4d/yN6XPH88k0Xht+IL9i/nMM1GehfEyiK3cmmtLbH+hIWKkBDDTgnfGe4eMqMC+T2AEB4RDOgLZqLmSqeXKiM5VQoIhl/uRsQXG5MJVBMcgIz0q2BREXsBqpNwPZDfVsQXIyMKK4LUhuAZcB6lvbAi4Dpuf16h6iE5rqtqItbPfAFjRkE9tNs2NtaM62gPHjbUHDBSyAbwvcxVGP4TyqqTcNCV6GzH22Tpd4Z6KNyaAYFCTyKKKuJzFpxhm+rTtSmiV6F9Ao69q+j1GHtWyGq9oUvp+GNfpCC7dbFF/PJ9EWxoYXwLOswPCCUYdVbY7w9DyrK7TRLHpUZFFyxXIy4lnWNCqev3Abq75qcIHHkHO1HyzX0irPcGV24QGqon5eGHDFho1Mmnq6H8wKaItqDy3/Wp8bVp0K309F1nVxPiUjnt8XZImJVlE9C0+cstRZRLw7/ws86j8Nxa6KxLNEv39e9vbnI1fyFvw+y7qHL6tzzuj0RzjLd/opPOt4Lb5h1pdoy3gLqNAapFX4Ld6t+l/4+fdZBLqLXywL7bifRqtIGx6zRBpfOuq/cv/TMasfPN6p40yRdrA3QgAXbBbJ+Tf2BPMlBXJZCs3Uv2cpc8H3LOX/n6WoY3SFh0ydfZl9QZpGe+oDXNJBL64jCezcafTZib0lBaxU6isheXbAz/BpVaTESfKYOcZd5Yfjs9sP06KBTrVwkt9Dq3A+tLLUMUmp/IKdD26hcsOEiR2lrYgtKeuAr5yUdvw+a7V6EqX8/AsmETpHLs7wyQVNhs+o/0qHUEbGVp9y15u8vNTiBSuBjbZyR8SkptJRCcNDEl1p0t0HltoLJb1bK2W13zwN4hjfcc4o0XmY7vQ/TRZ2jG9uQocWVbobZRAalnxrTWhS5lt3l/iKSWhhrT7XetxnUY7xfvpnOshjvGud8iTIt2b53Klv/fIigG8t8yKJb11zvG+N8/1o90UD1upTN7ok1D+o+iIMuy91ozZC7UWbm8qj+mZ4JBxzg8f46obHaLzTgq1HXjTQjEkNL3oY3hUJWSvXj86ky9EcLHpQvBscT5S/aXSjo3wUJmJSyf1tc52vTDtf7aA1yPShKZLuQosehk+YpLP7bQ31rcy04Bhf0T9UPhpY0P/zVKxlxDf+/YT+v1E+0wSLfkrjb4uoz522WrcxeldkYO8C+gwPNzwbfas+kYw0P69+KphHvOqHzfaR2eMF2dXxEr3jmhyHyLSSWsVVOnkrpEZk9bKPRBwuKAPH6qXSOFB8IrmXw48XuGqeNFpNKi5zEKUduNtjhrsFrMZQsqtXdTqXVJKrVw0abYpgQn8xKZXd4MHGJ9jjg475c+LKlxtWMbcyJvsLxQ2z8qc72U2bmk0zTpcjcrTM51mTq5Rm/jrLdgxe246BWdyWxaxCZ14s3WgHNCv5DIsMVO9S+YsxV2jcXheQUCuu32GOhxX0txERGPuqVFtF3Ny48hYwVtzbxSApJgeNs52G5NrCNWspuo5H23vsx/bs8INWezJ2/Iy+sVJvRttUXn1KOAelfNBNkAxqp2xBkBx1Pjge0cdbuslanBGLYZZeM8OPWPzYygnkviIWby5flSL+6tUqkN/LV7GIv3p1CxMfl6968fuDVjsj6s9WLuX4jPhO95PdfliLKjoyOC5e3UIx727S72yBvHKBuBPiO4IpoEuJo/s+P1Hs4V3dGL7bvtKI//qOHPH2j9uj9fdPHz++vHm//z0+crcfvTyQzz/+DQ==);lineShape=1;strokeColor=#FF8000;" parent="1" vertex="1">
          <mxGeometry x="462.1060633593646" y="189.24407419404633" width="93.30336472905438" height="50.00374870818778" as="geometry" />
        </mxCell>
        <mxCell id="nm9v9BbhIRKBIwmMx2jB-105" value="" style="shape=stencil(7VlJchw3EHzNXCsAFNazLP9DEaLMCdOkgqK8/N7VngCmkd2dLV4dus1SCaD2ROGiH749fvr6cAnu29vry+8Pf10/vz1e9JdLCNfnx4fX65t9uujHi3748vL68Nvry/fnz7fvXz8tksunP17+XFb4+4Zz4toCCu6f2w8tS6v//fLrTf7p+ryS91LdLO8llGN5leYn+RoltmP5JDlP8qVIicfy9m+Y5e087li+4fmz7ZiIvkEiAJxUciA/1uuAlLuN9wFN/Kxy8lKIC0KQOts0VnFEh2AHmI0Uk7hMAK3bcACCFGJVDf3EA+A4IEuZddAqmQDsAHHWwZaISgANI0kjjaRUNoBh6F1AzuLLDPDiWaxa6APA0o/sUC0QdAKYZ3wggCJ1Dr5gZiWx1IK0gjsEEq1WHopDpRMDtB6bA5BEieO8M6NA9HlRpkTDYLKEYDnazCiz1slOyQBWFGdHWJlR4ogWpc06VO1pvg+wv+cMMtck7jmIvmYBzHTYlu7KzeolKwIq08FsMrvaPBPYDk5aQ0BmZnWSMgLokbb9rdH+VlsvQz8O8PqeI9WKGbQoTRLCALrZgeWoARxYyRxHmvRSNioClO1ggLkat7HEj+5QaPAZQCG8Xe9iR4A471AtgZhZi6R5hzJy8AgAnT0r5TIGAE8nlcDq/eA6o5DZkU4A0FFi75OHgDkfjBwUFq2mNADcWSz5WWlvrmQ6mE3maPVRAmujo7gPQOhL7AOGm0YsUc6XWy+kI5RoYKTae8EIDHEk8oxpAJdJ3Y378nlDKSUQJy+EE9iYRMZ8ErI3lcTWTxh1lmlsfTvPLG+dhUTEou9c8FwvN4f2dCDP7iTmr9BA3hHuaeQgBJRn8bNpOk4iI5IOO7OnbCT73lXv8qz4mjzEvxFbEp8mr7O8ciLsO4u9xxsj/6Yv1PZEi5bZP2H8M33NvxA/mdrT4gf4o63P7qi5/706P8v33OvZyj48v4DFK6WzSz7O6wfKQEy+QQHtbPXo/NGDPLs+mj095gv1b0Ea6Pj6FYcKJ/n7Tnnj9sAyORUvCftF7JxwX77hPTDxlqqY75XW24VsQUf1/PIx6s0AZDqCaJsKdMIKDADXmxPe0TyOIE6YzQKYk/6EO90HV2t2xkZHHnn4Cf8zAPT5hWFyKyUgHhZ5/EgwILDrSPt5Cfx5Cfx/XAKrRNAhU+ZofkCz8ta2RCvMp08ybjOnKY6S9xY3l8BKbx/NyMScQNGC5QQA9CvwaVbEjNPSGdbRrAlqqyq/01Vk/MrNalYHsy7DV2LWEnFwaUdigLwZ4WmiXfruptXEuTFa6LAYa6MX2Wg0ATxtbZLsoLVXoVWPY03RVNxO/iOpS+qRekaudNgeqfLXi4RVI3mqg5EvhfeR2A29P0CuGN6LK9kLTMK6ZI2dJZBXPFIulDoY/4IZRxnvSvsZhzewwmtAwbZeE7VRwuyxFGc9N4rOxGTpDSSOIt4ATpqP4ljKuhsrMLqZDo7nnv0g2nSeRvvCJuZWrxL7Ht70wtZNfCAPfaeNl8ldeYd5afKJGMjhFaPxlyOHdLtVykdcn3Ct5D09P7zpWOtnd5j3vkufy9uH+yP4l+vT0+0Nff0/PprbT7cHd/34Lw==);lineShape=1;strokeColor=#FF8000;" parent="1" vertex="1">
          <mxGeometry x="558.0625049858306" y="168.30524435215756" width="12.222721147755328" height="11.609894496298148" as="geometry" />
        </mxCell>
        <mxCell id="nm9v9BbhIRKBIwmMx2jB-106" value="" style="shape=stencil(lVfLctswDPwaXTEEQBLkOU3/IzNxak1dO+M4ffx9oWrcmlADmjdZwpJ4LBbwxA9v+6fX3UTh7XI+fd39mJ8v+4k/TUTzcb87zxd9mvhx4oeX03n35Xx6Pz6vv1+fFsvl6dvp+3LCzxWHIUAIC4zCr/UVQaI/Lz6vgMN8vAFUAZHGHhEkOYAMmNoLGEgcQIRaGgBnYHQByA0gVojZATAkbAAZIfmAkBuAEGQvBgKJDaAQFHazxLUBaKKzl1aG2rpUC8TwMaBkqG2WaoXgxCAZwgaQnRsyQUQLqA6XokBsg76h438R/DeLN1eU+DEA1QOxgOgBAlCyeS0ONyJIsPbo2DOUTaG9uglUc36G7JyPyiS2gOBQjwpQ2281QXKIEVUhggWwc0MS228dgKik8IhLhSGXkaC1QXEorYuMmRj8ui0hDhGjVKsZHeYV7RUa4XaWqwN3dk/aVLrboFrqYq/wNIC2OuarDPJVte7UMSXCJq1e4ZRKm0J7SjxqL0BtwJ3RoLrd+t+ZPdmKame4JShtPjvTM1nWdcazCt7Q/Cegtvc7C8bgAoMQW3cQquN9skqEwN74IMv/4HaYHpeDsY8OGXQAkhh7dJIT2S5Tfv+mzdD37VVSxNp7/kixO4Ifb5Hr5/vyqbugyY9fL9WCNEKH4X35DoA+/FvPX+bDYd3ub7/bdV5frX8F+PE3);lineShape=1;strokeColor=#FF8000;" parent="1" vertex="1">
          <mxGeometry x="578.7168124125133" y="170.16297325666858" width="0.4775079874736548" height="9.413747199457339" as="geometry" />
        </mxCell>
        <mxCell id="nm9v9BbhIRKBIwmMx2jB-107" value="" style="shape=stencil(lVjbUhsxDP2avGp8lexnSv+DGULJlBImpLe/r7YZL2vZOcDbZqOz1uXo5l28eX28e9nvgns9n47f978P9+fHXfyyC+Hw/Lg/Hc76tIu3u3jzcDztv52OP5/vL79f7hbJ5enH8dfyhT8XnCNOCyi4v5cXgYnl/5uvF/mnw/NGPlIx8oGyvy4vFGsn7wuVeF3ee/L9AT5TDQCQycUeEKjwdYCanKQDVGixOsQcwFQc8JAnzp18IpeBvJDv9QnkynX5FK0+DuqfKoVi5B3QP2cSNvIBfJ8DidU/JCBfyRfrT/B9SRRdH2B1KDhACnlvOZqAR4uj2gM0hohzJRD3LkqeAvDpAujTIGsQgNGqEvdOyqWFcW60WBs4Yy9FCqEDiKMMeMpMtY+zRkZA6rO3xNbIQOYps3svFQ9TJ2VKfbEoCXJPc80CpLlhnvyVck++6lr6zQGRak+NqvmB0j81n6yASBHYkLS8BQtgAFC3ireAWkHgUivRK0DdCoxeiJAtIAJ617XJbAAeqFSFZFApApVqsRmnAEGASsmckCmCwCmg9CmqVnkQB+/cEGqGgdAjTGlVPxRwhAKCCXWhjAJRbH/WT3jkJm3oxQISchPb8l3XnJoDMgW2ANSA3ri2MVpAraxjQmjLQCrF4QSB1XgCYEqgzkxUysRIpdHo1DrAR92aGuOvBs5bAGpyE2ooAFFjJF/CbB3pnTFbxwTKcDic5yjqcpMyIJTBEZNCU3ChGUtZaa34o8WyvluOh5RDU/2nAUuHSINKICGWHhQsIOEux0NhYjQ8hCHlKsygGO1gv2HLfBjIdih7I+ScfjNuMFqXVjpv6waoTJ5bwmwGGtSDlnWpt0FHpoqMZjsMFJykOgHl3gYdl9+ZgEJPJqmwuuqwbYwWhsNxFlssJcIM4mDjsEzTaDguViUW2BYltFq6AiKs35pyZl5XqxI6gW1CLH4DblWAoYZGBg3Hss5s66IV23QwB3i7K+oyzWh0Fbv7eYHjyRI4s10GuJnl4b5BYMLpjpLNFtRK4TwbeLgxcW2PmgM0f4u1oACNtCqV4YoFdazgbWP364o9LzLS1oU1bL4l1NVbH3OHwNBoHYN7J6kXAuCF2IqxeA0wdZ3WNjcCKNmyvVNSebT16ejFVr4A/aPtC4s8WkMb6TfyaLLSf4uVRzXb2XKn/syA1a4V9DW+Ferv2t6/kUc3AcPUFgrc612bZFd5gR3ks9ek78vrw9ud7MPh6elypbv9397h6qvL/W+8/Qc=);lineShape=1;strokeColor=#FF8000;" parent="1" vertex="1">
          <mxGeometry x="585.7307293974363" y="170.43012952968883" width="7.881941253749756" height="9.881119658520493" as="geometry" />
        </mxCell>
        <mxCell id="nm9v9BbhIRKBIwmMx2jB-108" value="" style="shape=stencil(7Zzbkt22EUW/Zl5ZAHF/dpz/cJXlaCqK5JKVxP77NDIBRe7mWUd6TJXfpDO9SVz6srvR4Ev64bf3P/367mUPv335/Onv7/79+vOX9y/pLy/7/vrx/bvPr1/sXy/px5f0wy+fPr/72+dP//z489v/f/1pSs5//ePTv+YTfn/DxRC2ECZsD3+8/RS2vfz3h7++AT68fjwBxth6usjHbY8oX+NFft/2jPLpKp+2HkC+b71d5MtW6fl9y+Ui37ZC8+1b2C/yYysN5Nv687E+ca3AI0CUBU1b7QCoW5U3lK3RlOsWBdC2RkOyJbzOOQ4GZN0E2+VQERCuk97zVhMAkq6S7VumSe866RS2RIC4pesbUlpbfw8IW7muUipbhkl3W8Sr6qWGkzaArFIy5RsA6Ns+LoBsswJd6ofyHwCbNAHq1q/mmXnjDBBkSGUbsKz9WMQD0LYAytfzNqICOuy0AfJ1WXPfCr0hbUNWaWwRnIYB/qebJwAZUN+3fn1DMTdMumReNCiggV/qcSvXSZfIbwhb3xXQSDWC7nSxQcKQ2lCLMwBtXDPf3a+AhE6gNdWlkte63QPqWpMDULZIbzDlE0BdnuoekJYFH4C27QTYVzw+AH2t2z0gbENWaSCgDg0o1VwlqHftunHV3AzsdG3qyOq+JdiHekS0A2ABADxfzare9gt5b3teygpotEpRl9UGWQgQ1M3UumVwArav7erIbN1o40zVxPPZzpBNmzKL17C9jzSkpEygHvzvHrBrnDZ1zLBx021dh9TiFkD5svMaBiDvnR2DM0CHIeW6tatNmw1G8HwW0YQJGCDTHLKSEwNUsIdsfy4KaLDTFvfFGRugg4lOZuHeMOANqbudTrhxqWrm0BK6yuSXNWGukfyyJjSgtCsjM0CmVYrLMZ4ARH+SS68M0MEv7V2dsYWYABHIeLA4MgMkekN19pAxQzFqriaakcJZyiaerxWMcZYt6LLa3oM9WNKZgwIaKJ9ltZKGGmCAE7CMR3zr5AYwaQNInDYAzSH2pTknANm0AYKoRlvadQ9oy/WeAJR8RzPRroAMns8Ae1IAzqEo/TFSR17DACErgNQ75uVJT4BCQ8qLpZ4AHezB8nNhAsZkiWsYQAK7AXAfkitSDN6Hgx2dAI2GZM49KYDcvQFEW43vE5U2QHIAnIMRrKwASmkMUK77YElOpCHFteonQAa/FI1KBwXgsgaN0wYYNIegymeZHVHpsZbkJD+orLGc1iF/ULr7LE4Jn2XLNB5jAU5+gD23RbIP+YJb0BZlPslT/GxbvHK3Xtcv9yzdKR177aqxcFZE8Pliyd1cMFhBVUPuDdOSsqjsId8x1BaNgyZPxcOi7KKz6yoao2bVi4iqRpwRcH2yulKTJ2edldaOiLmtaftQ+UHMXPdr7JgVutgxK5vEONXeTZ5qJMnNNz8Zj+zvKJgRJqXYs1hMrF/576gYNnanD4fFPZIXfWi4no7xz4I98MBd7X0cNdYH8mJfJk/+cNcYNgb6Qxe3TZ4KI0kzfpMPKC8VsymP+tB2N1+099idPMw3L+52kif/n519dUzQihb8TJ7spdyMJ1HJRePplAd9KOvs55vlJZ5OefCfZdVwT/Kkb0WrwFOe6jlayB7MvoueHM39wvl6+Sfx8bv0p2iRYsrzfJ1/IP0vzv+wfRXnfwbmS0VZ9+AKn6tfzwNYiC/Z6dvAQ6+slHseCIM/T87/D9SfpDWiwZlS0rqYybM/v1l/GI+rZEz9QX8eXLwolBo6/tORL0Xln/NAG5+v+2X8k+okSxvP8RT0Mzj7bdhvENx86/IwD+TVP1fMX4Ke1BmfoQwvrKed+NWA9Q+rWHGSp3zE5YPG92h/g+Z3g0vPwfG3iPzf1S+Nb5O938kn0J/g9D9geSdoOWjwQWnQfGTKgz8Mms+aPPErv57P5Hc3Xx6PVBUH9+cc2dN5PcHfBu0YGOGJvXh5OoK9Gw+d1tzNl/z/3XpSfAlaH5jyqG/RP5/10+kD5RdBT0anPNujGw/Fu1v7xfW/sUcejxs/+6vg1p/qFWFV9L7dHp3+0NldcPkRlzWDi4/Pxq/+/Nn63Ngj2/t3ymu8i5hfh1UNO8cX1B+NvwnrRUHLyjM+4vOVD2Tk58Hx8/LEn2h+XXE80dl7Rf7jusxmvQKfX6vKU/9h1Iq1yVN9bHf1q/6E36o+9NWw+ag+k1W+gP/09YqO+pm03fIJ3056rPe1gfRB/pLdeKjem129rmM3Z16nkN9cf1D/09cI/6xXvPxZr/g/rFc0lSc+fLTjnesVWJ/X9ef6qusNHdzv7ev5A/lhcvY4lod/VJ+PKk/5WnLxiBu2fP2cz4Gd/z/dIHgA0ARgcAOMS6gGGvCdfMTnK2Hq3GriDoQaBozdKVB7Mv7iDjDIYPwBAxMOf+BRF2V/ID/EgZYnBTVNkLg5KN0URCjhTNrYaYSy8oGZyO/Y6JMc4dsxQGY3X24JyE7/Ix5QZVew44QzOwJ9pKCPHKIcSA9MyIvOt3fsaCgrnJ/kSX+KEtze8ECoaC++yWdYn6oFgl7RwVXtMZ8NAdTm6xoaKu5vXat3yBcsaDbXs1Jwv9z9o/6kg10PAHrGgOTuT5k86dvQgl1PmDAMbRDr3Bob3bUDA2BXXFgtngcgcsoWtBndAMQ5YtQihwGw6O7aGXvArCdGpcUGoE7XuCtv6gHDgAHkILgx8Yi+l5YdS0yuD5WPYgwgobvxWUx0yeHs7OO+O2HfjU+PY9Zy4ryjws2G2tPM/ToGEH/RGh44RN813bhnrbo5sEedXaLuDdTIPftQXacrNdXMTtegAHJKBtCdrjyH4RomuU/MAKoaZR1V3vMoVwlrfDN1loYcgFL7SU1dTzNdS5vNHa6RG+eQNTgbgLKhGZ27AugO2OxelzkkpBezQTEroBK/Hm5Iz3v83T0FmsO8ReAvNhAF9l5jR5tORZOEeZuDskZvojte3kuuj7PtXHcb65jiBKBbBPNGSlcAVQLnnRf3Bio9z1s17goLnZXl4vrjd2wgnjeDZJUiBpTcnPeOeLyTh6YLjdOFEtwqBbxqWnYlJy2g5yuupbByRj6vTF5XqXZs5C7uZlB9kgO4qxOVb0J8vdB4ACrec65R+2prwXOhmvTgsmbU1uoqTfYIsrhadKcrX+myKUoq//UO4z2gazNB5bt4dWiMqwGJrqmaRNHCVyeau09YOgOSuyNcsR7RXEJcnnSYV3UzJWOJzdiRKF9JGHZb1xy68E255rr8C3chz8secgs5Yptqd+duBsCPHcTFvw5AwIsKM2sbCsA37OqMM5cuZ+IZFEAk0QBNvl3AxfXurhIZgCKQASS1zNyObMm8xIcZk+hWfnFfRyjoZnrVEyCLq7hKTr0tcuMqdfdJiIi+tXdlM+nJxjlykhpyvnloLl+dKVyliBrjEjvjEbVulbiRYZYt5cM5fHNkJF2lWUskQNbLSvP0mL8LI/mDZUWF3lD0do2lggio2p5g6Sx+F6bqefdM+ukN7rrsLL7QPjR1AtzwOvsxhavjgdNwCU1BWjzP0+TDNmjP83xMvs2DsWQMvZEQsUFhnkddI3TAJHS4r+AE5Nxj6G18rm9P+aHyPF8xm4AHnFNex0/Uc8r375MXu386HrGxp/OVlOTpeg4dPzas3H1RjBTi/hNkWMD9zm+WfQPA/vH1E2m/vH748PaFtfPf9ZNq9tPb59jSj/8B);lineShape=1;strokeColor=#FFFF00;" parent="1" vertex="1">
          <mxGeometry x="416.81800998479844" y="185.10847182961624" width="168.05283615673798" height="113.40857887196425" as="geometry" />
        </mxCell>
        <mxCell id="nm9v9BbhIRKBIwmMx2jB-109" value="" style="shape=stencil(7VnLctswDPwaXzEEQYLkOU3/IzNxGk/TOOO4r78vVJe2CFmbybWTmyxjSeK5ALWRm9fHu5ftJobX42H/dftzd3983MinTYy758ftYXe0p43cbuTmYX/Yfjnsvz/fn36/3E2S09O3/Y9phV8nXKAUJlAMv08vNJDEv28+n+Sfds8zeaVQB/mcSWRdnqPfIAdisAE3anEApEShrQNioZoGgBSStA6wv8N4JLEj1XVAUlIZAFEoAoDZJI1HYu1aXbeqqTjuwEwprwNKoOj8RrUA+UyljDpTAhrU2hU8q0wMztMiNR69Rgp80NQ7zRQuQIHWiJ0PmBQAOISFmzNlhltIHnVo0Kit+mRQiwsEyKSjlcwvDWSPmdVFXlWYbrVRGgFNqILssfVSGwGVFISqAVzkmd3+Gfo6wEJvARAQSwYI7AGKlE49fWeAinYwNyUPaMBxNVIcQ2MWXtcR7BNo2gIpYXW3eADKiNIoL3bIYIdSqakHROBqA+RRa4sNZFcDiHpAUghw7DDlFAKkheeYMgJYnRvNaoaGVhIfTGoRj3cI4w7ZShmyUux8di5MFXKuFfsyKv1GtVdbbzQr1x7Aa/yTx5Qz3g4AkNsilmA6WCWVUWftL9Y4mkf5DM9j7NFc7YYlg43xk5PPKJ0pu6ak4697rNPAhW0zYFv1qxubgsOo5ynMzeqpnztHrJzdBZtFH/CU8XJx4gJI1gxfm5OHjo1UxMuj9vHsx4t8RIGgnmwCKch2tsB0mQKrg8mrtz5imkneO7cgfYvvHAV6l7O3f3rLnr4pwutHysXJo3bC4sH5N/UFVsIteHHUiZfehV6sg4LZUoWdOEpz7XPGxVcJxL560zAMteLJNFBDnZwPnAAnCDN89InIKHFjH9tmiQiK1HvlU+lFbGYdIJ+Tb74jVVQ02Z8n4Zpceh079+okKNLY103jJAEHmkYyByiwVS/VN6FTvKK+ofmQsEYDFUNrjdSxLvf0XAPUZbOEAIu22JZA9aRGHxbW8PHHQPMx0PwfA42Z1V2c2MAuyHPJK23h1dBVTul1cXbpoADQgp9PVPDlD/u7meniBPjBAGn0tGSYo+3cxJ1LH55PTOnsimvEKRd9UudePK87ung6qX3QXJvh0ijPZlTEV4sp0WY4VCmzLMaCRBUwehIfScLw0s6c5CjX+AQR0DQHjYCU4bQ+9QjjkYyA4BwnPfbPAIVKV8/q1hcgeZuGxgOZXxj52Zd6k0dxoT0IZvIoOfMVeejkniZzeWBQ6dPATB5dZkTvMI2wf2dPVCaPuqTQm8CZvxCxhcXtDcPzLC6Jpz4R6Bv8ZY8G2CG99/vK2/L2cPmY87B7ejp9C5r/7z/+2KvThyO5/QM=);lineShape=1;strokeColor=#FFFF00;" parent="1" vertex="1">
          <mxGeometry x="429.3871289655517" y="287.78705841793953" width="5.400692852856082" height="13.304079447790718" as="geometry" />
        </mxCell>
        <mxCell id="nm9v9BbhIRKBIwmMx2jB-110" value="" style="shape=stencil(rVfLbtswEPwaXRdLLp/nNP2PAHFqo64dOE7b/H1WFWSLS2uMAL3J8o64j5khOcjD2/bpdTN4fjufjj83f3bP5+0g3wbvd4ft5rQ769Mgj4M8vBxPmx+n4/vhefr9+jRGjk+/jr/HL/ydcLFQ5RHl+WN640jqvxffp/j97rCIz5GKNPGZgluPL5F8br8fyMs6oEZKtQF4BcR1gGMmbkuQRJzhEgYQCqUAirh8bwYkJimwS9G1XXLEoE1Ja0wNoGhVoOpY7Qolkwcr6KBNDbVQSACQKIoFVJSSJx9aQKXA64AQ564vABnMQZRrHQCl5LVEw74rW26zSTNgu0QBgnCeWCwgeTBqO2mNR4IQS1YdQwZz85S6eI/mTNzqrWbKQD2OZ54tAAIWcDo1sQBGFUSqJqU0u9TtFnWCvgMIQpG7lEDRkeeZLosGDhCV212XCkgpZqqd3DwgXrx0fUkMBJBZK0vmgTmoK3IHQD4Z1BU78cDBOQrlS/pUesfeAkBOut2ELqcM9Klz8DZeADWEcrFjqEDPft4vlz78H+OTNTDdGBxyPGcblNXxQEfHjAyAIUDUklqm6vaJtvTgyLUApWIEaut3Ej0CONAkZarpkp4yAiq6WrWNxEL7Qp0TuB6UEE9VOi3t3J1wtse2iFRgR6YdRkKm0AqfZ5LfPh9ZY+F5212TpOGD0gEoUpP1YuKRWfuLcS7i8fYRuu8j8vg+H4d9tMsHOYoatTkz89ywtZNaMS4K6/3qmf9+vD5cLxgvu/1+up8s/7cXEn01XWbk8RM=);lineShape=1;strokeColor=#FFFF00;" parent="1" vertex="1">
          <mxGeometry x="437.2186821878229" y="279.3293499486699" width="0.7625007930424544" height="13.60317555806805" as="geometry" />
        </mxCell>
        <mxCell id="nm9v9BbhIRKBIwmMx2jB-111" value="" style="shape=stencil(rVjbbtswDP2avBKSKOry3HX/UaDpEixrijS7/f3oeXIs2j5Bgb05Co/F6yHpHT+8H57e9rvg3q+X89f9z+Pz9bDjT7sQjq+H/eV41acdP+744eV82X+5nL+/Po+/354GyeHp2/nH8IZfI85TKQMouN/jQaIifw8+j+Kn4+tMvBLHTjxSLNviPlFOnXygCF4fhJLr5B2lvC3Pqq038s5ty8dKIRp9PHh/8uRDJ5+pAvnsyXEnrx7494Z1QCEnvUJCAdxQPOU+YCzECQJqH4IYqWKVpI+BRKhSDlR6pyZuYV/3aqLQR039JgAgtXl9AqjfEECsDYXbyTpgyssJkCkjgEa6N7pys2orlYyXaoRGq1uNDVVasqzXZrLFowCuAJApVQsQYEMtrRpngAJsqJViXz+qZARuVYDhI1XSIYZxU8XPEAUZUSn3oVazhCHAG530BFldiNkCUoSBYGcBFdmgrFIXAJQbYolscANSKdoaVQAjL2mBRevWjAHBWYD7GCBTQPnNrcBm2ScIEG17UIBDcZCWCPMKQjco9bEFwILIi1xSAApcae1gBsiA7zWu1q2pnWwWULaAAlRar1HEfQMNmCtKK5FNolkkE+rUA5WZUFfYIQayFAuAo1JaZF9trfj/ALRDhF6lmafXm5CzjfQeQvtcWigVQLCjrBRdBjUUedFUGNKrzi9serVGHxRdTFTNNCBQJXEk5gZ1AwKI7XNZGRpPA6a5p6mq1gHZzn0pQOLIbLuWMDEa47Qz90xzb1BMlpp4YretfDWjqG4bFTR3HRRjb4MveFDMbX6ZAL65YT01csuc2/6DFgLOywUIjVi6L0j/foH6+No62mwfAzHwoaXZlKnQQbFNOrf6b9PQur2Uq5VHgwmTCwt5wBbKYMnKI1L1tjBVHk1W0+0zeQb+dBQNecEScORNE4Hr7aINFugcZ1eM0lhmQzyYJYkqqEZnaTdDEvWLnQ0uth/8rnBXXB9unzBejqfT+AVk/r/95KFH4+cSfvwD);lineShape=1;strokeColor=#FFFF00;" parent="1" vertex="1">
          <mxGeometry x="440.0493807422406" y="279.63660073844005" width="7.475731283878486" height="11.197878490075528" as="geometry" />
        </mxCell>
        <mxCell id="nm9v9BbhIRKBIwmMx2jB-112" value="" style="shape=stencil(7ZzJkh23EUW/htuKwgysZfk/FCHKZJgWFRQ9/b0T7qjmq5t4B2zvHKHdYzNvFYaccVHv0g+/f/jpt/fv4vn71y+f//r+nx9//vrhXfrTuxg//vrh/ZePX+3Xu/Tju/TDL5+/vP/Ll89///Xnl3//9tOUnL/+9vkf8wn/esGdx3lOUDz//fKHMY7U/vuXP7/If/r4611+3OX7EVA+hrt8PVol+VTv8uV6whP5Uu7y6ciF5Fu/y4cjn8/lw3He5Xs/2iD5cp9vL0cC+Xic+S5v48kkX+/r09oRYD3Tke7729L1xify4y5fx7XCS/l85HSXr0cF+aL6VtO1I0/kq8ifx0jP5avqT2lHg/G0I973t9iM4nP5fsT7fpVwJBi/WVO8yWd7Aow/nEe+TyCbAcAGh3DUu0XmeD1iDYjHuE85jaMTIKsOpXZp4RpQVElTORooXahHv88h5eOkN3Q1mxTZLMdx3vU0BdQjA4ghGCCRYZ5HF8B5LfQaEC7FfABUcHVm+y0rINKQzLTuymfqOMBZmzXXrIBKbyhHbgpAd1eP6AAUP8xAT5lD5zm0oztApyF1t0oGAJdhI14AyKeaImQHAOUzZY7VTZrekBYbd8KkzSCDUw1yM6mqIzYABdrUNfLPdaM5jIUBBZhDDlem8gDo4LvNMXYBmPOEfchZvb3tTIJswXx1iQroBDDPd18l20qKDxY+zqoAnMPQCGe+NQCgWEqVFNApRAfNqaa7pxzAUhDZB0sKwaZnTBZX2Y4B2lqKCyhmD+BbLUsQR5ZN+QgwdB9MHekNlreIiRqgESAe4T5p01+KQJZJiT0YAN+QL1/9AKCQVc1r3Hc6J3QzBmgOEGgOLj5MAOy0ASQoTgDoUm2LOeAb2lH8kGgOTd39BNA+dDXRuay0D/0y+UcAzeFV+x8BYKIGyG4OJy3rUIvbqEazSq+8ZZUM0N2kyZG1sFjWDaCdbwJErYZ3c4guu9+sUtRsZrMPVt5Fv3GgS80liXMOELJavszleyedj+L3gQHDeb5Bq1SuGuwBQBmZAUZUQKU31KOcCiiQa1hZfro5UL5kgOKGlEn52mIOlHu3rnXcBIDXMIDaQ7yMdg0Yl+Z8Z8hqQwP7BJBqjGtfvxPQTxdQ4lWSPwNoQOFJd0tDkwOAiRpg+FUCE+3ROWPeaQNoBIrY5erJOePNG9JqlUCXer5M/jtVwwCLSdNO56O5fYi0D8WlcBFroNnKcwCKD71oiW85H9Wivbp2Ebcne9NU2vLWQnNo6lsTN/h6v5L/V0BnbR2ur9Fwp8epvjVV1KURtLS0goNWyQDdlTTUIxtR7cGqrAI7bQCtgeLlPNeApK4yvbqFZwAdUsDOuAGKVIqvC/0M0KTrMLCOM4BEoNl1AN86smrr7KfSkLIm67GxaljFfl+lWDGKGiBJm6IcEUx0AmQOGcuB8dpQfgVE3mkDyKRfTxWeAaRCiVy8GkDqh9CxTTGcbw0bm85qcaFcjucZYAjAloHmUFSXQkRHNg+S5A1WkkN8GC6r5KMfk5ezn3Y1nZ/J17tiFN7m4jr9GH1MvolaYFJs8v1u/wGbv1P+/vyNfykaSU625aJ50omtsSmfRH6zPkPHTzXxqFpEn9jxmfJF5Wl9qlaTJ+tP1R7uibXklNfxBDq6qup8T2x+mnzU/ULXu5AvPB4n3/j5sl+Bx+OaVZw0T/8gWcXOxUliVLCqncHvLs9Nzxnw5WweU0GTl/U0h1jIIUaN9wagdNYAtSsgbwBCR8DT5Jl23UfUtzOQ4/Or7/t0ie4TqHzam/Tks1wPeJoQSc2yk9cjD17PrOOJeEIyo7Cc8vB4ilbX4YppT0OkqBw2RYbr07wW209d1tDn03iqhmzuyZt815BKR1SjuYM8PEox+SpJPh7ujO71B11WV/0p2Cw3eUk5CqdAXUNqvfLxtfzQSo7ZI8Odyjc8Mp/yWeQxZAzlRjRM1cPp+FMdm6dLALWj/Ig69h39jDs2Nv2K9utE8pl81+d30qChQbUj2WTKJ5EnfpDJV30+Jq1DLaxzJ2DosV3fabR7PiZx46pBvmkcJunjclAPFsDr0zTiYZI19MChcVU1NKnfPl+S9O34xxvXZ4w3rP/SIIlUs3oBhrChKcdWQYcwCHcG0PX5GwPrzuA3BqwKvXEQb5U/VUE3IaarAmEnwvzl3YArj8fxVl7LpmchWwygcJXRNOXISIsxeW2c76o8ZYldC/BMXtpTiedbr27Xt5RmcMrXVB5bTa+t3Ad5ThGVEIPHBLMzpfMlQvJsrmmKRScjswN5H3/hXly6pvegb6Q/yXeZ0F9ZCXOfb+eUPul6DraXpAzgjb0n79Aj6U9WhnfhAFzUXjb6XHR/w1WD/tH1erH3P7pe/19dr6glLRFG/PoE7jJVR71m/1YcmYMLHteFZjLhcGesDQ9xZxf9bi8DqVMzHklL4UQu7mwLyoJG9oj+YCLvDiYkBIdNmV3UJkNjJ5fVSYTtyZ42jk7ulLkDohi4UM2uO8s8JX9mFTPyMkbWUmweyHBDVznRm9wya/tr19LNqkuTCM7HmcHx64lq7sPxvIWwOSV259DYk0vueD/iFaSR1B4MgPYQHds37Y73lU+cOWkM2odMBbklk6IgQ6ocxk9t3qeGR+N9OE5DRz5Ad725NJgf45uL53UyvQY0x1gOyJroVXP9zd2lXpQuvyG+frt99wBANpcnBSW8kLegHSW+QeaJTYm5Vp46lZhr5clZCU10Qf/iImpBMEvImlhQ2BKmVQuS3GZInoa3mbQn+m1Uw1MJE8a4BVmRd3pBh9y+4W2qsaB08qQXpNHElM6m9cgEgD0siK9bgDdRnHRdvAG5uGWh3tS0M0B2+4AEZJdg5Yxl0oJEnd9K0+bG0YIIvnmDp5ozIWVBZmfq1IIun6/q7xlACfmbOXjKf2a6vL9UkJmQ768tbN7gL0bwxi2uXvAqLS538D4sro9kbKosLqhsAX5ZSZcWl2w2q+Sv8fDGLS4KZcxbF1eRMhZN87KTN1G6KOQYXeZmiEJSi5YDE0BzyO4mRcL6oa5SB2KdzGttzhlTQ2ZenBNAxDeUoVeGJ+ua7iM2bWFmLvHn9ULpgQx09yVropuYSzivSEp2zxX7vIQpQ6rYVyqedV2uALAEzIukrmiim9jZX9LPWD/keq3JA4BcZXZ0knkZlr5WkR1znO/yzXtErhYlxtC8lOzKYypeTXN00oG/0NGV45Jea8c1oLrSkluaybfQmU+8vH6O99Wjo2kPtIfFFfqB58aLS/oD+0uLzwAMZPAvPjTAF9wnHdjNgdhYkzzjNo4CSnS9yt0XIhw/LHGJH11publzPz9aIW8IaNOTgeUu6VNPILoEywA0pOAoMqaOFIFm79Nf7gA3E7q73JGQpxSq681k/iaL63pPKyeewyoC0TlFSC6V5sZgCIveDJHjwqnt07y5I+CqgY7srK69nxLRfJqmxRbn6SiqKrOgdGxRFPX0ldmPRR29ZWfUZMmaKM0Ulj4NoVra+GjPnzwndhZ6UjpLfbJkTYd7wKwqOKpYwc9IBL3q0wcWJUGrnhHQ7E/d39krh/1yie23s+gn8uLdJzcE9N9/S42pSq6/NclpOB4J4oPvi53a1x+cNftvxw2kmpxasA3+3NHpTj5PPqs+tXTZA843jki5F69ssGfyfkVxhVSjB+b8q68DUhxbyRM//X/4+uBG3n58+9ThLx8/fXr5UuLj/+unEe1PL59VTD/+Bw==);lineShape=1;strokeColor=#FFFF00;" parent="1" vertex="1">
          <mxGeometry x="426.1874167428741" y="188.98779580516992" width="173.2507784274363" height="47.06820664342986" as="geometry" />
        </mxCell>
        <mxCell id="nm9v9BbhIRKBIwmMx2jB-113" value="" style="shape=stencil(7VnLclQ7DPya2aosv73m8R9UEcgUuQkVwuvvkZny4bg9p3NZsILdZKIeW3KrJdmn8OLT7ZuPNyfvPj09Pny4+Xp++3R7Ci9P3p/vb28ez0/26RRencKLdw+PN+8fHz7fv738/fFNt+yf/nv40n/h2wWnEkIHeff98kVW8e3nN68v9nfn+519llgn+9RE07G9qsQyA6o4soBmaX4GFCnxGOCD5LAA9BgQnLSEW2I+hyqa0enijgExijaMaiQ+xDp+bwMEGtbkxcUZEMWTFSwmWRGQyAp9x24BZAJIkuoCqMeA4qQuAM8AWWrAKJVwDKheEkTJD/5eBxgRZrZm2yShRvPSgHxNIgNk8QCws/cE0CQ09KESH2yFMieQBboRarQgcc6HkiSzKDUEVDdO5jogYlhrlkC2VExUZkBTqYUA0sjgDbDpyHVAwIzrgSY5bYDgEZDJSRc/mLMDNBIlA8SZreqcOLYnlVaXJYj0GSDlxQmiAgbQZQXPAG7xutIcNUCuCFDmg5ME3CgS+QogTD1FGPvcwo0sjkhfT7BZXFsaKXIUVg9kijRHTfoKpFyRRthXFZ22nGokgywj/exDP3tCPlMBIF8XVxIl0xkHdTdKJCfdYzKvEMsQkiPpgxWiimPimlFcQ5LKATrLt3UTmW1p8cFaqEDY2tV4Pgfr0QoLq4502WSjUPJZkQOnNUhiJ725uJ20JMY9tzQn9BSMmZDRacj/kX2Y89P6LV5NoPyEscEj+zirpNLUMftawJ7JhcUH6qcbJ3KUy4r2bP9mD43VM/Ye4+9G73fdPuB+zF8mLWF0mrt4Mn8Dit2mHIf2cwbE0bAf2UOhTaPKHcWnzXwwPvO2MyD/M4unSvZgT9spKzfQmtOBx+w97ofNCsZniGeiXXPPxwLxZ3pSthbi1/myOrD+vh+92P/cv9Jus8cH84sNLnUp906U7KefbwB71tZ1/uB+2Hn9rr1VjDjzrfKiF3Hot4IRWdErOP9qHTP3dYBtAIpeHD4dTUVQVq0OB3Jmu1Z6Q/Aq1hvd2Yno6RBvXkNaxkZ5YU0i6FzKtFe2aTODECXeo1lc58wvkUudTWqzD10s2ZSzRMk2qawb/zd4bU48M3gtTvydgxfrvP784GWtB6zg+UmX0fvtJrXEuiOPK1i9YDdCNqlBlGw6ZP1vc8jvTham35ZycFmY+QxiU9OsZJnf17SlJcyR90gVT9qkrzAlC+OaeQMUyeykywjiBmh02uwpuoSV3p0ndLrwQSEvt/Od8GSFVPDStp80CatN4Dj1O1p4k+IAbFFizZ6N7HhpW2jGxeU+38jHxDiUQYQdl9j8EraY7G/bCZf6E8N6B0tWsAlc1xWIaqiOmOwA7La94AhpPrP+Z2kRLaisiOqSbqYA1B5G5sxbGV2uCKwbI6K3XkFk+kBiLF46JXZP45bkT+JIPN240dhzjvi7dJ95G3KP7Bvas2czN15O9pdxdP9Qy01rGuGbw1e5rJSfv/uu+Ly9ffj1iPnufHd3eQPd/x8fPe2ry4NpePUD);lineShape=1;strokeColor=#FFFF00;" parent="1" vertex="1">
          <mxGeometry x="599.3206544727586" y="175.8873195773491" width="13.96597869573743" height="9.205308833718755" as="geometry" />
        </mxCell>
        <mxCell id="nm9v9BbhIRKBIwmMx2jB-114" value="" style="shape=stencil(tVjLbhsxDPwaXwlRb57T9D8CxGmMpnHguK+/L1VDW4vaHbeHAjls1pxdcUiORrsLd+/PD2/7nXfv59Px8/774fH8vAsfdt4fXp/3p8NZr3bhfhfuno6n/afT8evr4+X/t4cW2a6+HL+1J/y44HIlhbQ/9/Nyx5Fzv298vMS/HF6v4kukUGy8bMdX/TmbeGYQHylN60nb8eIpOBMfKoivlOsQrwnl7Xh2Cx8dUEgAQIRqHOLZU0QrKlRlBFRilHK0lGoOCdSs6vNGToMuCRVZqKSRJO7vXAVk6SQuAKEEckiFeAToHYnbgBiJR1pzIue3AYGpjoUujjJ4g2dK45JK6otcb41AaVxSqZDWSmFktTJxADmT8Bgfe122nm/iM9UCE8jjLGuneDDMPpCMrVqFMipCpTIChCGnKVMYOdUBL4CjEnqfLYDYFWGdJOnDtQDyLUANFhABS+J6F1wBKug8BdSxcKoJAQF0GieAAFXVN8g4DKqDCQOKSVrIIRVz5KsFJJBD65xiARW0hvamyeFKm7cQ85qQyNRCecq6oDeojDkLQBOkE1myLUQBM6oAuyRVcwwoZoIKJVA5zcFsJwpwmKVkKpehCrQ6sAWgTbeVegJAWrWZJkDE/W1sjwIKBmSxLCElayM30VoASytDrYKOAM46DQUI6NYmTEb6BG9YYq1JmwfUfDLRKn1qtyqd+L8CdINwYlliQGtK1ji01sCbnDd1SN0kb22j3ixpcTfrGzVP22iAI6pboIlXPQckOev3dMYjyGDyxDV0XVvPmNj4BgcFIFtJKmqSQQkaQWPfNe8GBIOla+ICYGjrvXQCF/9ZOsnrJWArGJlhDilakvQOsm9qgM10xtyVeX0UEuWxbK11kQ4H65WUhoqnk0eWtPT+hoaNleYb5srbN+jxipHose2lDFV1PoAmLHnTATfBjWQ+QCdocOcDeoJtpG1p3GfqhmA9fjIYCRZAu06iiUcfADTerCfCJm3HulHgA/RsOVrzHGBPz/G+n/v+cj0MR2DOl/F6lM9xxhzuh6leKqUofuoHB438v34Quh2vF3++Pj0dXl4uH6+uf7dfq/TW5UtXuP8F);lineShape=1;strokeColor=#FFFF00;" parent="1" vertex="1">
          <mxGeometry x="616.9482629207155" y="178.23506782234392" width="9.97808053691897" height="11.770548774167764" as="geometry" />
        </mxCell>
        <mxCell id="nm9v9BbhIRKBIwmMx2jB-115" value="" style="shape=stencil(lZfbbtswDIafJreEREqUdN1171Gg6RIsS4o0O7396BnuIsr+h945Dj+bh58UvZOHt8PT637H4e12vXzd/zw+3w47+bRjPp4P++vxZlc7edzJw8vluv9yvXw/P8+/X58my+nq2+XH9IRfM6eNap4oDr/nO4ma/r3xebY/Hc939rlRap19VAqyDSSlLB0gkThtA8KUuPeoUi3bQDSXQgdopoKAQKEHSiPJ24AS9x7VQhHEHGV5/wK0sAS1CnAm6T1qkbSBrDLV2ANMDYXAVByQYAxNSasHKlBGK1R6JbVMIQKgDi5lSgiwQrs3YO0ZUJsHCkirAc0BhRQUzoCSeqDCShsQtQcarkMliR5QXAeuHkDSsJzENgAVAJli8kABLW3K4QFgFIOQBp/WjAonxK7jCtWAAZclpQaGxuTSIL6IXEok/eCzvGVU6Uw8NhCqgw7SSHBSWk7cpDSgYfGloUUZaakNlc64DqacoQ4ZNFAMw/S2sASpry1z605MEanPToPqgYYnmfYHhD0io6htqgwNUXGpc6+NuzxsEvohwo4IFu9UAnmyQ8idi1OXgkrYbiEu7PdErBc7LrPxTh0KKhGGJo2UQF4HLdW8PGE9ZGK3ORQKIEW2CeR+tqosSVtPkS4pf99+FIo1BS9WrsRgLmWh2Pd0tN0AuGS6aE5JyyvX7W1S9kULy7Kybp/8sW4hgSlm2500Zx+RrnW0h31QVuxBQrX6QW/+g4rpsAIEuJRMK7r4/IPnl+CPBYZbktm72cJwfR7tBXb95E8/JtJy9m7G+5FPkv/b28W/75+X4+k0fz7d/++/l+zW/K0lj38A);lineShape=1;strokeColor=#FFFF00;" parent="1" vertex="1">
          <mxGeometry x="630.7671553709718" y="181.5032671138689" width="6.574863249863483" height="8.662739424196479" as="geometry" />
        </mxCell>
        <mxCell id="nm9v9BbhIRKBIwmMx2jB-116" value="" style="shape=stencil(lVbZctswDPwavWJw8HxO0//ITJxaU9fOOE6Pvy9V1a4EWtvJG0XtkjgWIAZ7eNs/ve4G5bfL+fR192N8vuwH+zSojsf97jxe2mqwx8EeXk7n3Zfz6f34PH+/Pk3IafXt9H064efMq5VynFjKv+YdpZj/bHye8YfxuMQzcV7hRcl4m5ALcV1fkEjCNiEJVVsRglGs24QQKYUVoR2hwCRTCmufc6Jk24TJxbUPtWCCUOI1oZKAsAqTJk9IwIdCsbuggCAlirJOG7dMggsCheovqMBlpdQ7UIDHpOLxCiLUAtSlICeEZ/Z4AQFiMmd/pqTIfoseLwCvVBw+UQbxDJTF4yPI1+20Bf6vyjcEdOd8lC+m0F2AFNdqIKuPkOEqC8ETCioa9aJuOUY+S9damuhQETSnc6fqgNrjVQPLshTQHUlKV2UgC5Ekdnhgj5EGj8+wKlOHD0DVTNF8Bipo7q0q1eMN2MPXrrmUBIjnR/ETYW1QjjBAZr5vpdaZACHU6+/bc3ZrlfcLOfoXtmVdgapzV/pN56iVlkjFEWBrKcm/BUIMklyyr0u+yuo+vlAJDm9AdG0GCezwApJclcTjUdVX6+1hdH7s/UUTTtMkm/cXSGiqEW9/RvGpfpgQEtB4px7V6QF1du4eVyVGDnx0yPwvvi3+TbQv4+EwD8TL/34Cblvz9GyPvwE=);lineShape=1;strokeColor=#FFFF00;" parent="1" vertex="1">
          <mxGeometry x="637.0808205092028" y="186.1655695674002" width="3.2657474988232935" height="11.526062173304854" as="geometry" />
        </mxCell>
        <mxCell id="nm9v9BbhIRKBIwmMx2jB-117" value="" style="shape=stencil(7ZzJkh3HDUW/prcZOQ9rWf4PRYgyGaZFBUVPf2+kO+rx1UX1KffOC+1aFO7LCQlcIIF6KT/8/vGn3z685Pj7t69f/vrhn59+/vbxpfzpJedPv3788PXTN/vrpfz4Un745cvXD3/5+uXvv/78+t+//bQl919/+/KP/Qv/esWlGEOMG5bjv1//KYY8//sPf34FfP706xNgrTDP8inMjvK1neRryAPkZ1jzJD9CY/mSz/NJYVUA2O+tM6CHkQDQdcW25E6AFtZ5SrmHSmuoYZ2nVGIYGQAlrH4G1NAIkMM6r6GMMGhKdqpybDHUCACb8XkNNYcBgLmOXX8AKk5pztDqGWAH1wAwDk1+AGboNIIdXDkBmi0adGnWQxEegBxiAUAJ5XxwreC2zhzSeQ3NxoSTninE88G1dpzMJWDYhT5razOFhzWMGer5pNs4fuIaMEI8H1ybYdAILVRZ9EIjMGqI53PoMRQC5NDPU+opJDiHkUItChhg90ZUu9RzyHAOfam2GqDDCH2G7EaYsOg+QqoKWDRCP5T5ASiHt7gGVDWVG0AjlNCSAhLcOJtxXArIoHymCN2NUMB6m6olD4Apmfb39q4RujtpWwON0C7OIcFJm1EZbg0RlM/MVvEHB7bVDOPoDgBrqKbebpfIVNahTvEeEPO7AD0Udw4RdKmaf/DbygCv3jeA5NdAgHp10qAaBlCrYboEqlFL6G6X6D4YwK+hgS4ZUWhuhEEjXBkBsnw1HT7zATCPASy3PrzBE4DutLGj1hRAJLEs5bkGWDAlA1SZUkOHUmaYVQHkRQ1QkgKICRiHnALo6EUNoE6xI/0p/QgungCddsnu9FLAAuUr7dCcB8BoIx1cUwpnAGL3Rs31HAbSHwOUogAKaUpx5zBDohGKO4eJ6l2yM/fGxmkEf0UnXtGSDiv0AKxjkteAGFJXAIUDeemUjKMR18hTmcDgGMhC1dIU0GBbc1frvQHAlwyQhgI6nENuSk5GRN5qgCjxdzrI9TWgKlk3QKERTFuXAigAN4DcB6PvRENzPszWEyDTLmVlAgaooHw5aYi/IwpSvqRpEAOQXcoxLDnpgokTA9SuAPJAaV2MsMChGEBP2s6eR5DckgHIoaR5aP8D0A7a+BZAuIYB6D4kR9ZHR95qAB2h451OXcNji38TAZoGTQaYoN7JX9GJBCtVp97GxuGKpnJY0ifAoikZ5zsDZkT/kBznmwmNsQEkiWAAIokpHRmxB+AR5LwF0BHM6wHXSPGgUw8AU2kDCKs0QKekmsauk2nr0jhxJ6go4aVJjdnQ7A1lY7Mf6ak35IWMmfykXJTmruY4LtN1cK83Z06M+LqSdJOn/e+HxX3IL6TcLn+4IvKwpvMxebLATTnSSpjbq8pt1+PavSEvqfFV8MpUpcKrchJArYTJkz4UjZGWWXeUl6T14sR7Oe73Q35gXsWZxfWIgN6SP1uUNfF+lSMB/iRPZtc9A5g8ZWKr05+JVK2qK7P1ElNz6b81OIt03I7n86LMmZIo0wfSn3bEWU/ypA9NGZHJk33rGiCsdmN/hL3vlx9Kj7rzqkgau+Z27uWrk6cM8sEantfL9tPdX7IP/bCuz/uPvy9Zyy2P6/XyGe7LpTzqg59/QX3ITt8K/77bf7In/Yh6nuXxPqr/ahjVNKVYi8l01acmkyf/VTSOW8yMXdy3+MEvKZ/Zr9XEKZ29WpjUiMfoh/zTc/sbACHqa+GFjM5ALCTF8cgNP8mTgkZ9V7MNJQfgiglMnter8px88/IdX078/PkCe/mKiQMvz+8sXp6rJ7x8xAvp5I2wFp5PdvK83qLylJSIjtCvu/30hBv1RwOqhRFY1GB+/z7qm7yYbnnUN8lJ3gQMUQnB3n88Xy9PhOlqPkSAogvjF4bxUQ3i5If6q/NqrJ/znfJ+/qyffv6sn05/eD/9feTzuri/fN+9PvP+vFOfo9dnnv9S+Zv76NZ7c9/9/Fk/vf1h/fT3kX/fy7/3vr9H/tb+q/ydf1H5O/8l1Ui3/lHl293+i3y/+30XoLL+5KTy9OgaXUA1sfoquoBqYcIu6puuyVMmN2r2ei3O8et9XI8c/luEOLn50yuFS6BM5FdFnxFt/+lFrbqES8cA6SpBQPvjHn9XQ3v1RwD/RwD//xzAd/Xvi0s+mrvvXPHRtAT3Jv5qTj87vj5XfVZdA/1j1bqeHW9igrs4eaoZqMo/d7yMCV9NQLB9LkeF57N9hv0p+mq2E8RUGaIvVDvhiwkXfQAYuD/leGx9TvhyAl30rXORh5bOrIaPr1X5sNlDKheqTj8LJphcrcO6KTF0/o7fIJvz1yk0lFd/F7HovmkCzvjnRHvi40cqBuk6nznxfPsx24c8l0Z1TdBPfrAZWtE2O9bXDG1imGwPpz6AmTzp/3Tz57LCpfUQs2BjSPIBMJcW7zds0YiMT0gGkDe5yaUyKWldyuQGnd2/40oDyGjtWgJZQ+SH++LC1IhqZIAuNR3M05NzNINf8nZNhwNgLUFzJRqDc9ddH/tH5wKKock4AxA527U1UsjS0Pqm6Ubg8HDXB0m9HD8gG2A1BZCD3TVORQFYH7RcJVjhirx4XJcnABanRX2VGRl1adeaJQUQC9xh31IA0eRdL9cVQLu0X2ZENRI6HvP8wsQNgNta9C1nlyESoLqKvIi5gO2cHYCSAbkpOxrcleTd7YhovS/rR8mQbYdYHYDWMC+KZrEcdOmdvinLLS6ntwt/byqFXS0ykuCsWcw+saxoVzsXBZDlK8W1z4zj0r4FEKLRb4h2vRiBmMyuOk8KoFRyaRdV55QL3JXzcnDcOLhr85sCsCGhK101AIZfQ63G9xa2twCSwOoNCVaZrneLI/LdheGaKsixl4f2PwD1aDt6C7CqAqiqrTrO1zmLW5O70wXV2wASR/aChVu7o8e1ANEV3T1Drv8MS5kc57vpoasuNr/pltydVUkBVB22e7eiAnCXfHfYo4/1LYD2n90CtMPtBuB76G4AvkvvFqB9gDcA32nIgN3LOByAyl6ya5TiVt2Lfkxujr/o+ORa5Iue0owvPxddq/lgstcA3xd70z0cNRy4GeGitzejQ9l9hW4E8qJm59TtZoxQLjqgMyb0LnusycftLm63rfRE06/Um8j65pCy6IQOZSTXQ5cwq717X+Qc+PsVwxX2mnZR4fP+IkBVAHnR/c2B85Qal7rurxrIdxM4nh5LrYbdQQotZ1RDZre8UnIpq7lv/O2U6Who46bsWbUAvSW8DzsdJt+viEgS5+M99gDUid3Dc2q6yFwM5Zfm0jcA86v4tZWoyRwjE1SUsZKWcVcOmpZ7FjWeiZ9ncXnu73z/GlC10r1wv81qOqXMVHp1pT87rUDbOvSKJmb3a+pjakqYfP9e3P6IRfH+7Lca0T1sMdpvNbICTJDt4s+zc4gYJW75qvJ0BEsPOeLHNL4Xoz7J8/5I2odD+12LmlSezmtp4upe3q2Xbo1rYIxYrLBcy33kbqqlBpu7eS6/pUXtA9cf33rvCOT7/weA/fH942C/fPr8+fXbYs//Xz8mZv/0+iGy8uN/AA==);lineShape=1;strokeColor=#80FF00;" parent="1" vertex="1">
          <mxGeometry x="369.65113795740126" y="197.19620455222474" width="260.01928405182554" height="103.35188430476501" as="geometry" />
        </mxCell>
        <mxCell id="nm9v9BbhIRKBIwmMx2jB-118" value="" style="shape=stencil(lVfZctswDPwavWJIguDxnKb/kZk4tadunHGcHn9feBTaImitJ2+yjBWxwOLgxA/v26e3zRTc++l4+Ln5s3s+bSf+NoWwe91ujruTPk38OPHDy+G4+XE8fLw+z7/fns6W56dfh9/nL/ydcYkp8hkV3L/5jaM0v/g+2+93rwv7zBRyZx+pxHX74kh6e+8oIkAkcT2gUAwQUH0HCJl8xi7VDsC5kbrN2ZPrXYqFGARJNCY9QCoVwIEvHjdAdpTrOiAECv0JysqDE7ynbACZsqwDKvnY2ddADgTJZ3KpB0RiDygIxWwBEUSVK0VnAZ9RuJ0GdUl6ABMnwJlJDAeNKgqSUIgW4EDeaqKSLQBprxYKxQISAtQmzQvANyfXAKZ+FFDvAExYwz2XYhryUCBpKw2migBaP4aDagmITxMng5YSqB914LOAlwAgPo2JlYbWA9KSo8qWdEGkVWoDIAB5l9pa+yJxgnpxpWzy4KmgsF56+wLgQU3r32PFCSLNA2ktIJQ4TdNQQA6dkIiHmvZYfEUGDihKdeDg25s1QC4WkIH4vHN2ZGmqUXPVI2yYGLe+MrDmNvXWwpTG9o17pW3fEWvjqwApg/q03YLMRTecUElAlHQ7kj7Vi9TcTl1sHiyPAADXan5BuoJMj8rQxgMKKNpyKAJ3GS+t4i+7TIbzhIc+lgpMW8x2Juqkz2AApdC+d1ngUht6axuf9EngRAJIZ2m9fbGEwp0yUjbCqHA3UZd8v7V6nbqAQxKqZqeEM1SSHbpMCZSnCOVo7AP6vu5KJkSwX6i9i8YetQu1NzuAh6KQYf/0MGMaH9eLyFFBl4DUyupqH0GCVcPV3sQ84lvbPn61R0MkORt/3IiSb9euhT3w51xkztij/f+rN8/79vpwvea+7Pb7+Za8/N9ei/XVfKXmx/8=);lineShape=1;strokeColor=#80FF00;" parent="1" vertex="1">
          <mxGeometry x="390.148234345058" y="290.6996838506377" width="4.7567252165788885" height="10.821368326129413" as="geometry" />
        </mxCell>
        <mxCell id="nm9v9BbhIRKBIwmMx2jB-119" value="" style="shape=stencil(nVfLbttADPwaXYl97/Kcpv8RIE5t1LUDx339fSkI64iUNE56k2WOSA5nSe4QH972T6+7Ibi36+X8fff78HzdD/HLEMLhtN9dDld5GuLjEB9ezpfdt8v55+l5+v36NFqOTz/Ov8Yv/JlwPlFuIyq4v9ObSG568XWyPx5O2j4mZe8D+QABTjsQD5UBIBB7HRFTQQBPsSpALuQAgKlqB9URu237SszKvkUKadu+UY7Knh3lDBJoVDWnLKQBQBTKswbEntMqIDElE5KQBjyURklz1Gr/xDqnQokmqQptBQBEeMkCCqgCZ+JgARkBKoW68AC0zZK0ATTygFZmqzwBVJQ0UzMsMWUMYH16muuV2QIUzVLzUKySdMsWwEAaQms1gNB5WwcUSskCKvKQu/rnAMRStAdoDAl1gEAlLpJG0vDU0oJWlLSnVBaFQ0l72zVGaeAcnAE02FgFYA+QyBtJI3X1zw8Q8pBt0veOaKEWFwDkQSJ2izaDcuBFDrf2vAWo1dYhoInoHDkdk5QajcTRBVsAIzFxr9NMfRUl0RaAQBGF1OxEuQOoIn/Nq8grgUJk3+V/A5R+areGXNYsCQ0ZALxMfR3SrDTrY5FcsCE1UAdnHchgb6AZL4URehtZz6DPgtlikkE80cafM4wn2YEomxVqk9KHtYrurG6Jqh5Wd3bDxQqAd8/Um88tnL6LbkTvNTueCjRvRj2d3fUNyS6RDraVaqmRFgFSbX13ejdHQvbytfoZe2+3eByO1DF9Jlsfe/P4GJnjJcENH6+V2Jt9FkvhP245d+zl4f1K9XI4Hqcb2fx/ewWTV9P1LT7+Aw==);lineShape=1;strokeColor=#80FF00;" parent="1" vertex="1">
          <mxGeometry x="398.54296567389815" y="290.3165890275478" width="5.2452353953098285" height="8.483756314107723" as="geometry" />
        </mxCell>
        <mxCell id="nm9v9BbhIRKBIwmMx2jB-120" value="" style="shape=stencil(lZbbcuIwDIafJrca2fLxuof36EzpklkKHUr38ParbCYpVsIP3Jmgz5alX5Y6efjcvnxsOs+fp+Ph5+Z3/3radvLYed/vt5tjf9JVJ0+dPLwdjpsfx8PX/nX8/fEyWA6r98OvYYc/I+eYiXnAPP8dP3mK/v+H5xHY9fszoFbyobF3TDkAoBC79gBH1QEgk2sBiVQzABKF1ADRU+XLQCmU2jtkjQK4Q85UpAFKnG61CsRC0p4whCECIFIuFsgCAKZgTqgkIHHBU8kWyMAlkRWglsuADyRlAYDEubgCIJc0DXfdeZbyjUFd1MKQNaALptjKQrUrYP9A3ApVpZtARLW0vLeAAw451Z3JmQoLpEBDakpBgQRCKpm4LE4AxRZ0v2rvwADQ4o3ZAqECIC/SNj8hl6rT6kKVhYBE1SROt0CA3sG4VGHiNEqxWiABKUmaSuu82FAtZCvWs7f/kph8skcUUJ4qVycWCEDfYaXeKq43Z+092J9t69E8R1AN99q7+TmZ+0KY3vH1JJRJZxOQKmxV2vpSbIArvU0BE9Mr3VMCOTMA4P4si0ZyZQJQwDR0PGJo4zEeXXEo2Su7qfuuq45tTHnqK+v2aXpCv+0Das0qa2/sHSib5Gwp47rM83Y32msTq3f4o7ONGV7wfaujYP1H8Rx6WKsHnC99RNjaIz3cPdPeAOjie4R+63e7cQI//9+O3PppHNfl6R8=);lineShape=1;strokeColor=#80FF00;" parent="1" vertex="1">
          <mxGeometry x="404.27281565820044" y="291.7650771203969" width="0.6971565234149238" height="9.326365205915135" as="geometry" />
        </mxCell>
        <mxCell id="nm9v9BbhIRKBIwmMx2jB-121" value="" style="shape=stencil(7VnLbhw3EPyavTaab/Ls2P9hwHK0iCIZspzH36eYNWeHzZ2KDRhwDrpJs13DflZ3c07hzef795/uTl4/vzw//Xb35/nDy/0p/HLy/vx4f/d8fsFfp/D2FN58fHq++/X56cvjh8v/n953yf7X709/9Df8dcGpNO0gr39fHrQswf375N1F/uH8uJN3KjlNgNqkBgJoonkGBInpGOCzNDcBShZXjgEhSWoTIFcJ/hgQg2Q/A1QqMTq5ofEApCCVnJCa+PmEWKQRQI5SZi9BSafHgII4hAkQqiTi1pIkGkCUkAmgSSszQMUTL9UocQ4cQqmVANowcQPAaJJLALQ5Dt5LJio1J6oW4EkcGn42ACeN2NCQzHkBkMA1RDp81wlpZM7eBuIlVLAJXPcSM7qMZN7HIRJAXSIdpHBAMYAtWb4VkGg9dJXUAgphjW60AYD5SBycqk2m4CmiGzEHIipPV2gQZ57xtIKQrmnOPhBJYjVaxc8ngBeU+BVFbRpEBVeSUAOQ6gxww6ojgCYLKIw2gvVS9TRd8XNsFsCyDwqk5QRGrvCJiUMHkOwDuWZdVGJsjFzyFsBYoBTLArCqNgoIS+Ais6GIzjUKNzAmQx+v2QKo0WAyk63oAMzoIGkm14zphKkUxM9Gp0w7e4nWrRFxYDYUifMJHhMRy1Y3uuwAuCKZBK5X3KxSGwPRkbybwwBqZYmBFjdHIVIGyG687vr+TOTjNq1tUaYe7cQ+yzs3ntwGLIMJACwr0M20LABCGGjhNVkA42HM3aYUAFBmg9qJEpM4bVeolDkKoBxSzf0Aw0hj2Dq0wBASXRzgojLrU7hLg+22RRJpVAiy6QqFcnxPymTfz7IuD3Wv8oyK/Fa0V/9ElnPV+h/TMfN/tcwFpmPx3dTdJRBrUQCYMkaKsj0MHnJLXbJxp/PIUjWV2RxGUe0BLGhbj9yrxKLmLDcC4FnaoQqbdWvmAJ291Ma+eyhv4+xYHqntBpUzkbN7YeF17+18V8aDHyIflxkYREAihtVdZ3k3LhwOu9kcYeUDcJIQjDzTvzlbx5F2V8ib+aATOymzPsKb5lTpIo9+X8zW3EbMD+flGYAZh3FvdTanMUUVNi+75Qam0aqBSmGOGuYqelXwurd8BbzuLf//vWWNA/YMR8bB9a4tB57exaZ3cvRSqDbbOqNymgGpzJEOnu8h6/Vf4ZcXr/eF33LC633h1/n+594XIjXyTAKYxGh/WE5AAbFxGExazKiU6ewG5vOmsfORvrgxa26ARI3OyXJrUpoaqdgelxL1Umw2+bIfsb8NcJa9i9JNNYQxf22AOraCo1XSADA0st3WZctLjQ9YxbaH1ijx5dELdvKJVDQoY3l/JfrE5W5h+1h026WWYXaX6bddekMhxpJ+7Ag7eXbb4Wxzg3wgDlU79oA/mD5q6+bKNwfypu90uiEpp/ajKuRZTqvNUJA+q7Lv/Sz83/L44/oN+uP54eHyCXv/u/1mjUeX793h7T8=);lineShape=1;strokeColor=#80FF00;" parent="1" vertex="1">
          <mxGeometry x="379.9514298550306" y="298.4041014332031" width="5.876358231202175" height="10.911075311208242" as="geometry" />
        </mxCell>
        <mxCell id="nm9v9BbhIRKBIwmMx2jB-122" value="" style="shape=stencil(7VzJbhg3DP0aXwUt1HZO2/8IEKcxmsaBk25/XwquxtbjzJPdWwDfvPDNaOHySFFzk959+/T+6+1N9N++P9z/dvvX3Yfvn27STzcx3n35dPtw911/ukk/36R3H+8fbn99uP/jy4fH37++H5Ljp9/v/xxP+PsR5533AxT9P49/6N3J419+eZT/fPdllS+rfHU5M/kA8tmNX6/lE8h71zuTL3WRb9klMp7gwjrfWl2n8mUdT+mukfWJLq3PL4HKJ+fTIp/F+cbka1/kRdc/XcuLK3GV1/GQ9c8ur89PxUm9li+uhlU+uByu5XW12yKvTyhEvru0ro/uSGP7pQqxviBUV8kCheD6qkEhuUY0Tv8d1ynrO6sQgDiRVUddZCPKrq5TKNNIz+Wri6uOCjeB5voqH10j44/H9I4J0y3Tx+V1gfj66HBjAvnA5M36eLo+qnNJQD4TE9Dt6Qnny0xSH7eOJ02lPZdXH7FqXHbC5AX3t04jPZdXi11tXhX0vyecA9q0kGcmEIkGqQ/xeQUUamSS0ASGTpAhSUa/MjwZ2QR1gx0AbbrKc0enSgOeTs2ADClHDGW60PQN4gL4Xs8BBYOByFTFc4BOel1W6TN+ngM6Aka4IW8o0cVVt/URTJeKTF9yOC+hqlEqRqiqHIBFEFXmdeOq2g8ZUo0Y02qnDqnKpDSHw04uEOWrunGGhTQ2h4phrdUZhs4BDfeh9el1rgB9nbQSKbYPuiZ5HVIPTogTaGpAEQHMgBQgMCQ1KfaGYMipuk5iQArIEQGZhAYFAB0ZAKIaLU52/BzAJh3Rt+4BJ0MiujR0syKA2YMCsl1WonwKKGZIgeiSAjq8IbjK9kFdZUeAZ5OWuYjP7IG5yiYY1FujAWXkEWtAURONTDXySSpS2RwymqgO0rM3lMnrDkCce38FqOuQ1Mo7m3RFbqueqjBdqpgfqTOmQ2roKmukfkkBQB00AAihbwpoqxMojbuZPjPSA5Cn/l4BMCk8+M15EuOnuRwAP3fmClAgLazUa6i5BIjTMjPdKwCQeiVEzPOpyWOWUelOK6Cu2qpshvHinnAOwnM9BSDx5oFdAZDrJdVfElC6YJxOmdqDAgqwyjSX4QrQDQ31RL1H/WRd1qf84wog66RHUs02Tqe4vkGpNAsoCmiQpPMMpRekDqOOwDauYIoYOcHqxUxa5qyuABDjNIsTtqzFJByRpt29YjqgeSUrtSkgAUDdAgcA0Q2dJhwKaJDHtTmrc4B6Uqh9cN6qAKjnaabI6nkKyIKAyCatad66SiG7zIfUGgI8U+8+o/IBEK7eHdmMAlhFQwFQodAEnFEHBRQAxLkMVwBwxgrYDAmKLApg5EQBEHZDoFxjAMprAd0MiU8aCzlx6u8loCCAlep6R7IeeIYyAGYOzHsHbyr0Y6uJfp8jqJHaWaRZ63jpOvGSVzd1BwWwsvJQcNi6PInjpQkZz8RyFHUDOOnOTaiZCBEpEVWAQByVuQyXznLdOA2LjIj2ZsJio6cHAyAIEO7w7RvYecMAmDpc4ZMGZxnbbh+gDjcA3OEHM2kaFk2UGwC+rN7Oga+SN3Og9KRhxXXswwZgNm6jrRYQ+SpZAMuzTgEsyT/Z6YNDXRoQ7HTm7LtNQvWM9W0AQB7G4QCPQciYOidxHVmfOjLK7zuWc8YBEo9BBYYktKY7uIANKHwOkEEEfirYzTFf8Jzf22X1nEw3Qx78Lj6AI+ucMDVThuPkxHilRk/hhnwEeap4J/KUmTSsUTTOAYxxbjMB8PN1Zo0vjDx1Z5lQId/Kg51VejBuM5k6SdClfHvdeiaoBs4HvFieHqQ3PHVsu/WHYmPfOetk7GWzv2gvgetnjCi/0c+G49/IQ3F1x72MvbAS95k9UgZ88nxWfj4bPzvZs+uj+s/HA+tfd6zLnFrTEo/Rn7ojaa+V77g+lNOZJL5z7tHx1L3zMoQpIo+AxF+AxRrPPZAmXcAk4mSRl28weSDrAzgpEsiODeGkyy7BFnhD25UhIAyMbhLOVaC6o2ld5I6umtIiLfw1PJXUtI4WYN+ytAl4y9J+hCwNAdvIgIXwwo+eTChRi9vETkiJIm9N6A3bKjVL27hKzD/K5JMvDA/qKjdV57eK7VvF9keq2MJ5mAIKfwOeYciuSABneqMmvDHSggCa83SzD4V2q/eG3W4K2MRR2568KSsgAaqTpb2QPIRG+5l7NQ3QfQeAcpBSLLqs1RTCAz9AMx3Ng5Mx5asmUifenFBw40YXMj+BhjbF0bXLz4ch/9+fcdtqJ+01yLhxsdGOvW4apzVHoc4yY3k0eZ5UZiwypMDJdEYukCL3GjLrggdAeJ1EZu/CASicMYlpDG67vhWwB/F8SAlTV4nct0ZMzGRzkmTaFGVTDQsz+Z+AHHj5JuAcsvBWmqPh+wBsiKjHRpcSePenIUCFUywFQImrFJo2NVNDKI0uqwIydLtt+hrbbHY4AGmeaZwDKjLXyjtjmmk9ro0y11aQxDVPsyAFQMhqkfZxKQBLY0JdZcs46fFOphrHDYsDwA9KFQBVgcaPbXTE0P05Lq6xOQi2sXfO70dTrQGwVhoFYOtxem1jcOI9srb1ONHAftLcnLjF2fZp3pZ10qDNeetJC3jife8BrzcNAFMNf/KGxAFilpU6MnuLM9LrNbWftOKzGDeuE6z2oAGA2UM1JSm1B7astZobDvyAopomQnUChd2hEFTv0W/NhhTxSkTjDXjjagr41kLvspSKN000PrA8blymWVWj8G63cYFnXaXC66G5GyYg/F5URXKSPT3JyYa3jtteZA5ZkN1LoFlWjlidGX2+ZKfHZbBVvRNvwBPTORk7fYNkrHyPq7YMkPB8b3QasDt25raMZopMW5PNRYVyvmRSmhBoyBo3F8FEqfMeNyPh8hg1n+SxWVRouh6b6dmlpZxouFKgNzXPbqaydtqnnPPp+cwhReOQAlW6aDg3v0oUzKWxxO9OV+QwmSbRwTSKF3rm+FQQOoIIZW3juMooKLs2McqRUCHiWUwwKxoavUzckXjqFrBj+oOWPisCMP5fsIab+OmVuVernpGFAzGXOCLNbRMWcIWfHiQ8V8pCb+xFzOZLpAEzoMZVfsoasCuh8sv6HutILVOnazyW8ijmsjx6xHGdg+iDSZpHtY6svzen3PzY+kyeGYw3GQL/fob9XggvRno8NRx1aP49kmjk6fOhGPSsWH8FMBNmZyQejww7v8jo8bTt6VTmSj6gPEsNzj4Iw2LMmTzL6P7HB2c28vrD09dtPt59/vz4cZzn/8ev4eifHr+kk37+Fw==);lineShape=1;strokeColor=#80FF00;" parent="1" vertex="1">
          <mxGeometry x="392.41868055446196" y="192.73423294764018" width="232.63696190171578" height="44.02528334398185" as="geometry" />
        </mxCell>
        <mxCell id="nm9v9BbhIRKBIwmMx2jB-123" value="" style="shape=stencil(rVjJblsxDPwaXwntEs9p+h8B4jRG3Thw0u3vy1dDsslnjVOgN8cZWlyGQ0qbePf2/PC63QT39n48fN3+3D2+P2/ip00Iu5fn7XH3Lp828X4T754Ox+2X4+H7y+Pp79eHBbl8+nb4sfzCr5Odp1YXo+B+n75w5PjvF59P8P3u5QKeqRUF98R1Dvfya0HhU/+B6/hMXuOZqp/j5XjvtT+JkgMGlZi1AVOLc4OYKUdlIDnIwKUU7QnRU0ApDcQ65liphblBGTkfSZUz09ygOko6hsQUQNC1UtFlzpEySGuLVJo2KFQyMKhUtUuZybe5ATuqOugiZyKXmJw2qIUy4F4r5HQMEhU0CNQ0+cTJhIL25JI2KBQBl1qmoGOQvBXQb61R0SfImYgaLNzUBjVDanDsHo86NEogBk4UTeFCb6nrBtn2tHApgEqLQc2W3glxKRMbA8wlicH2tAgh6GkO5DW9RQQy6Glha9AniFIlULg2HBgGoiOYrc5Id+2VuS4Cyfa0ZBXjvT6gUQVJrZGa09SjgkRJaqR1UpoH1GDB6ypnONoWf3S844tZvEHjwy18M5ME0loaMWn/pZURfqVfUnGUz9Kl5IxHcidDwXIaMrQOAp9nf0b8qZRtvRpQ0+X3Nd+Gg1P/LT/RXJb8VCPv5DHe5Ie7Ls3qm53BMxDShT/V4AvKvwhvMPEy5j87g3fIn2iXhNLn4Qf7N0NJFHzVfE59Gk71x/ITbRSLvtl+jAif7aj0UHAFb+qFR7HwJ9n+jf8R35Kd3LKdZxCwLBPeBCyShKaeX90OGI/JZCVXauxAz3C1m6yQFK6NbKdeDLArxcBULYpMAAPv5I6j+yYlOFjliGIWHA8nE7cuhMPgRtTVFqJkioCrsocmM4tDn26zypklrWK149VNbVllEfuqvXjJmagQbaVHkuiKBK/1rJ8bYtRyaqELwVgzmrM9J3sbjDr2ZXrktcEb83Jr0UFI5dCYFYOqDUqCe5e45HQh5ALa8CLC5m7X4AmFV9fNBOkqDhhlSuO2N7tj23cIvC3LhcAOkwJvLXEsN8PAwSzJtGSjfTJgwDxcXma0gagrGug+ruQ4w8eR1ufTwPt+5OQxyFCvwQBWRStdm6/Cnb0eZJhPZ7epDEXYdS25eJgCvjsb6rjszODaGbwqr+AB3pxWzvhOpVmo9s0uwlBNIsfLy8fKJJKHxiX5bOBo9Pn+1nYBB5n5x9fMm3D5cH44fdrt96d318v/24dW+er0SBvv/wA=);lineShape=1;strokeColor=#80FF00;" parent="1" vertex="1">
          <mxGeometry x="634.5455580101359" y="195.05504391593576" width="15.444031569287109" height="7.600124385196523" as="geometry" />
        </mxCell>
        <mxCell id="nm9v9BbhIRKBIwmMx2jB-124" value="" style="shape=stencil(rVjLctswDPwaXzEE3zyn6X9kJk7tqRtnHKePvy9cDxURkNY+9CbLuyIBLPHgJjy8757ethvv3s+n4/ftr/3zebcJXzbe719329P+LE+b8LgJDy/H0/bb6fjx+nz9/fZ0QV6efhx/Xr7w+8rLhSJfWN79ub5x5Mq/F1+v+MP+dYYvkarBu3V89eSrwue8jm/yufH7gXwD+KzxhZIH+EYlD3gOVNM6gd1kYGd4pgxc1BKlNprgupOXfSSEOBAiUwRGF6YQBkIKlMAKKRL7gZATeRCGkKmNhJJ64BcJ3mu/1kARrMCe4mh0rVTqOiFTTAO+ecogcJlSGfEJRoEz1TFsoi0OwGQheE1AJofSlTYj5LhOiI0Ca0IBNpdAoZoVECFSMDYUYLTIgIsmNKRV0c0Y51b6JpcJmbwhVEwIilApghxQprjOCA3EQWzIaoUGtSRubU4TCpCGEFQaE0JDhEAuGQKKg9cpQAgVGW2SjBASIriuzRmBkZecTgESh4RsWCI4JG+7pYJtsEYXYlDfLm5VBEkLiGADl2FFvEjDHNGMvCTiM1mj4iOq5V36GVw9QIZQkNFLR9SjNGOTgFQH1JdImjFq9ZigE1m7FQedKlt39GoyHleY9RL/iSEVQrVXN0611KBizEbZVapcNqkMqUnqKDdDQH4ibxZgsCPuBWquVrAh07+1KZLLFncpT3gHO8SmM0CVEgpCwFLVxwxQufc2yzELvVebmrEAlZdcP1xTuxfgCjIFuFEVieEK1XXRTC2rI0ZOcnrOEL8l1EVHQ2CY9oTAqrOXWQWt4KipswN7pWo60NzbszUfqe9HqGtJMEXNDbeCFvWohBqrLLI0eJCDBa8qVegnexkv/fUoIg9bGMHrwQrOVTn2vz/xyP+CT+P3uQ81d+MT8o/ZD/eyeKe9rgf8Tn86OBXaeDk441k9uN4i3qk3fFVwGy8Pn/cSL/vD4XqtMf9f32PIq+sdSHj8Cw==);lineShape=1;strokeColor=#80FF00;" parent="1" vertex="1">
          <mxGeometry x="655.134706606299" y="198.23485951393866" width="8.304893377004191" height="14.72284195757793" as="geometry" />
        </mxCell>
        <mxCell id="nm9v9BbhIRKBIwmMx2jB-125" value="" style="shape=stencil(lVfLctswDPwaXTEkQYLkOU3/IzNxak/dOOO4r78vVA1tEbQ2k5ss7ZogsFiQEz+875/edlNw75fz6fvu9+H5sp/4yxTC4XW/Ox8u+jTx48QPL6fz7tv59PP1efn99jQj56cfp1/zP/xZeLWSyMwK7u/yJlAq/198XfDHw+sa79rnhveeEm8T8riAJwYriAbgOwIL5bpNiIFy6AgpUsrbhJDIp46QPXm3TfDDCiWSAysISe3wNVCUbbwGxD1eyIVtPBdyfVJrpAAC4kqhDARQtuhawCsCgy1ElYGzBEGEQMGskMjhOtusJhJQtlEYmlaPQ2KxBAFa1U1Lr6SaWym30joSYoKFi8USBEvDpjXDLLFG7IeQPCCIbR8lOJBWThTrkFYUUqLgLOGDFdgQUnORLUIuluDwpmWUN06rjA0EpKGFK3loUVBp1ZIbeppRP6jLDYQUYT+4aAkVyVu9e2jRiAk5WUIFRjavMPQ0qrRuug6EimzGNyGs5I2cT1u0DC2KZuinCblZ9XXmOq09qPT163oBiGeTI3Vz4Epii1BCE+/9AVqo9juWShnNK7G2l5g8ICQ1pT6k2RNA1TJbbfvalHKXULj1yq0K0Ot15odeSB7ON8XnHu/ai/t4pugMntH/q51Eg0fTUDvR2IXKCu33OlxXeCC626hc4dHRs7Qz0Q0fUPxqqDY/6KSqR+Fo819QPNrGfTy+HbLuN4Eb2tLjAqsge3MMuGCfPct/iNeH28Xh5XA8LveO9Xd70dBXyyWFH/8B);lineShape=1;strokeColor=#80FF00;" parent="1" vertex="1">
          <mxGeometry x="670.485001329826" y="201.43886094838854" width="6.142660795895063" height="13.634770287231277" as="geometry" />
        </mxCell>
        <mxCell id="nm9v9BbhIRKBIwmMx2jB-126" value="" style="shape=stencil(lVbLctswDPwaXTEEn+A5Tf4jM3FqTVw74zhp8/eBqpEtgvamvVHSrvBcEEO4e9s+vm4G795Ox8PL5vf4dNoO4cfg/bjfbo7jSU9DuB/C3fPhuPl5PLzvn+bn18cJOZ1+HT6mP/yZeewcOTfRvPucXwXy+e+Lh5mwG/crQi2UWjx7igwIjkppCD5SjbcJ4oh9Q4j6C+BSTuRrQ0hCGViI+jk3hBKJ622C1yRJQ6hCLLcJLJSiJaCgORMbQqUUACHYLCmhOlAHEm7rdin99bRSStaA+Nv4QFksPqAcUWKbogIidktfnvGFKsS7ZPEO+OOomoRm8gk0he3rmmDF0iKTFd4B4WgLmXgjzA/zUv81ARSM1X5noQIZcFkcWIcMQuBKuc8pIGgRkrGgRQO6UUIoloBkoC6xCVrbDhHUgU5oAYwj1llSLEFQlrrO+06ahTJbCxVYiJQ6aSYQgu+GkU6vgqRjW1Vgmbs7R4uGUqr/79oI9d1VPFDCpLU2oeWs7usJjRTb4ZIK9Ch1ag54mmah0CpBq+hRTwSStsjTQAAxlGxj8NAjxddq8IwckuVOPTtEEUi51MXdBe9IQFOIJx8MPgL/JZJEg2eEL8sSccEjUeqiE8Xiwf1Rg82P3nDgftJZa1TvKIP6qqay2dTgkqMzwUWDR/0wTbW2pT3eWP531fwHgh4um+3zuNvNi/H6u92E9dW8RYf7Lw==);lineShape=1;strokeColor=#80FF00;" parent="1" vertex="1">
          <mxGeometry x="679.9309056929924" y="210.33987393990645" width="2.0178102806212337" height="7.82185475700162" as="geometry" />
        </mxCell>
        <mxCell id="nm9v9BbhIRKBIwmMx2jB-128" value="" style="html=1;shadow=0;dashed=0;align=center;verticalAlign=middle;shape=mxgraph.arrows2.arrow;dy=0.6;dx=40;notch=15;fillColor=#d5e8d4;strokeColor=#82b366;" parent="1" vertex="1">
          <mxGeometry x="599.32" y="277.83" width="90.68" height="36.56" as="geometry" />
        </mxCell>
        <mxCell id="nm9v9BbhIRKBIwmMx2jB-129" value="" style="shape=table;startSize=0;container=1;collapsible=0;childLayout=tableLayout;" parent="1" vertex="1">
          <mxGeometry x="710" y="287.79" width="140" height="20" as="geometry" />
        </mxCell>
        <mxCell id="nm9v9BbhIRKBIwmMx2jB-130" value="" style="shape=tableRow;horizontal=0;startSize=0;swimlaneHead=0;swimlaneBody=0;strokeColor=inherit;top=0;left=0;bottom=0;right=0;collapsible=0;dropTarget=0;fillColor=none;points=[[0,0.5],[1,0.5]];portConstraint=eastwest;" parent="nm9v9BbhIRKBIwmMx2jB-129" vertex="1">
          <mxGeometry width="140" height="20" as="geometry" />
        </mxCell>
        <mxCell id="nm9v9BbhIRKBIwmMx2jB-131" value="24" style="shape=partialRectangle;html=1;whiteSpace=wrap;connectable=0;strokeColor=inherit;overflow=hidden;fillColor=none;top=0;left=0;bottom=0;right=0;pointerEvents=1;" parent="nm9v9BbhIRKBIwmMx2jB-130" vertex="1">
          <mxGeometry width="35" height="20" as="geometry">
            <mxRectangle width="35" height="20" as="alternateBounds" />
          </mxGeometry>
        </mxCell>
        <mxCell id="nm9v9BbhIRKBIwmMx2jB-132" value="12" style="shape=partialRectangle;html=1;whiteSpace=wrap;connectable=0;strokeColor=inherit;overflow=hidden;fillColor=none;top=0;left=0;bottom=0;right=0;pointerEvents=1;" parent="nm9v9BbhIRKBIwmMx2jB-130" vertex="1">
          <mxGeometry x="35" width="35" height="20" as="geometry">
            <mxRectangle width="35" height="20" as="alternateBounds" />
          </mxGeometry>
        </mxCell>
        <mxCell id="nm9v9BbhIRKBIwmMx2jB-133" value="8" style="shape=partialRectangle;html=1;whiteSpace=wrap;connectable=0;strokeColor=inherit;overflow=hidden;fillColor=none;top=0;left=0;bottom=0;right=0;pointerEvents=1;" parent="nm9v9BbhIRKBIwmMx2jB-130" vertex="1">
          <mxGeometry x="70" width="35" height="20" as="geometry">
            <mxRectangle width="35" height="20" as="alternateBounds" />
          </mxGeometry>
        </mxCell>
        <mxCell id="nm9v9BbhIRKBIwmMx2jB-134" value="6" style="shape=partialRectangle;html=1;whiteSpace=wrap;connectable=0;strokeColor=inherit;overflow=hidden;fillColor=none;top=0;left=0;bottom=0;right=0;pointerEvents=1;" parent="nm9v9BbhIRKBIwmMx2jB-130" vertex="1">
          <mxGeometry x="105" width="35" height="20" as="geometry">
            <mxRectangle width="35" height="20" as="alternateBounds" />
          </mxGeometry>
        </mxCell>
        <mxCell id="nm9v9BbhIRKBIwmMx2jB-135" value="" style="shape=table;startSize=0;container=1;collapsible=0;childLayout=tableLayout;" parent="1" vertex="1">
          <mxGeometry x="470" y="690" width="130" height="20" as="geometry" />
        </mxCell>
        <mxCell id="nm9v9BbhIRKBIwmMx2jB-136" value="" style="shape=tableRow;horizontal=0;startSize=0;swimlaneHead=0;swimlaneBody=0;strokeColor=inherit;top=0;left=0;bottom=0;right=0;collapsible=0;dropTarget=0;fillColor=none;points=[[0,0.5],[1,0.5]];portConstraint=eastwest;" parent="nm9v9BbhIRKBIwmMx2jB-135" vertex="1">
          <mxGeometry width="130" height="20" as="geometry" />
        </mxCell>
        <mxCell id="nm9v9BbhIRKBIwmMx2jB-137" value="1" style="shape=partialRectangle;html=1;whiteSpace=wrap;connectable=0;strokeColor=inherit;overflow=hidden;fillColor=none;top=0;left=0;bottom=0;right=0;pointerEvents=1;" parent="nm9v9BbhIRKBIwmMx2jB-136" vertex="1">
          <mxGeometry width="26" height="20" as="geometry">
            <mxRectangle width="26" height="20" as="alternateBounds" />
          </mxGeometry>
        </mxCell>
        <mxCell id="nm9v9BbhIRKBIwmMx2jB-138" value="2" style="shape=partialRectangle;html=1;whiteSpace=wrap;connectable=0;strokeColor=inherit;overflow=hidden;fillColor=none;top=0;left=0;bottom=0;right=0;pointerEvents=1;" parent="nm9v9BbhIRKBIwmMx2jB-136" vertex="1">
          <mxGeometry x="26" width="26" height="20" as="geometry">
            <mxRectangle width="26" height="20" as="alternateBounds" />
          </mxGeometry>
        </mxCell>
        <mxCell id="nm9v9BbhIRKBIwmMx2jB-139" value="3" style="shape=partialRectangle;html=1;whiteSpace=wrap;connectable=0;strokeColor=inherit;overflow=hidden;fillColor=none;top=0;left=0;bottom=0;right=0;pointerEvents=1;" parent="nm9v9BbhIRKBIwmMx2jB-136" vertex="1">
          <mxGeometry x="52" width="26" height="20" as="geometry">
            <mxRectangle width="26" height="20" as="alternateBounds" />
          </mxGeometry>
        </mxCell>
        <mxCell id="nm9v9BbhIRKBIwmMx2jB-140" value="4" style="shape=partialRectangle;html=1;whiteSpace=wrap;connectable=0;strokeColor=inherit;overflow=hidden;fillColor=none;top=0;left=0;bottom=0;right=0;pointerEvents=1;" parent="nm9v9BbhIRKBIwmMx2jB-136" vertex="1">
          <mxGeometry x="78" width="26" height="20" as="geometry">
            <mxRectangle width="26" height="20" as="alternateBounds" />
          </mxGeometry>
        </mxCell>
        <mxCell id="nm9v9BbhIRKBIwmMx2jB-141" value="5" style="shape=partialRectangle;html=1;whiteSpace=wrap;connectable=0;strokeColor=inherit;overflow=hidden;fillColor=none;top=0;left=0;bottom=0;right=0;pointerEvents=1;" parent="nm9v9BbhIRKBIwmMx2jB-136" vertex="1">
          <mxGeometry x="104" width="26" height="20" as="geometry">
            <mxRectangle width="26" height="20" as="alternateBounds" />
          </mxGeometry>
        </mxCell>
        <mxCell id="nm9v9BbhIRKBIwmMx2jB-142" value="" style="shape=table;startSize=0;container=1;collapsible=0;childLayout=tableLayout;" parent="1" vertex="1">
          <mxGeometry x="469.44" y="730" width="130" height="20" as="geometry" />
        </mxCell>
        <mxCell id="nm9v9BbhIRKBIwmMx2jB-143" value="" style="shape=tableRow;horizontal=0;startSize=0;swimlaneHead=0;swimlaneBody=0;strokeColor=inherit;top=0;left=0;bottom=0;right=0;collapsible=0;dropTarget=0;fillColor=none;points=[[0,0.5],[1,0.5]];portConstraint=eastwest;" parent="nm9v9BbhIRKBIwmMx2jB-142" vertex="1">
          <mxGeometry width="130" height="20" as="geometry" />
        </mxCell>
        <mxCell id="nm9v9BbhIRKBIwmMx2jB-144" value="3" style="shape=partialRectangle;html=1;whiteSpace=wrap;connectable=0;strokeColor=inherit;overflow=hidden;fillColor=none;top=0;left=0;bottom=0;right=0;pointerEvents=1;" parent="nm9v9BbhIRKBIwmMx2jB-143" vertex="1">
          <mxGeometry width="26" height="20" as="geometry">
            <mxRectangle width="26" height="20" as="alternateBounds" />
          </mxGeometry>
        </mxCell>
        <mxCell id="nm9v9BbhIRKBIwmMx2jB-145" value="4" style="shape=partialRectangle;html=1;whiteSpace=wrap;connectable=0;strokeColor=inherit;overflow=hidden;fillColor=none;top=0;left=0;bottom=0;right=0;pointerEvents=1;" parent="nm9v9BbhIRKBIwmMx2jB-143" vertex="1">
          <mxGeometry x="26" width="26" height="20" as="geometry">
            <mxRectangle width="26" height="20" as="alternateBounds" />
          </mxGeometry>
        </mxCell>
        <mxCell id="nm9v9BbhIRKBIwmMx2jB-146" value="5" style="shape=partialRectangle;html=1;whiteSpace=wrap;connectable=0;strokeColor=inherit;overflow=hidden;fillColor=none;top=0;left=0;bottom=0;right=0;pointerEvents=1;" parent="nm9v9BbhIRKBIwmMx2jB-143" vertex="1">
          <mxGeometry x="52" width="26" height="20" as="geometry">
            <mxRectangle width="26" height="20" as="alternateBounds" />
          </mxGeometry>
        </mxCell>
        <mxCell id="nm9v9BbhIRKBIwmMx2jB-147" value="1" style="shape=partialRectangle;html=1;whiteSpace=wrap;connectable=0;strokeColor=inherit;overflow=hidden;fillColor=none;top=0;left=0;bottom=0;right=0;pointerEvents=1;" parent="nm9v9BbhIRKBIwmMx2jB-143" vertex="1">
          <mxGeometry x="78" width="26" height="20" as="geometry">
            <mxRectangle width="26" height="20" as="alternateBounds" />
          </mxGeometry>
        </mxCell>
        <mxCell id="nm9v9BbhIRKBIwmMx2jB-148" value="2" style="shape=partialRectangle;html=1;whiteSpace=wrap;connectable=0;strokeColor=inherit;overflow=hidden;fillColor=none;top=0;left=0;bottom=0;right=0;pointerEvents=1;" parent="nm9v9BbhIRKBIwmMx2jB-143" vertex="1">
          <mxGeometry x="104" width="26" height="20" as="geometry">
            <mxRectangle width="26" height="20" as="alternateBounds" />
          </mxGeometry>
        </mxCell>
        <mxCell id="nm9v9BbhIRKBIwmMx2jB-149" value="" style="shape=table;startSize=0;container=1;collapsible=0;childLayout=tableLayout;" parent="1" vertex="1">
          <mxGeometry x="467.33" y="770" width="130" height="20" as="geometry" />
        </mxCell>
        <mxCell id="nm9v9BbhIRKBIwmMx2jB-150" value="" style="shape=tableRow;horizontal=0;startSize=0;swimlaneHead=0;swimlaneBody=0;strokeColor=inherit;top=0;left=0;bottom=0;right=0;collapsible=0;dropTarget=0;fillColor=none;points=[[0,0.5],[1,0.5]];portConstraint=eastwest;" parent="nm9v9BbhIRKBIwmMx2jB-149" vertex="1">
          <mxGeometry width="130" height="20" as="geometry" />
        </mxCell>
        <mxCell id="nm9v9BbhIRKBIwmMx2jB-151" value="-2" style="shape=partialRectangle;html=1;whiteSpace=wrap;connectable=0;strokeColor=inherit;overflow=hidden;fillColor=none;top=0;left=0;bottom=0;right=0;pointerEvents=1;" parent="nm9v9BbhIRKBIwmMx2jB-150" vertex="1">
          <mxGeometry width="26" height="20" as="geometry">
            <mxRectangle width="26" height="20" as="alternateBounds" />
          </mxGeometry>
        </mxCell>
        <mxCell id="nm9v9BbhIRKBIwmMx2jB-152" value="-2" style="shape=partialRectangle;html=1;whiteSpace=wrap;connectable=0;strokeColor=inherit;overflow=hidden;fillColor=none;top=0;left=0;bottom=0;right=0;pointerEvents=1;" parent="nm9v9BbhIRKBIwmMx2jB-150" vertex="1">
          <mxGeometry x="26" width="26" height="20" as="geometry">
            <mxRectangle width="26" height="20" as="alternateBounds" />
          </mxGeometry>
        </mxCell>
        <mxCell id="nm9v9BbhIRKBIwmMx2jB-153" value="-2" style="shape=partialRectangle;html=1;whiteSpace=wrap;connectable=0;strokeColor=inherit;overflow=hidden;fillColor=none;top=0;left=0;bottom=0;right=0;pointerEvents=1;" parent="nm9v9BbhIRKBIwmMx2jB-150" vertex="1">
          <mxGeometry x="52" width="26" height="20" as="geometry">
            <mxRectangle width="26" height="20" as="alternateBounds" />
          </mxGeometry>
        </mxCell>
        <mxCell id="nm9v9BbhIRKBIwmMx2jB-154" value="3" style="shape=partialRectangle;html=1;whiteSpace=wrap;connectable=0;strokeColor=inherit;overflow=hidden;fillColor=none;top=0;left=0;bottom=0;right=0;pointerEvents=1;" parent="nm9v9BbhIRKBIwmMx2jB-150" vertex="1">
          <mxGeometry x="78" width="26" height="20" as="geometry">
            <mxRectangle width="26" height="20" as="alternateBounds" />
          </mxGeometry>
        </mxCell>
        <mxCell id="nm9v9BbhIRKBIwmMx2jB-155" value="3" style="shape=partialRectangle;html=1;whiteSpace=wrap;connectable=0;strokeColor=inherit;overflow=hidden;fillColor=none;top=0;left=0;bottom=0;right=0;pointerEvents=1;" parent="nm9v9BbhIRKBIwmMx2jB-150" vertex="1">
          <mxGeometry x="104" width="26" height="20" as="geometry">
            <mxRectangle width="26" height="20" as="alternateBounds" />
          </mxGeometry>
        </mxCell>
        <mxCell id="nm9v9BbhIRKBIwmMx2jB-156" value="" style="shape=table;startSize=0;container=1;collapsible=0;childLayout=tableLayout;" parent="1" vertex="1">
          <mxGeometry x="634.5500000000001" y="770" width="130" height="20" as="geometry" />
        </mxCell>
        <mxCell id="nm9v9BbhIRKBIwmMx2jB-157" value="" style="shape=tableRow;horizontal=0;startSize=0;swimlaneHead=0;swimlaneBody=0;strokeColor=inherit;top=0;left=0;bottom=0;right=0;collapsible=0;dropTarget=0;fillColor=none;points=[[0,0.5],[1,0.5]];portConstraint=eastwest;" parent="nm9v9BbhIRKBIwmMx2jB-156" vertex="1">
          <mxGeometry width="130" height="20" as="geometry" />
        </mxCell>
        <mxCell id="nm9v9BbhIRKBIwmMx2jB-158" value="4" style="shape=partialRectangle;html=1;whiteSpace=wrap;connectable=0;strokeColor=inherit;overflow=hidden;fillColor=none;top=0;left=0;bottom=0;right=0;pointerEvents=1;" parent="nm9v9BbhIRKBIwmMx2jB-157" vertex="1">
          <mxGeometry width="26" height="20" as="geometry">
            <mxRectangle width="26" height="20" as="alternateBounds" />
          </mxGeometry>
        </mxCell>
        <mxCell id="nm9v9BbhIRKBIwmMx2jB-159" value="-10" style="shape=partialRectangle;html=1;whiteSpace=wrap;connectable=0;strokeColor=inherit;overflow=hidden;fillColor=none;top=0;left=0;bottom=0;right=0;pointerEvents=1;" parent="nm9v9BbhIRKBIwmMx2jB-157" vertex="1">
          <mxGeometry x="26" width="26" height="20" as="geometry">
            <mxRectangle width="26" height="20" as="alternateBounds" />
          </mxGeometry>
        </mxCell>
        <mxCell id="nm9v9BbhIRKBIwmMx2jB-160" value="2" style="shape=partialRectangle;html=1;whiteSpace=wrap;connectable=0;strokeColor=inherit;overflow=hidden;fillColor=none;top=0;left=0;bottom=0;right=0;pointerEvents=1;" parent="nm9v9BbhIRKBIwmMx2jB-157" vertex="1">
          <mxGeometry x="52" width="26" height="20" as="geometry">
            <mxRectangle width="26" height="20" as="alternateBounds" />
          </mxGeometry>
        </mxCell>
        <mxCell id="nm9v9BbhIRKBIwmMx2jB-161" value="2" style="shape=partialRectangle;html=1;whiteSpace=wrap;connectable=0;strokeColor=inherit;overflow=hidden;fillColor=none;top=0;left=0;bottom=0;right=0;pointerEvents=1;" parent="nm9v9BbhIRKBIwmMx2jB-157" vertex="1">
          <mxGeometry x="78" width="26" height="20" as="geometry">
            <mxRectangle width="26" height="20" as="alternateBounds" />
          </mxGeometry>
        </mxCell>
        <mxCell id="nm9v9BbhIRKBIwmMx2jB-162" value="2" style="shape=partialRectangle;html=1;whiteSpace=wrap;connectable=0;strokeColor=inherit;overflow=hidden;fillColor=none;top=0;left=0;bottom=0;right=0;pointerEvents=1;" parent="nm9v9BbhIRKBIwmMx2jB-157" vertex="1">
          <mxGeometry x="104" width="26" height="20" as="geometry">
            <mxRectangle width="26" height="20" as="alternateBounds" />
          </mxGeometry>
        </mxCell>
        <mxCell id="DS1Zon8ItPti5EzgyLwO-8" value="" style="shape=table;startSize=0;container=1;collapsible=0;childLayout=tableLayout;" vertex="1" parent="1">
          <mxGeometry x="360" y="830" width="240" height="30" as="geometry" />
        </mxCell>
        <mxCell id="DS1Zon8ItPti5EzgyLwO-9" value="" style="shape=tableRow;horizontal=0;startSize=0;swimlaneHead=0;swimlaneBody=0;strokeColor=inherit;top=0;left=0;bottom=0;right=0;collapsible=0;dropTarget=0;fillColor=none;points=[[0,0.5],[1,0.5]];portConstraint=eastwest;" vertex="1" parent="DS1Zon8ItPti5EzgyLwO-8">
          <mxGeometry width="240" height="30" as="geometry" />
        </mxCell>
        <mxCell id="DS1Zon8ItPti5EzgyLwO-10" value="1" style="shape=partialRectangle;html=1;whiteSpace=wrap;connectable=0;strokeColor=inherit;overflow=hidden;fillColor=none;top=0;left=0;bottom=0;right=0;pointerEvents=1;" vertex="1" parent="DS1Zon8ItPti5EzgyLwO-9">
          <mxGeometry width="34" height="30" as="geometry">
            <mxRectangle width="34" height="30" as="alternateBounds" />
          </mxGeometry>
        </mxCell>
        <mxCell id="DS1Zon8ItPti5EzgyLwO-11" value="2" style="shape=partialRectangle;html=1;whiteSpace=wrap;connectable=0;strokeColor=inherit;overflow=hidden;fillColor=none;top=0;left=0;bottom=0;right=0;pointerEvents=1;" vertex="1" parent="DS1Zon8ItPti5EzgyLwO-9">
          <mxGeometry x="34" width="35" height="30" as="geometry">
            <mxRectangle width="35" height="30" as="alternateBounds" />
          </mxGeometry>
        </mxCell>
        <mxCell id="DS1Zon8ItPti5EzgyLwO-12" value="3" style="shape=partialRectangle;html=1;whiteSpace=wrap;connectable=0;strokeColor=inherit;overflow=hidden;fillColor=none;top=0;left=0;bottom=0;right=0;pointerEvents=1;" vertex="1" parent="DS1Zon8ItPti5EzgyLwO-9">
          <mxGeometry x="69" width="34" height="30" as="geometry">
            <mxRectangle width="34" height="30" as="alternateBounds" />
          </mxGeometry>
        </mxCell>
        <mxCell id="DS1Zon8ItPti5EzgyLwO-13" value="4" style="shape=partialRectangle;html=1;whiteSpace=wrap;connectable=0;strokeColor=inherit;overflow=hidden;fillColor=none;top=0;left=0;bottom=0;right=0;pointerEvents=1;" vertex="1" parent="DS1Zon8ItPti5EzgyLwO-9">
          <mxGeometry x="103" width="34" height="30" as="geometry">
            <mxRectangle width="34" height="30" as="alternateBounds" />
          </mxGeometry>
        </mxCell>
        <mxCell id="DS1Zon8ItPti5EzgyLwO-14" value="5" style="shape=partialRectangle;html=1;whiteSpace=wrap;connectable=0;strokeColor=inherit;overflow=hidden;fillColor=none;top=0;left=0;bottom=0;right=0;pointerEvents=1;" vertex="1" parent="DS1Zon8ItPti5EzgyLwO-9">
          <mxGeometry x="137" width="34" height="30" as="geometry">
            <mxRectangle width="34" height="30" as="alternateBounds" />
          </mxGeometry>
        </mxCell>
        <mxCell id="DS1Zon8ItPti5EzgyLwO-15" value="6" style="shape=partialRectangle;html=1;whiteSpace=wrap;connectable=0;strokeColor=inherit;overflow=hidden;fillColor=none;top=0;left=0;bottom=0;right=0;pointerEvents=1;" vertex="1" parent="DS1Zon8ItPti5EzgyLwO-9">
          <mxGeometry x="171" width="35" height="30" as="geometry">
            <mxRectangle width="35" height="30" as="alternateBounds" />
          </mxGeometry>
        </mxCell>
        <mxCell id="DS1Zon8ItPti5EzgyLwO-16" value="70" style="shape=partialRectangle;html=1;whiteSpace=wrap;connectable=0;strokeColor=inherit;overflow=hidden;fillColor=none;top=0;left=0;bottom=0;right=0;pointerEvents=1;" vertex="1" parent="DS1Zon8ItPti5EzgyLwO-9">
          <mxGeometry x="206" width="34" height="30" as="geometry">
            <mxRectangle width="34" height="30" as="alternateBounds" />
          </mxGeometry>
        </mxCell>
        <mxCell id="DS1Zon8ItPti5EzgyLwO-17" value="" style="shape=table;startSize=0;container=1;collapsible=0;childLayout=tableLayout;" vertex="1" parent="1">
          <mxGeometry x="360" y="870" width="240" height="30" as="geometry" />
        </mxCell>
        <mxCell id="DS1Zon8ItPti5EzgyLwO-18" value="" style="shape=tableRow;horizontal=0;startSize=0;swimlaneHead=0;swimlaneBody=0;strokeColor=inherit;top=0;left=0;bottom=0;right=0;collapsible=0;dropTarget=0;fillColor=none;points=[[0,0.5],[1,0.5]];portConstraint=eastwest;" vertex="1" parent="DS1Zon8ItPti5EzgyLwO-17">
          <mxGeometry width="240" height="30" as="geometry" />
        </mxCell>
        <mxCell id="DS1Zon8ItPti5EzgyLwO-19" value="2" style="shape=partialRectangle;html=1;whiteSpace=wrap;connectable=0;strokeColor=inherit;overflow=hidden;fillColor=none;top=0;left=0;bottom=0;right=0;pointerEvents=1;" vertex="1" parent="DS1Zon8ItPti5EzgyLwO-18">
          <mxGeometry width="34" height="30" as="geometry">
            <mxRectangle width="34" height="30" as="alternateBounds" />
          </mxGeometry>
        </mxCell>
        <mxCell id="DS1Zon8ItPti5EzgyLwO-20" value="3" style="shape=partialRectangle;html=1;whiteSpace=wrap;connectable=0;strokeColor=inherit;overflow=hidden;fillColor=none;top=0;left=0;bottom=0;right=0;pointerEvents=1;" vertex="1" parent="DS1Zon8ItPti5EzgyLwO-18">
          <mxGeometry x="34" width="35" height="30" as="geometry">
            <mxRectangle width="35" height="30" as="alternateBounds" />
          </mxGeometry>
        </mxCell>
        <mxCell id="DS1Zon8ItPti5EzgyLwO-21" value="4" style="shape=partialRectangle;html=1;whiteSpace=wrap;connectable=0;strokeColor=inherit;overflow=hidden;fillColor=none;top=0;left=0;bottom=0;right=0;pointerEvents=1;" vertex="1" parent="DS1Zon8ItPti5EzgyLwO-18">
          <mxGeometry x="69" width="34" height="30" as="geometry">
            <mxRectangle width="34" height="30" as="alternateBounds" />
          </mxGeometry>
        </mxCell>
        <mxCell id="DS1Zon8ItPti5EzgyLwO-22" value="3" style="shape=partialRectangle;html=1;whiteSpace=wrap;connectable=0;strokeColor=inherit;overflow=hidden;fillColor=none;top=0;left=0;bottom=0;right=0;pointerEvents=1;" vertex="1" parent="DS1Zon8ItPti5EzgyLwO-18">
          <mxGeometry x="103" width="34" height="30" as="geometry">
            <mxRectangle width="34" height="30" as="alternateBounds" />
          </mxGeometry>
        </mxCell>
        <mxCell id="DS1Zon8ItPti5EzgyLwO-23" value="9" style="shape=partialRectangle;html=1;whiteSpace=wrap;connectable=0;strokeColor=inherit;overflow=hidden;fillColor=none;top=0;left=0;bottom=0;right=0;pointerEvents=1;" vertex="1" parent="DS1Zon8ItPti5EzgyLwO-18">
          <mxGeometry x="137" width="34" height="30" as="geometry">
            <mxRectangle width="34" height="30" as="alternateBounds" />
          </mxGeometry>
        </mxCell>
        <mxCell id="DS1Zon8ItPti5EzgyLwO-24" value="6" style="shape=partialRectangle;html=1;whiteSpace=wrap;connectable=0;strokeColor=inherit;overflow=hidden;fillColor=none;top=0;left=0;bottom=0;right=0;pointerEvents=1;" vertex="1" parent="DS1Zon8ItPti5EzgyLwO-18">
          <mxGeometry x="171" width="35" height="30" as="geometry">
            <mxRectangle width="35" height="30" as="alternateBounds" />
          </mxGeometry>
        </mxCell>
        <mxCell id="DS1Zon8ItPti5EzgyLwO-25" value="2" style="shape=partialRectangle;html=1;whiteSpace=wrap;connectable=0;strokeColor=inherit;overflow=hidden;fillColor=none;top=0;left=0;bottom=0;right=0;pointerEvents=1;" vertex="1" parent="DS1Zon8ItPti5EzgyLwO-18">
          <mxGeometry x="206" width="34" height="30" as="geometry">
            <mxRectangle width="34" height="30" as="alternateBounds" />
          </mxGeometry>
        </mxCell>
        <mxCell id="DS1Zon8ItPti5EzgyLwO-26" value="" style="shape=table;startSize=0;container=1;collapsible=0;childLayout=tableLayout;" vertex="1" parent="1">
          <mxGeometry x="360" y="910" width="240" height="30" as="geometry" />
        </mxCell>
        <mxCell id="DS1Zon8ItPti5EzgyLwO-27" value="" style="shape=tableRow;horizontal=0;startSize=0;swimlaneHead=0;swimlaneBody=0;strokeColor=inherit;top=0;left=0;bottom=0;right=0;collapsible=0;dropTarget=0;fillColor=none;points=[[0,0.5],[1,0.5]];portConstraint=eastwest;" vertex="1" parent="DS1Zon8ItPti5EzgyLwO-26">
          <mxGeometry width="240" height="30" as="geometry" />
        </mxCell>
        <mxCell id="DS1Zon8ItPti5EzgyLwO-28" value="-1" style="shape=partialRectangle;html=1;whiteSpace=wrap;connectable=0;strokeColor=inherit;overflow=hidden;fillColor=none;top=0;left=0;bottom=0;right=0;pointerEvents=1;" vertex="1" parent="DS1Zon8ItPti5EzgyLwO-27">
          <mxGeometry width="34" height="30" as="geometry">
            <mxRectangle width="34" height="30" as="alternateBounds" />
          </mxGeometry>
        </mxCell>
        <mxCell id="DS1Zon8ItPti5EzgyLwO-29" value="-1" style="shape=partialRectangle;html=1;whiteSpace=wrap;connectable=0;strokeColor=inherit;overflow=hidden;fillColor=none;top=0;left=0;bottom=0;right=0;pointerEvents=1;" vertex="1" parent="DS1Zon8ItPti5EzgyLwO-27">
          <mxGeometry x="34" width="35" height="30" as="geometry">
            <mxRectangle width="35" height="30" as="alternateBounds" />
          </mxGeometry>
        </mxCell>
        <mxCell id="DS1Zon8ItPti5EzgyLwO-30" value="-1" style="shape=partialRectangle;html=1;whiteSpace=wrap;connectable=0;strokeColor=inherit;overflow=hidden;fillColor=none;top=0;left=0;bottom=0;right=0;pointerEvents=1;" vertex="1" parent="DS1Zon8ItPti5EzgyLwO-27">
          <mxGeometry x="69" width="34" height="30" as="geometry">
            <mxRectangle width="34" height="30" as="alternateBounds" />
          </mxGeometry>
        </mxCell>
        <mxCell id="DS1Zon8ItPti5EzgyLwO-31" value="1" style="shape=partialRectangle;html=1;whiteSpace=wrap;connectable=0;strokeColor=inherit;overflow=hidden;fillColor=none;top=0;left=0;bottom=0;right=0;pointerEvents=1;" vertex="1" parent="DS1Zon8ItPti5EzgyLwO-27">
          <mxGeometry x="103" width="34" height="30" as="geometry">
            <mxRectangle width="34" height="30" as="alternateBounds" />
          </mxGeometry>
        </mxCell>
        <mxCell id="DS1Zon8ItPti5EzgyLwO-32" value="-3" style="shape=partialRectangle;html=1;whiteSpace=wrap;connectable=0;strokeColor=inherit;overflow=hidden;fillColor=none;top=0;left=0;bottom=0;right=0;pointerEvents=1;" vertex="1" parent="DS1Zon8ItPti5EzgyLwO-27">
          <mxGeometry x="137" width="34" height="30" as="geometry">
            <mxRectangle width="34" height="30" as="alternateBounds" />
          </mxGeometry>
        </mxCell>
        <mxCell id="DS1Zon8ItPti5EzgyLwO-33" value="0" style="shape=partialRectangle;html=1;whiteSpace=wrap;connectable=0;strokeColor=inherit;overflow=hidden;fillColor=none;top=0;left=0;bottom=0;right=0;pointerEvents=1;" vertex="1" parent="DS1Zon8ItPti5EzgyLwO-27">
          <mxGeometry x="171" width="35" height="30" as="geometry">
            <mxRectangle width="35" height="30" as="alternateBounds" />
          </mxGeometry>
        </mxCell>
        <mxCell id="DS1Zon8ItPti5EzgyLwO-34" value="68" style="shape=partialRectangle;html=1;whiteSpace=wrap;connectable=0;strokeColor=inherit;overflow=hidden;fillColor=none;top=0;left=0;bottom=0;right=0;pointerEvents=1;" vertex="1" parent="DS1Zon8ItPti5EzgyLwO-27">
          <mxGeometry x="206" width="34" height="30" as="geometry">
            <mxRectangle width="34" height="30" as="alternateBounds" />
          </mxGeometry>
        </mxCell>
      </root>
    </mxGraphModel>
  </diagram>
  <diagram id="yP1uagBFk36siDQx8Xzx" name="Page-2">
    <mxGraphModel dx="833" dy="485" grid="1" gridSize="10" guides="1" tooltips="1" connect="1" arrows="1" fold="1" page="1" pageScale="1" pageWidth="850" pageHeight="1100" math="0" shadow="0">
      <root>
        <mxCell id="0" />
        <mxCell id="1" parent="0" />
        <mxCell id="drJmobVr7tSMEa6RdTNR-1" value="" style="shape=table;startSize=0;container=1;collapsible=0;childLayout=tableLayout;" vertex="1" parent="1">
          <mxGeometry x="40" y="70" width="300" height="40" as="geometry" />
        </mxCell>
        <mxCell id="drJmobVr7tSMEa6RdTNR-2" value="" style="shape=tableRow;horizontal=0;startSize=0;swimlaneHead=0;swimlaneBody=0;strokeColor=inherit;top=0;left=0;bottom=0;right=0;collapsible=0;dropTarget=0;fillColor=none;points=[[0,0.5],[1,0.5]];portConstraint=eastwest;" vertex="1" parent="drJmobVr7tSMEa6RdTNR-1">
          <mxGeometry width="300" height="40" as="geometry" />
        </mxCell>
        <mxCell id="drJmobVr7tSMEa6RdTNR-3" value="1" style="shape=partialRectangle;html=1;whiteSpace=wrap;connectable=0;strokeColor=inherit;overflow=hidden;fillColor=none;top=0;left=0;bottom=0;right=0;pointerEvents=1;fontSize=23;" vertex="1" parent="drJmobVr7tSMEa6RdTNR-2">
          <mxGeometry width="60" height="40" as="geometry">
            <mxRectangle width="60" height="40" as="alternateBounds" />
          </mxGeometry>
        </mxCell>
        <mxCell id="drJmobVr7tSMEa6RdTNR-4" value="2" style="shape=partialRectangle;html=1;whiteSpace=wrap;connectable=0;strokeColor=inherit;overflow=hidden;fillColor=none;top=0;left=0;bottom=0;right=0;pointerEvents=1;fontSize=23;" vertex="1" parent="drJmobVr7tSMEa6RdTNR-2">
          <mxGeometry x="60" width="60" height="40" as="geometry">
            <mxRectangle width="60" height="40" as="alternateBounds" />
          </mxGeometry>
        </mxCell>
        <mxCell id="drJmobVr7tSMEa6RdTNR-5" value="1" style="shape=partialRectangle;html=1;whiteSpace=wrap;connectable=0;strokeColor=inherit;overflow=hidden;fillColor=none;top=0;left=0;bottom=0;right=0;pointerEvents=1;fontSize=23;" vertex="1" parent="drJmobVr7tSMEa6RdTNR-2">
          <mxGeometry x="120" width="60" height="40" as="geometry">
            <mxRectangle width="60" height="40" as="alternateBounds" />
          </mxGeometry>
        </mxCell>
        <mxCell id="drJmobVr7tSMEa6RdTNR-6" value="2" style="shape=partialRectangle;html=1;whiteSpace=wrap;connectable=0;strokeColor=inherit;overflow=hidden;fillColor=none;top=0;left=0;bottom=0;right=0;pointerEvents=1;fontSize=23;" vertex="1" parent="drJmobVr7tSMEa6RdTNR-2">
          <mxGeometry x="180" width="60" height="40" as="geometry">
            <mxRectangle width="60" height="40" as="alternateBounds" />
          </mxGeometry>
        </mxCell>
        <mxCell id="drJmobVr7tSMEa6RdTNR-7" value="1" style="shape=partialRectangle;html=1;whiteSpace=wrap;connectable=0;strokeColor=inherit;overflow=hidden;fillColor=none;top=0;left=0;bottom=0;right=0;pointerEvents=1;fontSize=23;" vertex="1" parent="drJmobVr7tSMEa6RdTNR-2">
          <mxGeometry x="240" width="60" height="40" as="geometry">
            <mxRectangle width="60" height="40" as="alternateBounds" />
          </mxGeometry>
        </mxCell>
        <mxCell id="drJmobVr7tSMEa6RdTNR-8" value="" style="shape=table;startSize=0;container=1;collapsible=0;childLayout=tableLayout;fontSize=23;" vertex="1" parent="1">
          <mxGeometry x="40" y="130" width="300" height="40" as="geometry" />
        </mxCell>
        <mxCell id="drJmobVr7tSMEa6RdTNR-9" value="" style="shape=tableRow;horizontal=0;startSize=0;swimlaneHead=0;swimlaneBody=0;strokeColor=inherit;top=0;left=0;bottom=0;right=0;collapsible=0;dropTarget=0;fillColor=none;points=[[0,0.5],[1,0.5]];portConstraint=eastwest;" vertex="1" parent="drJmobVr7tSMEa6RdTNR-8">
          <mxGeometry width="300" height="40" as="geometry" />
        </mxCell>
        <mxCell id="drJmobVr7tSMEa6RdTNR-10" value="1" style="shape=partialRectangle;html=1;whiteSpace=wrap;connectable=0;strokeColor=inherit;overflow=hidden;fillColor=none;top=0;left=0;bottom=0;right=0;pointerEvents=1;fontSize=23;" vertex="1" parent="drJmobVr7tSMEa6RdTNR-9">
          <mxGeometry width="60" height="40" as="geometry">
            <mxRectangle width="60" height="40" as="alternateBounds" />
          </mxGeometry>
        </mxCell>
        <mxCell id="drJmobVr7tSMEa6RdTNR-11" value="2" style="shape=partialRectangle;html=1;whiteSpace=wrap;connectable=0;strokeColor=inherit;overflow=hidden;fillColor=none;top=0;left=0;bottom=0;right=0;pointerEvents=1;fontSize=23;" vertex="1" parent="drJmobVr7tSMEa6RdTNR-9">
          <mxGeometry x="60" width="60" height="40" as="geometry">
            <mxRectangle width="60" height="40" as="alternateBounds" />
          </mxGeometry>
        </mxCell>
        <mxCell id="drJmobVr7tSMEa6RdTNR-12" value="1" style="shape=partialRectangle;html=1;whiteSpace=wrap;connectable=0;strokeColor=inherit;overflow=hidden;fillColor=none;top=0;left=0;bottom=0;right=0;pointerEvents=1;fontSize=23;" vertex="1" parent="drJmobVr7tSMEa6RdTNR-9">
          <mxGeometry x="120" width="60" height="40" as="geometry">
            <mxRectangle width="60" height="40" as="alternateBounds" />
          </mxGeometry>
        </mxCell>
        <mxCell id="drJmobVr7tSMEa6RdTNR-13" value="&lt;font style=&quot;font-size: 23px;&quot;&gt;2&lt;/font&gt;" style="shape=partialRectangle;html=1;whiteSpace=wrap;connectable=0;strokeColor=inherit;overflow=hidden;fillColor=none;top=0;left=0;bottom=0;right=0;pointerEvents=1;fontSize=23;" vertex="1" parent="drJmobVr7tSMEa6RdTNR-9">
          <mxGeometry x="180" width="60" height="40" as="geometry">
            <mxRectangle width="60" height="40" as="alternateBounds" />
          </mxGeometry>
        </mxCell>
        <mxCell id="drJmobVr7tSMEa6RdTNR-14" value="1" style="shape=partialRectangle;html=1;whiteSpace=wrap;connectable=0;strokeColor=inherit;overflow=hidden;fillColor=none;top=0;left=0;bottom=0;right=0;pointerEvents=1;fontSize=23;" vertex="1" parent="drJmobVr7tSMEa6RdTNR-9">
          <mxGeometry x="240" width="60" height="40" as="geometry">
            <mxRectangle width="60" height="40" as="alternateBounds" />
          </mxGeometry>
        </mxCell>
        <mxCell id="drJmobVr7tSMEa6RdTNR-15" value="" style="shape=table;startSize=0;container=1;collapsible=0;childLayout=tableLayout;" vertex="1" parent="1">
          <mxGeometry x="390" y="70" width="300" height="40" as="geometry" />
        </mxCell>
        <mxCell id="drJmobVr7tSMEa6RdTNR-16" value="" style="shape=tableRow;horizontal=0;startSize=0;swimlaneHead=0;swimlaneBody=0;strokeColor=inherit;top=0;left=0;bottom=0;right=0;collapsible=0;dropTarget=0;fillColor=none;points=[[0,0.5],[1,0.5]];portConstraint=eastwest;" vertex="1" parent="drJmobVr7tSMEa6RdTNR-15">
          <mxGeometry width="300" height="40" as="geometry" />
        </mxCell>
        <mxCell id="drJmobVr7tSMEa6RdTNR-17" value="1" style="shape=partialRectangle;html=1;whiteSpace=wrap;connectable=0;strokeColor=inherit;overflow=hidden;fillColor=none;top=0;left=0;bottom=0;right=0;pointerEvents=1;fontSize=23;" vertex="1" parent="drJmobVr7tSMEa6RdTNR-16">
          <mxGeometry width="60" height="40" as="geometry">
            <mxRectangle width="60" height="40" as="alternateBounds" />
          </mxGeometry>
        </mxCell>
        <mxCell id="drJmobVr7tSMEa6RdTNR-18" value="1" style="shape=partialRectangle;html=1;whiteSpace=wrap;connectable=0;strokeColor=inherit;overflow=hidden;fillColor=none;top=0;left=0;bottom=0;right=0;pointerEvents=1;fontSize=23;" vertex="1" parent="drJmobVr7tSMEa6RdTNR-16">
          <mxGeometry x="60" width="60" height="40" as="geometry">
            <mxRectangle width="60" height="40" as="alternateBounds" />
          </mxGeometry>
        </mxCell>
        <mxCell id="drJmobVr7tSMEa6RdTNR-19" value="1" style="shape=partialRectangle;html=1;whiteSpace=wrap;connectable=0;strokeColor=inherit;overflow=hidden;fillColor=none;top=0;left=0;bottom=0;right=0;pointerEvents=1;fontSize=23;" vertex="1" parent="drJmobVr7tSMEa6RdTNR-16">
          <mxGeometry x="120" width="60" height="40" as="geometry">
            <mxRectangle width="60" height="40" as="alternateBounds" />
          </mxGeometry>
        </mxCell>
        <mxCell id="drJmobVr7tSMEa6RdTNR-20" value="1" style="shape=partialRectangle;html=1;whiteSpace=wrap;connectable=0;strokeColor=inherit;overflow=hidden;fillColor=none;top=0;left=0;bottom=0;right=0;pointerEvents=1;fontSize=23;" vertex="1" parent="drJmobVr7tSMEa6RdTNR-16">
          <mxGeometry x="180" width="60" height="40" as="geometry">
            <mxRectangle width="60" height="40" as="alternateBounds" />
          </mxGeometry>
        </mxCell>
        <mxCell id="drJmobVr7tSMEa6RdTNR-21" value="1" style="shape=partialRectangle;html=1;whiteSpace=wrap;connectable=0;strokeColor=inherit;overflow=hidden;fillColor=none;top=0;left=0;bottom=0;right=0;pointerEvents=1;fontSize=23;" vertex="1" parent="drJmobVr7tSMEa6RdTNR-16">
          <mxGeometry x="240" width="60" height="40" as="geometry">
            <mxRectangle width="60" height="40" as="alternateBounds" />
          </mxGeometry>
        </mxCell>
        <mxCell id="drJmobVr7tSMEa6RdTNR-22" value="" style="shape=table;startSize=0;container=1;collapsible=0;childLayout=tableLayout;fontSize=23;" vertex="1" parent="1">
          <mxGeometry x="390" y="130" width="360" height="40" as="geometry" />
        </mxCell>
        <mxCell id="drJmobVr7tSMEa6RdTNR-23" value="" style="shape=tableRow;horizontal=0;startSize=0;swimlaneHead=0;swimlaneBody=0;strokeColor=inherit;top=0;left=0;bottom=0;right=0;collapsible=0;dropTarget=0;fillColor=none;points=[[0,0.5],[1,0.5]];portConstraint=eastwest;" vertex="1" parent="drJmobVr7tSMEa6RdTNR-22">
          <mxGeometry width="360" height="40" as="geometry" />
        </mxCell>
        <mxCell id="drJmobVr7tSMEa6RdTNR-24" value="1" style="shape=partialRectangle;html=1;whiteSpace=wrap;connectable=0;strokeColor=inherit;overflow=hidden;fillColor=none;top=0;left=0;bottom=0;right=0;pointerEvents=1;fontSize=23;" vertex="1" parent="drJmobVr7tSMEa6RdTNR-23">
          <mxGeometry width="60" height="40" as="geometry">
            <mxRectangle width="60" height="40" as="alternateBounds" />
          </mxGeometry>
        </mxCell>
        <mxCell id="drJmobVr7tSMEa6RdTNR-25" value="2" style="shape=partialRectangle;html=1;whiteSpace=wrap;connectable=0;strokeColor=inherit;overflow=hidden;fillColor=none;top=0;left=0;bottom=0;right=0;pointerEvents=1;fontSize=23;" vertex="1" parent="drJmobVr7tSMEa6RdTNR-23">
          <mxGeometry x="60" width="60" height="40" as="geometry">
            <mxRectangle width="60" height="40" as="alternateBounds" />
          </mxGeometry>
        </mxCell>
        <mxCell id="drJmobVr7tSMEa6RdTNR-26" value="1" style="shape=partialRectangle;html=1;whiteSpace=wrap;connectable=0;strokeColor=inherit;overflow=hidden;fillColor=none;top=0;left=0;bottom=0;right=0;pointerEvents=1;fontSize=23;" vertex="1" parent="drJmobVr7tSMEa6RdTNR-23">
          <mxGeometry x="120" width="60" height="40" as="geometry">
            <mxRectangle width="60" height="40" as="alternateBounds" />
          </mxGeometry>
        </mxCell>
        <mxCell id="drJmobVr7tSMEa6RdTNR-27" value="&lt;font style=&quot;font-size: 23px;&quot;&gt;2&lt;/font&gt;" style="shape=partialRectangle;html=1;whiteSpace=wrap;connectable=0;strokeColor=inherit;overflow=hidden;fillColor=none;top=0;left=0;bottom=0;right=0;pointerEvents=1;fontSize=23;" vertex="1" parent="drJmobVr7tSMEa6RdTNR-23">
          <mxGeometry x="180" width="60" height="40" as="geometry">
            <mxRectangle width="60" height="40" as="alternateBounds" />
          </mxGeometry>
        </mxCell>
        <mxCell id="drJmobVr7tSMEa6RdTNR-28" value="1" style="shape=partialRectangle;html=1;whiteSpace=wrap;connectable=0;strokeColor=inherit;overflow=hidden;fillColor=none;top=0;left=0;bottom=0;right=0;pointerEvents=1;fontSize=23;" vertex="1" parent="drJmobVr7tSMEa6RdTNR-23">
          <mxGeometry x="240" width="60" height="40" as="geometry">
            <mxRectangle width="60" height="40" as="alternateBounds" />
          </mxGeometry>
        </mxCell>
        <mxCell id="drJmobVr7tSMEa6RdTNR-36" value="7" style="shape=partialRectangle;html=1;whiteSpace=wrap;connectable=0;strokeColor=inherit;overflow=hidden;fillColor=none;top=0;left=0;bottom=0;right=0;pointerEvents=1;fontSize=23;" vertex="1" parent="drJmobVr7tSMEa6RdTNR-23">
          <mxGeometry x="300" width="60" height="40" as="geometry">
            <mxRectangle width="60" height="40" as="alternateBounds" />
          </mxGeometry>
        </mxCell>
        <mxCell id="drJmobVr7tSMEa6RdTNR-29" value="" style="shape=table;startSize=0;container=1;collapsible=0;childLayout=tableLayout;fontSize=23;" vertex="1" parent="1">
          <mxGeometry x="390" y="200" width="360" height="40" as="geometry" />
        </mxCell>
        <mxCell id="drJmobVr7tSMEa6RdTNR-30" value="" style="shape=tableRow;horizontal=0;startSize=0;swimlaneHead=0;swimlaneBody=0;strokeColor=inherit;top=0;left=0;bottom=0;right=0;collapsible=0;dropTarget=0;fillColor=none;points=[[0,0.5],[1,0.5]];portConstraint=eastwest;" vertex="1" parent="drJmobVr7tSMEa6RdTNR-29">
          <mxGeometry width="360" height="40" as="geometry" />
        </mxCell>
        <mxCell id="drJmobVr7tSMEa6RdTNR-31" value="2" style="shape=partialRectangle;html=1;whiteSpace=wrap;connectable=0;strokeColor=inherit;overflow=hidden;fillColor=none;top=0;left=0;bottom=0;right=0;pointerEvents=1;fontSize=23;" vertex="1" parent="drJmobVr7tSMEa6RdTNR-30">
          <mxGeometry width="60" height="40" as="geometry">
            <mxRectangle width="60" height="40" as="alternateBounds" />
          </mxGeometry>
        </mxCell>
        <mxCell id="drJmobVr7tSMEa6RdTNR-32" value="1" style="shape=partialRectangle;html=1;whiteSpace=wrap;connectable=0;strokeColor=inherit;overflow=hidden;fillColor=none;top=0;left=0;bottom=0;right=0;pointerEvents=1;fontSize=23;" vertex="1" parent="drJmobVr7tSMEa6RdTNR-30">
          <mxGeometry x="60" width="60" height="40" as="geometry">
            <mxRectangle width="60" height="40" as="alternateBounds" />
          </mxGeometry>
        </mxCell>
        <mxCell id="drJmobVr7tSMEa6RdTNR-33" value="2" style="shape=partialRectangle;html=1;whiteSpace=wrap;connectable=0;strokeColor=inherit;overflow=hidden;fillColor=none;top=0;left=0;bottom=0;right=0;pointerEvents=1;fontSize=23;" vertex="1" parent="drJmobVr7tSMEa6RdTNR-30">
          <mxGeometry x="120" width="60" height="40" as="geometry">
            <mxRectangle width="60" height="40" as="alternateBounds" />
          </mxGeometry>
        </mxCell>
        <mxCell id="drJmobVr7tSMEa6RdTNR-34" value="&lt;font style=&quot;font-size: 23px;&quot;&gt;1&lt;/font&gt;" style="shape=partialRectangle;html=1;whiteSpace=wrap;connectable=0;strokeColor=inherit;overflow=hidden;fillColor=none;top=0;left=0;bottom=0;right=0;pointerEvents=1;fontSize=23;" vertex="1" parent="drJmobVr7tSMEa6RdTNR-30">
          <mxGeometry x="180" width="60" height="40" as="geometry">
            <mxRectangle width="60" height="40" as="alternateBounds" />
          </mxGeometry>
        </mxCell>
        <mxCell id="drJmobVr7tSMEa6RdTNR-35" value="2" style="shape=partialRectangle;html=1;whiteSpace=wrap;connectable=0;strokeColor=inherit;overflow=hidden;fillColor=none;top=0;left=0;bottom=0;right=0;pointerEvents=1;fontSize=23;" vertex="1" parent="drJmobVr7tSMEa6RdTNR-30">
          <mxGeometry x="240" width="60" height="40" as="geometry">
            <mxRectangle width="60" height="40" as="alternateBounds" />
          </mxGeometry>
        </mxCell>
        <mxCell id="drJmobVr7tSMEa6RdTNR-37" value="7" style="shape=partialRectangle;html=1;whiteSpace=wrap;connectable=0;strokeColor=inherit;overflow=hidden;fillColor=none;top=0;left=0;bottom=0;right=0;pointerEvents=1;fontSize=23;" vertex="1" parent="drJmobVr7tSMEa6RdTNR-30">
          <mxGeometry x="300" width="60" height="40" as="geometry">
            <mxRectangle width="60" height="40" as="alternateBounds" />
          </mxGeometry>
        </mxCell>
        <mxCell id="drJmobVr7tSMEa6RdTNR-38" value="" style="shape=table;startSize=0;container=1;collapsible=0;childLayout=tableLayout;" vertex="1" parent="1">
          <mxGeometry x="40" y="310" width="300" height="40" as="geometry" />
        </mxCell>
        <mxCell id="drJmobVr7tSMEa6RdTNR-39" value="" style="shape=tableRow;horizontal=0;startSize=0;swimlaneHead=0;swimlaneBody=0;strokeColor=inherit;top=0;left=0;bottom=0;right=0;collapsible=0;dropTarget=0;fillColor=none;points=[[0,0.5],[1,0.5]];portConstraint=eastwest;" vertex="1" parent="drJmobVr7tSMEa6RdTNR-38">
          <mxGeometry width="300" height="40" as="geometry" />
        </mxCell>
        <mxCell id="drJmobVr7tSMEa6RdTNR-40" value="2" style="shape=partialRectangle;html=1;whiteSpace=wrap;connectable=0;strokeColor=inherit;overflow=hidden;fillColor=none;top=0;left=0;bottom=0;right=0;pointerEvents=1;fontSize=23;" vertex="1" parent="drJmobVr7tSMEa6RdTNR-39">
          <mxGeometry width="60" height="40" as="geometry">
            <mxRectangle width="60" height="40" as="alternateBounds" />
          </mxGeometry>
        </mxCell>
        <mxCell id="drJmobVr7tSMEa6RdTNR-41" value="3" style="shape=partialRectangle;html=1;whiteSpace=wrap;connectable=0;strokeColor=inherit;overflow=hidden;fillColor=none;top=0;left=0;bottom=0;right=0;pointerEvents=1;fontSize=23;" vertex="1" parent="drJmobVr7tSMEa6RdTNR-39">
          <mxGeometry x="60" width="60" height="40" as="geometry">
            <mxRectangle width="60" height="40" as="alternateBounds" />
          </mxGeometry>
        </mxCell>
        <mxCell id="drJmobVr7tSMEa6RdTNR-42" value="5" style="shape=partialRectangle;html=1;whiteSpace=wrap;connectable=0;strokeColor=inherit;overflow=hidden;fillColor=none;top=0;left=0;bottom=0;right=0;pointerEvents=1;fontSize=23;" vertex="1" parent="drJmobVr7tSMEa6RdTNR-39">
          <mxGeometry x="120" width="60" height="40" as="geometry">
            <mxRectangle width="60" height="40" as="alternateBounds" />
          </mxGeometry>
        </mxCell>
        <mxCell id="drJmobVr7tSMEa6RdTNR-43" value="2" style="shape=partialRectangle;html=1;whiteSpace=wrap;connectable=0;strokeColor=inherit;overflow=hidden;fillColor=none;top=0;left=0;bottom=0;right=0;pointerEvents=1;fontSize=23;" vertex="1" parent="drJmobVr7tSMEa6RdTNR-39">
          <mxGeometry x="180" width="60" height="40" as="geometry">
            <mxRectangle width="60" height="40" as="alternateBounds" />
          </mxGeometry>
        </mxCell>
        <mxCell id="drJmobVr7tSMEa6RdTNR-44" value="8" style="shape=partialRectangle;html=1;whiteSpace=wrap;connectable=0;strokeColor=inherit;overflow=hidden;fillColor=none;top=0;left=0;bottom=0;right=0;pointerEvents=1;fontSize=23;" vertex="1" parent="drJmobVr7tSMEa6RdTNR-39">
          <mxGeometry x="240" width="60" height="40" as="geometry">
            <mxRectangle width="60" height="40" as="alternateBounds" />
          </mxGeometry>
        </mxCell>
        <mxCell id="drJmobVr7tSMEa6RdTNR-45" value="" style="shape=table;startSize=0;container=1;collapsible=0;childLayout=tableLayout;fontSize=23;" vertex="1" parent="1">
          <mxGeometry x="40" y="370" width="300" height="40" as="geometry" />
        </mxCell>
        <mxCell id="drJmobVr7tSMEa6RdTNR-46" value="" style="shape=tableRow;horizontal=0;startSize=0;swimlaneHead=0;swimlaneBody=0;strokeColor=inherit;top=0;left=0;bottom=0;right=0;collapsible=0;dropTarget=0;fillColor=none;points=[[0,0.5],[1,0.5]];portConstraint=eastwest;" vertex="1" parent="drJmobVr7tSMEa6RdTNR-45">
          <mxGeometry width="300" height="40" as="geometry" />
        </mxCell>
        <mxCell id="drJmobVr7tSMEa6RdTNR-47" value="1" style="shape=partialRectangle;html=1;whiteSpace=wrap;connectable=0;strokeColor=inherit;overflow=hidden;fillColor=none;top=0;left=0;bottom=0;right=0;pointerEvents=1;fontSize=23;" vertex="1" parent="drJmobVr7tSMEa6RdTNR-46">
          <mxGeometry width="60" height="40" as="geometry">
            <mxRectangle width="60" height="40" as="alternateBounds" />
          </mxGeometry>
        </mxCell>
        <mxCell id="drJmobVr7tSMEa6RdTNR-48" value="1" style="shape=partialRectangle;html=1;whiteSpace=wrap;connectable=0;strokeColor=inherit;overflow=hidden;fillColor=none;top=0;left=0;bottom=0;right=0;pointerEvents=1;fontSize=23;" vertex="1" parent="drJmobVr7tSMEa6RdTNR-46">
          <mxGeometry x="60" width="60" height="40" as="geometry">
            <mxRectangle width="60" height="40" as="alternateBounds" />
          </mxGeometry>
        </mxCell>
        <mxCell id="drJmobVr7tSMEa6RdTNR-49" value="2" style="shape=partialRectangle;html=1;whiteSpace=wrap;connectable=0;strokeColor=inherit;overflow=hidden;fillColor=none;top=0;left=0;bottom=0;right=0;pointerEvents=1;fontSize=23;" vertex="1" parent="drJmobVr7tSMEa6RdTNR-46">
          <mxGeometry x="120" width="60" height="40" as="geometry">
            <mxRectangle width="60" height="40" as="alternateBounds" />
          </mxGeometry>
        </mxCell>
        <mxCell id="drJmobVr7tSMEa6RdTNR-50" value="&lt;font style=&quot;font-size: 23px;&quot;&gt;1&lt;/font&gt;" style="shape=partialRectangle;html=1;whiteSpace=wrap;connectable=0;strokeColor=inherit;overflow=hidden;fillColor=none;top=0;left=0;bottom=0;right=0;pointerEvents=1;fontSize=23;" vertex="1" parent="drJmobVr7tSMEa6RdTNR-46">
          <mxGeometry x="180" width="60" height="40" as="geometry">
            <mxRectangle width="60" height="40" as="alternateBounds" />
          </mxGeometry>
        </mxCell>
        <mxCell id="drJmobVr7tSMEa6RdTNR-51" value="2" style="shape=partialRectangle;html=1;whiteSpace=wrap;connectable=0;strokeColor=inherit;overflow=hidden;fillColor=none;top=0;left=0;bottom=0;right=0;pointerEvents=1;fontSize=23;" vertex="1" parent="drJmobVr7tSMEa6RdTNR-46">
          <mxGeometry x="240" width="60" height="40" as="geometry">
            <mxRectangle width="60" height="40" as="alternateBounds" />
          </mxGeometry>
        </mxCell>
        <mxCell id="drJmobVr7tSMEa6RdTNR-52" value="" style="shape=table;startSize=0;container=1;collapsible=0;childLayout=tableLayout;" vertex="1" parent="1">
          <mxGeometry x="410" y="310" width="300" height="40" as="geometry" />
        </mxCell>
        <mxCell id="drJmobVr7tSMEa6RdTNR-53" value="" style="shape=tableRow;horizontal=0;startSize=0;swimlaneHead=0;swimlaneBody=0;strokeColor=inherit;top=0;left=0;bottom=0;right=0;collapsible=0;dropTarget=0;fillColor=none;points=[[0,0.5],[1,0.5]];portConstraint=eastwest;" vertex="1" parent="drJmobVr7tSMEa6RdTNR-52">
          <mxGeometry width="300" height="40" as="geometry" />
        </mxCell>
        <mxCell id="drJmobVr7tSMEa6RdTNR-54" value="1" style="shape=partialRectangle;html=1;whiteSpace=wrap;connectable=0;strokeColor=inherit;overflow=hidden;fillColor=none;top=0;left=0;bottom=0;right=0;pointerEvents=1;fontSize=23;" vertex="1" parent="drJmobVr7tSMEa6RdTNR-53">
          <mxGeometry width="60" height="40" as="geometry">
            <mxRectangle width="60" height="40" as="alternateBounds" />
          </mxGeometry>
        </mxCell>
        <mxCell id="drJmobVr7tSMEa6RdTNR-55" value="1" style="shape=partialRectangle;html=1;whiteSpace=wrap;connectable=0;strokeColor=inherit;overflow=hidden;fillColor=none;top=0;left=0;bottom=0;right=0;pointerEvents=1;fontSize=23;" vertex="1" parent="drJmobVr7tSMEa6RdTNR-53">
          <mxGeometry x="60" width="60" height="40" as="geometry">
            <mxRectangle width="60" height="40" as="alternateBounds" />
          </mxGeometry>
        </mxCell>
        <mxCell id="drJmobVr7tSMEa6RdTNR-56" value="6" style="shape=partialRectangle;html=1;whiteSpace=wrap;connectable=0;strokeColor=inherit;overflow=hidden;fillColor=none;top=0;left=0;bottom=0;right=0;pointerEvents=1;fontSize=23;" vertex="1" parent="drJmobVr7tSMEa6RdTNR-53">
          <mxGeometry x="120" width="60" height="40" as="geometry">
            <mxRectangle width="60" height="40" as="alternateBounds" />
          </mxGeometry>
        </mxCell>
        <mxCell id="drJmobVr7tSMEa6RdTNR-57" value="2" style="shape=partialRectangle;html=1;whiteSpace=wrap;connectable=0;strokeColor=inherit;overflow=hidden;fillColor=none;top=0;left=0;bottom=0;right=0;pointerEvents=1;fontSize=23;" vertex="1" parent="drJmobVr7tSMEa6RdTNR-53">
          <mxGeometry x="180" width="60" height="40" as="geometry">
            <mxRectangle width="60" height="40" as="alternateBounds" />
          </mxGeometry>
        </mxCell>
        <mxCell id="drJmobVr7tSMEa6RdTNR-58" value="1" style="shape=partialRectangle;html=1;whiteSpace=wrap;connectable=0;strokeColor=inherit;overflow=hidden;fillColor=none;top=0;left=0;bottom=0;right=0;pointerEvents=1;fontSize=23;" vertex="1" parent="drJmobVr7tSMEa6RdTNR-53">
          <mxGeometry x="240" width="60" height="40" as="geometry">
            <mxRectangle width="60" height="40" as="alternateBounds" />
          </mxGeometry>
        </mxCell>
        <mxCell id="drJmobVr7tSMEa6RdTNR-59" value="" style="shape=table;startSize=0;container=1;collapsible=0;childLayout=tableLayout;fontSize=23;" vertex="1" parent="1">
          <mxGeometry x="410" y="370" width="300" height="40" as="geometry" />
        </mxCell>
        <mxCell id="drJmobVr7tSMEa6RdTNR-60" value="" style="shape=tableRow;horizontal=0;startSize=0;swimlaneHead=0;swimlaneBody=0;strokeColor=inherit;top=0;left=0;bottom=0;right=0;collapsible=0;dropTarget=0;fillColor=none;points=[[0,0.5],[1,0.5]];portConstraint=eastwest;" vertex="1" parent="drJmobVr7tSMEa6RdTNR-59">
          <mxGeometry width="300" height="40" as="geometry" />
        </mxCell>
        <mxCell id="drJmobVr7tSMEa6RdTNR-61" value="1" style="shape=partialRectangle;html=1;whiteSpace=wrap;connectable=0;strokeColor=inherit;overflow=hidden;fillColor=none;top=0;left=0;bottom=0;right=0;pointerEvents=1;fontSize=23;" vertex="1" parent="drJmobVr7tSMEa6RdTNR-60">
          <mxGeometry width="60" height="40" as="geometry">
            <mxRectangle width="60" height="40" as="alternateBounds" />
          </mxGeometry>
        </mxCell>
        <mxCell id="drJmobVr7tSMEa6RdTNR-62" value="1" style="shape=partialRectangle;html=1;whiteSpace=wrap;connectable=0;strokeColor=inherit;overflow=hidden;fillColor=none;top=0;left=0;bottom=0;right=0;pointerEvents=1;fontSize=23;" vertex="1" parent="drJmobVr7tSMEa6RdTNR-60">
          <mxGeometry x="60" width="60" height="40" as="geometry">
            <mxRectangle width="60" height="40" as="alternateBounds" />
          </mxGeometry>
        </mxCell>
        <mxCell id="drJmobVr7tSMEa6RdTNR-63" value="3" style="shape=partialRectangle;html=1;whiteSpace=wrap;connectable=0;strokeColor=inherit;overflow=hidden;fillColor=none;top=0;left=0;bottom=0;right=0;pointerEvents=1;fontSize=23;" vertex="1" parent="drJmobVr7tSMEa6RdTNR-60">
          <mxGeometry x="120" width="60" height="40" as="geometry">
            <mxRectangle width="60" height="40" as="alternateBounds" />
          </mxGeometry>
        </mxCell>
        <mxCell id="drJmobVr7tSMEa6RdTNR-64" value="&lt;font style=&quot;font-size: 23px;&quot;&gt;2&lt;/font&gt;" style="shape=partialRectangle;html=1;whiteSpace=wrap;connectable=0;strokeColor=inherit;overflow=hidden;fillColor=none;top=0;left=0;bottom=0;right=0;pointerEvents=1;fontSize=23;" vertex="1" parent="drJmobVr7tSMEa6RdTNR-60">
          <mxGeometry x="180" width="60" height="40" as="geometry">
            <mxRectangle width="60" height="40" as="alternateBounds" />
          </mxGeometry>
        </mxCell>
        <mxCell id="drJmobVr7tSMEa6RdTNR-65" value="1" style="shape=partialRectangle;html=1;whiteSpace=wrap;connectable=0;strokeColor=inherit;overflow=hidden;fillColor=none;top=0;left=0;bottom=0;right=0;pointerEvents=1;fontSize=23;" vertex="1" parent="drJmobVr7tSMEa6RdTNR-60">
          <mxGeometry x="240" width="60" height="40" as="geometry">
            <mxRectangle width="60" height="40" as="alternateBounds" />
          </mxGeometry>
        </mxCell>
        <mxCell id="drJmobVr7tSMEa6RdTNR-66" value="" style="shape=table;startSize=0;container=1;collapsible=0;childLayout=tableLayout;" vertex="1" parent="1">
          <mxGeometry x="410" y="490" width="300" height="40" as="geometry" />
        </mxCell>
        <mxCell id="drJmobVr7tSMEa6RdTNR-67" value="" style="shape=tableRow;horizontal=0;startSize=0;swimlaneHead=0;swimlaneBody=0;strokeColor=inherit;top=0;left=0;bottom=0;right=0;collapsible=0;dropTarget=0;fillColor=none;points=[[0,0.5],[1,0.5]];portConstraint=eastwest;" vertex="1" parent="drJmobVr7tSMEa6RdTNR-66">
          <mxGeometry width="300" height="40" as="geometry" />
        </mxCell>
        <mxCell id="drJmobVr7tSMEa6RdTNR-68" value="1" style="shape=partialRectangle;html=1;whiteSpace=wrap;connectable=0;strokeColor=inherit;overflow=hidden;fillColor=none;top=0;left=0;bottom=0;right=0;pointerEvents=1;fontSize=23;" vertex="1" parent="drJmobVr7tSMEa6RdTNR-67">
          <mxGeometry width="60" height="40" as="geometry">
            <mxRectangle width="60" height="40" as="alternateBounds" />
          </mxGeometry>
        </mxCell>
        <mxCell id="drJmobVr7tSMEa6RdTNR-69" value="4" style="shape=partialRectangle;html=1;whiteSpace=wrap;connectable=0;strokeColor=inherit;overflow=hidden;fillColor=none;top=0;left=0;bottom=0;right=0;pointerEvents=1;fontSize=23;" vertex="1" parent="drJmobVr7tSMEa6RdTNR-67">
          <mxGeometry x="60" width="60" height="40" as="geometry">
            <mxRectangle width="60" height="40" as="alternateBounds" />
          </mxGeometry>
        </mxCell>
        <mxCell id="drJmobVr7tSMEa6RdTNR-70" value="3" style="shape=partialRectangle;html=1;whiteSpace=wrap;connectable=0;strokeColor=inherit;overflow=hidden;fillColor=none;top=0;left=0;bottom=0;right=0;pointerEvents=1;fontSize=23;" vertex="1" parent="drJmobVr7tSMEa6RdTNR-67">
          <mxGeometry x="120" width="60" height="40" as="geometry">
            <mxRectangle width="60" height="40" as="alternateBounds" />
          </mxGeometry>
        </mxCell>
        <mxCell id="drJmobVr7tSMEa6RdTNR-71" value="2" style="shape=partialRectangle;html=1;whiteSpace=wrap;connectable=0;strokeColor=inherit;overflow=hidden;fillColor=none;top=0;left=0;bottom=0;right=0;pointerEvents=1;fontSize=23;" vertex="1" parent="drJmobVr7tSMEa6RdTNR-67">
          <mxGeometry x="180" width="60" height="40" as="geometry">
            <mxRectangle width="60" height="40" as="alternateBounds" />
          </mxGeometry>
        </mxCell>
        <mxCell id="drJmobVr7tSMEa6RdTNR-72" value="1" style="shape=partialRectangle;html=1;whiteSpace=wrap;connectable=0;strokeColor=inherit;overflow=hidden;fillColor=none;top=0;left=0;bottom=0;right=0;pointerEvents=1;fontSize=23;" vertex="1" parent="drJmobVr7tSMEa6RdTNR-67">
          <mxGeometry x="240" width="60" height="40" as="geometry">
            <mxRectangle width="60" height="40" as="alternateBounds" />
          </mxGeometry>
        </mxCell>
        <mxCell id="drJmobVr7tSMEa6RdTNR-73" value="" style="shape=table;startSize=0;container=1;collapsible=0;childLayout=tableLayout;fontSize=23;" vertex="1" parent="1">
          <mxGeometry x="410" y="550" width="300" height="40" as="geometry" />
        </mxCell>
        <mxCell id="drJmobVr7tSMEa6RdTNR-74" value="" style="shape=tableRow;horizontal=0;startSize=0;swimlaneHead=0;swimlaneBody=0;strokeColor=inherit;top=0;left=0;bottom=0;right=0;collapsible=0;dropTarget=0;fillColor=none;points=[[0,0.5],[1,0.5]];portConstraint=eastwest;" vertex="1" parent="drJmobVr7tSMEa6RdTNR-73">
          <mxGeometry width="300" height="40" as="geometry" />
        </mxCell>
        <mxCell id="drJmobVr7tSMEa6RdTNR-75" value="1" style="shape=partialRectangle;html=1;whiteSpace=wrap;connectable=0;strokeColor=inherit;overflow=hidden;fillColor=none;top=0;left=0;bottom=0;right=0;pointerEvents=1;fontSize=23;" vertex="1" parent="drJmobVr7tSMEa6RdTNR-74">
          <mxGeometry width="60" height="40" as="geometry">
            <mxRectangle width="60" height="40" as="alternateBounds" />
          </mxGeometry>
        </mxCell>
        <mxCell id="drJmobVr7tSMEa6RdTNR-76" value="1" style="shape=partialRectangle;html=1;whiteSpace=wrap;connectable=0;strokeColor=inherit;overflow=hidden;fillColor=none;top=0;left=0;bottom=0;right=0;pointerEvents=1;fontSize=23;" vertex="1" parent="drJmobVr7tSMEa6RdTNR-74">
          <mxGeometry x="60" width="60" height="40" as="geometry">
            <mxRectangle width="60" height="40" as="alternateBounds" />
          </mxGeometry>
        </mxCell>
        <mxCell id="drJmobVr7tSMEa6RdTNR-77" value="3" style="shape=partialRectangle;html=1;whiteSpace=wrap;connectable=0;strokeColor=inherit;overflow=hidden;fillColor=none;top=0;left=0;bottom=0;right=0;pointerEvents=1;fontSize=23;" vertex="1" parent="drJmobVr7tSMEa6RdTNR-74">
          <mxGeometry x="120" width="60" height="40" as="geometry">
            <mxRectangle width="60" height="40" as="alternateBounds" />
          </mxGeometry>
        </mxCell>
        <mxCell id="drJmobVr7tSMEa6RdTNR-78" value="&lt;font style=&quot;font-size: 23px;&quot;&gt;2&lt;/font&gt;" style="shape=partialRectangle;html=1;whiteSpace=wrap;connectable=0;strokeColor=inherit;overflow=hidden;fillColor=none;top=0;left=0;bottom=0;right=0;pointerEvents=1;fontSize=23;" vertex="1" parent="drJmobVr7tSMEa6RdTNR-74">
          <mxGeometry x="180" width="60" height="40" as="geometry">
            <mxRectangle width="60" height="40" as="alternateBounds" />
          </mxGeometry>
        </mxCell>
        <mxCell id="drJmobVr7tSMEa6RdTNR-79" value="1" style="shape=partialRectangle;html=1;whiteSpace=wrap;connectable=0;strokeColor=inherit;overflow=hidden;fillColor=none;top=0;left=0;bottom=0;right=0;pointerEvents=1;fontSize=23;" vertex="1" parent="drJmobVr7tSMEa6RdTNR-74">
          <mxGeometry x="240" width="60" height="40" as="geometry">
            <mxRectangle width="60" height="40" as="alternateBounds" />
          </mxGeometry>
        </mxCell>
      </root>
    </mxGraphModel>
  </diagram>
</mxfile>
